<svg viewBox="1097.2674418604652 1320.15 1185.3197674418607 1421.6999999999998" fill="none" xmlns="http://www.w3.org/2000/svg" xmlns:xlink="http://www.w3.org/1999/xlink" overflow="visible" width="1185.3197674418607px" height="1421.6999999999998px"><g id="Master/Character/Sitting On Floor [colors]"><g id="Upper Body" transform="translate(911 1329) scale(1 1)"><g id="Upper Body/Coffee and Phone"><path id="Neck" fill-rule="evenodd" clip-rule="evenodd" d="M724.954 220C724.954 220 721.263 301.153 673.924 329.8C630.973 355.791 721.969 506.61 819.858 497.614C873.442 492.688 886 346.158 886 346.158C886 346.158 842.734 337.797 858.716 271.819L724.954 220Z" fill="#f6cbc3"/><path id="Head" fill-rule="evenodd" clip-rule="evenodd" d="M803.337 302.516C739.877 294.841 694.078 253.116 687.665 183.898C669.216 186.835 664.865 138.765 670.003 123.323C675.146 107.859 691.933 116.901 691.933 116.901C691.933 116.901 693.327 113.235 694.303 109.226C722.025 -4.48555 799.67 0.0243587 799.67 0.0243587C942.344 7.45716 908.914 153.12 900.763 191.763C892.611 230.41 864.684 309.927 803.337 302.516Z" fill="#f6cbc3"/><g id="Group 31"><path id="Path" fill-rule="evenodd" clip-rule="evenodd" d="M376.227 576C376.227 576 206.738 844.505 269.287 901.819C331.836 959.134 507.933 762.377 507.933 762.377C507.933 762.377 498.858 718.445 461.074 666.513C423.29 614.58 376.227 576 376.227 576Z" fill="#f6cbc3"/><g id="Group 3"><path id="Fill 1" fill-rule="evenodd" clip-rule="evenodd" d="M1088.32 703.18L1005.85 693.58C1005.85 693.58 1026.95 977.46 1019.02 977.46C1014.76 977.46 915.693 1031.17 776.867 1031.17C670.216 1031.17 539.396 995.9 533.866 995.6C533.186 995.56 532.526 995.1 531.896 994.25C533.676 974.67 535.086 940.05 536.516 901.82C537.516 875 538.536 846.41 539.706 820C540.796 795.43 542.016 772.75 543.486 755.13C549.886 678.28 545.456 608.15 545.456 608.15L513.876 693.85L313.676 620.91C313.676 620.91 380.526 523.48 460.226 438.741C539.296 354.66 666.116 333.33 668.096 333.01C668.106 333 668.116 333 668.116 333C668.116 333 660.996 449 780.966 457.91C880.716 465.32 885.886 345.76 885.886 345.76C885.886 345.76 1002.49 376.2 1035.94 404.73C1069.39 433.26 1216.96 628.05 1216.96 632.97C1216.96 637.89 1088.32 703.18 1088.32 703.18Z" fill="#F9C818"/></g><path id="Fill 4" fill-rule="evenodd" clip-rule="evenodd" d="M539.707 820C538.537 846.41 537.517 875 536.517 901.819C536.287 883.649 537.007 857.52 539.707 820" fill="#F9C818"/><path id="Fill 6" fill-rule="evenodd" clip-rule="evenodd" d="M954.269 736.572L849.392 745.095C843.071 745.609 837.529 740.901 837.015 734.579L820.253 528.343C819.74 522.021 824.448 516.479 830.77 515.966L935.646 507.442C941.968 506.928 947.51 511.636 948.024 517.959L964.785 724.194C965.299 730.516 960.591 736.057 954.269 736.572" fill="#204EB2"/><path id="Fill 8" fill-rule="evenodd" clip-rule="evenodd" d="M964.96 730.856L859.705 739.411C853.488 739.917 848.038 735.286 847.532 729.068L831.35 529.967C830.845 523.751 835.476 518.3 841.693 517.795L946.948 509.241C953.165 508.735 958.615 513.366 959.121 519.584L975.303 718.683C975.808 724.901 971.177 730.351 964.96 730.856" fill="#1F9BEB"/><path id="Fill 10" fill-rule="evenodd" clip-rule="evenodd" d="M947.255 531.94C947.74 537.912 943.293 543.146 937.321 543.631C931.35 544.117 926.115 539.669 925.63 533.697C925.145 527.726 929.592 522.492 935.564 522.006C941.535 521.521 946.77 525.968 947.255 531.94" fill="#204EB2"/><g id="Group 14"><path id="Fill 12" fill-rule="evenodd" clip-rule="evenodd" d="M926.491 723.582C926.491 723.582 873.894 735.046 873.557 716.839C873.557 716.839 909.296 702.004 917.388 702.678C925.48 703.353 962.905 707.735 962.905 707.735L916.713 684.809L870.859 698.97C870.859 698.97 860.407 699.644 855.687 692.226C850.967 684.809 856.361 680.426 856.361 680.426L916.376 660.533C916.376 660.533 918.399 654.127 903.227 653.452C888.054 652.778 854.675 650.418 854.675 650.418C854.675 650.418 847.258 644.012 850.629 632.548C854.001 621.085 872.882 625.131 872.882 625.131C872.882 625.131 862.43 615.016 878.277 603.89C878.277 603.89 926.828 605.238 944.698 616.364C962.567 627.491 1084.89 702.596 1084.89 702.596L1180.09 652.587C1180.09 652.587 1360.84 873.839 1276 914.749C1191.16 955.658 926.491 723.582 926.491 723.582Z" fill="#f6cbc3"/></g><path id="Fill 15" fill-rule="evenodd" clip-rule="evenodd" d="M979.305 657.272L931.502 630.183L871.977 623.805L872.403 619.829L932.34 626.251C932.612 626.279 932.875 626.364 933.113 626.499L981.277 653.792L979.305 657.272Z" fill="black"/><path id="Fill 17" fill-rule="evenodd" clip-rule="evenodd" d="M1171.18 757.268L1056.93 685.473L1059.06 682.086L1173.31 753.881L1171.18 757.268Z" fill="black"/><path id="Fill 17_2" fill-rule="evenodd" clip-rule="evenodd" d="M454.788 675.157L340.173 746.375L338.062 742.977L452.676 671.759L454.788 675.157Z" fill="black"/><path id="Fill 19" fill-rule="evenodd" clip-rule="evenodd" d="M975.432 679.236C975.13 679.032 945.176 658.754 937.365 655.499C931.406 653.016 919.493 657.546 915.406 659.502L913.68 655.892C914.346 655.575 930.09 648.132 938.903 651.807C947.084 655.215 976.431 675.081 977.676 675.925L975.432 679.236Z" fill="black"/><path id="Fill 21" fill-rule="evenodd" clip-rule="evenodd" d="M965.141 600.124L994.655 645.264L966.588 627.613L965.141 600.124Z" fill="#f6cbc3"/><path id="Fill 23" fill-rule="evenodd" clip-rule="evenodd" d="M993.587 646.957L965.52 629.307L967.649 625.92L995.716 643.57L993.587 646.957Z" fill="black"/><path id="Fill 27" fill-rule="evenodd" clip-rule="evenodd" d="M601.7 757.014L566.555 756.325C529.55 755.599 500.139 725.011 500.865 688.006L503.062 576L662.887 579.136L660.507 700.469C659.883 732.323 633.554 757.639 601.7 757.014" fill="white"/></g><g id="Group"><path id="Fill 12" fill-rule="evenodd" clip-rule="evenodd" d="M499.562 614.711C499.562 614.711 485.139 623.983 480.503 629.649C475.867 635.315 479.988 636.346 469.686 647.163C459.384 657.981 440.84 685.281 473.291 727.005C505.744 768.729 516.561 765.122 529.954 757.911C543.346 750.699 544.892 745.549 570.132 742.973C595.372 740.398 619.582 715.672 619.067 709.491L618.552 703.31C618.552 703.31 641.731 694.553 640.187 684.766C638.641 674.979 631.945 676.009 631.945 676.009C631.945 676.009 636.581 671.373 632.975 663.131C629.369 654.89 612.371 656.435 592.796 659.011C573.223 661.586 522.742 671.888 519.651 669.828C516.561 667.768 517.591 664.677 529.438 663.131C541.286 661.586 589.191 661.071 589.191 647.678C589.191 634.285 574.768 631.71 546.952 632.225C519.136 632.74 513.985 631.194 507.289 633.771L500.592 636.346L499.562 614.711Z" fill="#f6cbc3"/><path id="Fill 14" fill-rule="evenodd" clip-rule="evenodd" d="M632.349 675.951C632.349 675.951 633.829 674.883 622.806 679.092C618.792 680.624 613.132 682.223 605.158 683.735C575.281 689.401 528.407 699.704 513.984 701.764C499.56 703.825 511.408 706.915 544.375 700.219C577.342 693.522 616.587 684.539 618.349 683.951C621.349 682.951 630.349 679.951 632.349 675.951" fill="black"/><path id="Fill 16" fill-rule="evenodd" clip-rule="evenodd" d="M607.736 706.401C607.736 706.401 583.352 714.952 571.352 717.952C558.611 721.137 549.014 725.46 546.439 721.339C543.863 717.218 540.772 716.188 540.772 716.188L536.652 720.824C536.652 720.824 537.352 725.952 535.106 726.49C531.099 727.451 523.258 729.066 523.258 729.066C523.258 729.066 523.352 731.952 547.352 726.952C553.307 725.712 564.352 723.952 571.352 721.952C577.791 720.112 601.04 714.128 604.131 711.552C607.221 708.976 607.736 706.401 607.736 706.401" fill="black"/><path id="Fill 18" fill-rule="evenodd" clip-rule="evenodd" d="M532.013 703.825C532.013 703.825 531.633 724.568 537.489 724.241C543.346 723.914 545.406 723.914 546.436 722.368C547.467 720.823 544.891 715.672 544.891 710.006C544.891 704.34 544.891 701.764 540.255 702.279C535.619 702.795 532.528 702.795 532.013 703.825" fill="#F9C818"/></g></g></g><g id="Lower Body/Sitting on Floor" transform="matrix(-1 0 0 1 2330 1832) scale(1 1)"><g id="Lower Body/Sitting on Floor/Legs Crossed 1"><g id="Group 46"><path id="Fill 1" fill-rule="evenodd" clip-rule="evenodd" d="M652.882 663.558C652.882 663.558 610.128 682.102 604.977 674.89C599.826 667.679 644.125 712.494 644.125 712.494L676.062 694.464L652.882 663.558Z" fill="#f6cbc3"/><path id="Stroke 3 (Stroke)" fill-rule="evenodd" clip-rule="evenodd" d="M654.872 663.558L679.787 696.778L645.364 716.211L644.559 715.396L645.625 714.342C644.559 715.396 644.559 715.396 644.559 715.396L644.063 714.895C643.74 714.569 643.267 714.092 642.667 713.486C641.466 712.276 639.757 710.554 637.721 708.51C633.65 704.423 628.277 699.05 623.066 693.903C617.851 688.752 612.81 683.84 609.4 680.67C608.93 680.233 608.496 679.834 608.1 679.475C606.962 679.141 605.941 678.567 605.257 677.609M609.545 676.738C608.72 676.002 608.048 675.431 607.577 675.08C607.383 674.936 607.159 674.779 606.94 674.667C606.847 674.619 606.638 674.517 606.372 674.474C606.158 674.438 605.291 674.366 604.788 675.189C604.587 675.518 604.558 675.838 604.561 676.024C604.563 676.215 604.599 676.37 604.626 676.465C604.679 676.654 604.758 676.813 604.811 676.914C604.926 677.13 605.084 677.368 605.257 677.609M609.545 676.738C609.738 676.774 609.949 676.805 610.179 676.83C611.653 676.993 613.598 676.88 615.909 676.527C620.516 675.822 626.249 674.211 631.892 672.351C637.52 670.497 642.995 668.416 647.067 666.797C649.102 665.987 650.784 665.294 651.957 664.804C652.543 664.559 653.001 664.365 653.313 664.232C653.468 664.166 653.587 664.115 653.667 664.081L653.756 664.042L653.785 664.03C653.785 664.029 653.785 664.029 654.382 665.406L653.785 664.03L654.872 663.558M653.888 667.247C653.662 667.342 653.403 667.451 653.114 667.572C651.928 668.068 650.229 668.768 648.176 669.584C644.071 671.216 638.536 673.321 632.831 675.201C627.141 677.076 621.22 678.749 616.362 679.492C615.165 679.676 614.012 679.806 612.928 679.866C616.265 683.018 620.664 687.314 625.174 691.768C630.393 696.923 635.773 702.303 639.847 706.393C641.884 708.439 643.595 710.162 644.797 711.374C645.228 711.809 645.594 712.178 645.886 712.472L675.337 695.845L653.888 667.247ZM607.462 675.508C607.462 675.509 607.462 675.508 607.462 675.508C607.458 675.5 607.457 675.5 607.462 675.508Z" fill="black"/><path id="Fill 5" fill-rule="evenodd" clip-rule="evenodd" d="M310.336 686.223C310.336 686.223 247.493 722.795 297.458 779.972C347.423 837.149 524.105 798.001 524.105 798.001L528.741 775.336C528.741 775.336 351.029 689.314 310.336 686.223" fill="#F0ECEC"/><path id="Fill 7" fill-rule="evenodd" clip-rule="evenodd" d="M310.336 686.223C310.336 686.223 285.611 691.373 277.884 719.704C270.158 748.036 287.189 781.029 312.155 792.09C312.155 792.09 280.291 721.375 336.264 692.209L310.336 686.223Z" fill="#E0D3CC"/><path id="Fill 9" fill-rule="evenodd" clip-rule="evenodd" d="M330.523 800.127C330.523 800.127 353.089 754.218 363.391 755.248C373.693 756.278 485.214 762.067 496.418 759.945L533.376 774.821L526.841 798.405C526.841 798.405 389.344 830.584 330.523 800.127" fill="#E7DADA"/><path id="Fill 11" fill-rule="evenodd" clip-rule="evenodd" d="M360.818 713.524C360.818 713.524 352.576 773.276 364.423 773.276C376.271 773.276 379.362 706.312 381.422 729.492C383.483 752.671 385.028 782.033 392.755 773.276C400.481 764.519 384.513 699.616 391.209 717.644C397.905 735.673 402.026 769.67 412.844 769.155C423.661 768.64 408.723 734.128 414.389 733.097C420.055 732.067 431.387 777.912 441.174 772.246C450.962 766.58 432.933 728.977 443.235 742.884C453.537 756.793 456.628 773.276 465.9 771.215C475.172 769.155 464.869 751.127 459.203 742.37C453.537 733.613 366.484 700.13 363.908 704.252C361.333 708.373 360.818 713.524 360.818 713.524" fill="#F9F9F9"/><g id="Group 15"><mask id="mask09589333c-1fcc-4908-89b6-47c7127bda80" mask-type="alpha" maskUnits="userSpaceOnUse" x="69" y="358" width="1142" height="423"><path id="Clip 14" fill-rule="evenodd" clip-rule="evenodd" d="M69 358H1210.52V780.57H69V358Z" fill="white"/></mask><g mask="url(#mask09589333c-1fcc-4908-89b6-47c7127bda80)"><path id="Fill 13" fill-rule="evenodd" clip-rule="evenodd" d="M493.714 772.246C493.714 772.246 285.611 711.978 188.771 635.227C91.9312 558.476 35.7842 483.786 90.3852 399.824C144.986 315.861 273.248 379.734 335.061 407.035C396.874 434.336 599.57 472.945 696.28 472.7C792.991 472.454 922.798 465.242 990.277 445.153C1057.76 425.064 1165.41 394.673 1198.38 476.575C1231.35 558.476 1192.71 638.834 1136.05 666.134C1079.39 693.434 904.769 752.157 815.141 746.491L725.512 740.824C725.512 740.824 686.879 698.071 697.181 635.743L643.095 674.891C643.095 674.891 612.189 674.376 600.856 670.255C589.524 666.134 526.681 817.06 493.714 772.246" fill="#56ACF6"/></g></g><path id="Fill 16" fill-rule="evenodd" clip-rule="evenodd" d="M548.83 779.458C548.83 779.458 639.489 812.939 661.123 826.848C682.758 840.756 727.572 852.603 749.207 837.665C770.841 822.727 757.964 748.552 757.964 748.552C757.964 748.552 685.333 732.067 677.092 720.735C668.85 709.403 602.916 671.801 602.916 671.801L548.83 779.458Z" fill="#f6cbc3"/><path id="Fill 18" fill-rule="evenodd" clip-rule="evenodd" d="M750.197 754.42C750.197 754.42 754.874 742.37 769.297 744.945C783.72 747.522 918.163 732.583 956.796 721.766C995.428 710.948 1077.33 787.699 1041.79 841.785C1006.25 895.872 957.826 870.116 914.042 866.511C870.258 862.905 785.265 875.268 766.206 869.086C747.147 862.905 728.088 851.572 727.573 838.18C727.058 824.787 750.197 754.42 750.197 754.42" fill="#F0ECEC"/><path id="Fill 20" fill-rule="evenodd" clip-rule="evenodd" d="M946.766 728.819C946.766 728.819 1003.67 756.793 1013.97 795.425C1024.27 834.058 1019.49 864.984 1019.49 864.984C1019.49 864.984 1073.49 839.54 1042.7 779.107C1011.91 718.674 963.523 713.708 946.766 722.63C930.009 731.552 946.766 728.819 946.766 728.819" fill="#E0D3CC"/><path id="Fill 22" fill-rule="evenodd" clip-rule="evenodd" d="M940.464 727.512C940.464 727.512 917.131 764.519 914.041 791.304C914.041 791.304 916.101 796.455 890.346 795.941C864.59 795.425 744.517 769.076 744.517 769.076C744.517 769.076 718.688 830.95 728.024 846.927C737.359 862.905 914.041 832.513 914.041 832.513C914.041 832.513 921.252 828.392 925.888 831.998C930.524 835.604 954.46 868.63 987.306 875.296C987.306 875.296 936.19 847.966 932.069 811.908C927.948 775.851 940.464 727.512 940.464 727.512" fill="#EEDFD9"/><path id="Fill 24" fill-rule="evenodd" clip-rule="evenodd" d="M770.842 765.035C770.842 765.035 772.387 800.061 765.691 819.636C758.994 839.21 753.433 856.283 764.97 854.185C776.508 852.088 788.871 774.306 782.175 767.61C775.478 760.914 771.357 758.853 770.842 765.035" fill="white"/><path id="Fill 26" fill-rule="evenodd" clip-rule="evenodd" d="M789.9 769.155C789.9 769.155 791.445 804.182 784.749 823.757C778.052 843.331 772.491 860.403 784.028 858.305C795.566 856.209 807.929 778.427 801.232 771.731C794.536 765.035 790.415 762.974 789.9 769.155" fill="white"/><path id="Fill 28" fill-rule="evenodd" clip-rule="evenodd" d="M857.379 770.385C857.379 770.385 858.924 802.423 852.228 820.326C845.531 838.23 839.97 853.846 851.507 851.927C863.045 850.008 875.408 778.865 868.711 772.74C862.015 766.615 857.894 764.731 857.379 770.385" fill="white"/><path id="Fill 30" fill-rule="evenodd" clip-rule="evenodd" d="M883.135 774.281C883.135 774.281 884.68 804.185 877.984 820.896C871.287 837.608 865.726 852.183 877.263 850.393C888.801 848.602 901.164 782.197 894.467 776.48C887.771 770.762 883.65 769.004 883.135 774.281" fill="white"/><path id="Fill 32" fill-rule="evenodd" clip-rule="evenodd" d="M901.643 772.125C901.643 772.125 907.419 801.506 903.164 818.999C898.909 836.492 895.474 851.71 906.64 848.299C917.806 844.888 920.613 777.399 913.173 772.691C905.732 767.983 901.403 766.827 901.643 772.125" fill="white"/><path id="Fill 34" fill-rule="evenodd" clip-rule="evenodd" d="M813.854 771.405C813.854 771.405 811.809 806.407 803.146 825.194C794.482 843.98 787.204 860.394 798.896 859.488C810.587 858.582 830.84 782.472 824.864 775.127C818.887 767.78 814.999 765.309 813.854 771.405" fill="white"/><path id="Fill 36" fill-rule="evenodd" clip-rule="evenodd" d="M823.955 770.756C823.955 770.756 830.916 805.119 827.338 825.495C823.759 845.871 820.914 863.601 831.987 859.738C843.059 855.876 843.204 777.118 835.55 771.542C827.895 765.966 823.505 764.569 823.955 770.756" fill="white"/><path id="Fill 38" fill-rule="evenodd" clip-rule="evenodd" d="M746.711 766.726C746.711 766.726 779.083 773.791 772.387 812.939C765.69 852.087 725.013 841.055 725.013 841.055C725.013 841.055 715.37 776.66 746.711 766.726" fill="white"/><path id="Stroke 40" d="M291.065 424.357L575.396 648.638L636.95 674.564L702.127 633.966L925.942 492.37L928.081 495.75L704.254 637.354L637.307 679.055L573.345 652.114L288.588 427.498L291.065 424.357Z" fill="black"/><path id="Fill 42" fill-rule="evenodd" clip-rule="evenodd" d="M709.028 612.563C709.028 612.563 662.669 625.44 649.791 647.59C636.913 669.74 641.034 707.857 679.152 723.826C717.27 739.794 732.723 753.187 722.936 727.947C713.149 702.707 695.12 656.346 709.028 612.563" fill="#AFDEFF"/><path id="Fill 44" fill-rule="evenodd" clip-rule="evenodd" d="M574.07 641.923C574.07 641.923 569.434 693.434 541.103 733.612C512.773 773.791 487.532 777.911 496.804 787.698C506.076 797.485 520.499 802.121 529.771 814.485C539.043 826.847 538.528 826.331 560.162 800.576C581.797 774.82 629.187 717.644 630.217 666.649C630.217 666.649 578.191 624.925 574.07 641.923" fill="#AFDEFF"/></g></g></g><g id="Expression" transform="translate(1633 1412) scale(1 1)"><g id="Expression/Meditating"><g id="Group 124"><path id="Stroke 110" d="M129.686 72.7609C130.8 71.6261 132.595 71.565 133.783 72.5891L134.324 73.0923C134.681 73.4174 135.099 73.7831 135.575 74.1792C136.945 75.319 138.485 76.4611 140.152 77.5242C144.703 80.4259 149.296 82.1723 153.559 82.2424C157.875 82.3131 161.866 80.9074 165.438 78.4948C166.672 77.6615 167.762 76.7682 168.692 75.8803L168.993 75.5873C169.225 75.3575 169.41 75.1645 169.545 75.0167L169.735 74.8012C170.793 73.5262 172.684 73.3504 173.959 74.4084C175.234 75.4665 175.41 77.3578 174.352 78.6328L174.151 78.8673C173.848 79.2103 173.409 79.6721 172.836 80.2188C171.673 81.3296 170.324 82.435 168.796 83.4671C164.274 86.5208 159.126 88.3343 153.461 88.2416C147.91 88.1503 142.33 86.0286 136.927 82.5834C135.032 81.3756 133.291 80.0845 131.737 78.7911L131.287 78.4123C130.574 77.8048 130.046 77.3197 129.724 77.0033C128.542 75.8424 128.525 73.9429 129.686 72.7609Z" fill="black"/><path id="Stroke 112" d="M63.7258 148.885C64.5647 147.527 66.31 147.072 67.6967 147.819L68.3875 148.22L68.8989 148.503C69.2595 148.699 69.6589 148.909 70.0958 149.131C71.9884 150.09 74.1617 151.053 76.577 151.953C85.5564 155.301 95.2244 156.867 104.998 155.679C106.643 155.479 108.138 156.65 108.338 158.295C108.538 159.94 107.367 161.435 105.722 161.635C94.8951 162.951 84.2954 161.234 74.4811 157.575C71.847 156.593 69.4692 155.54 67.383 154.482L66.6162 154.087C65.7414 153.627 65.097 153.259 64.7005 153.014C63.2911 152.143 62.8548 150.294 63.7258 148.885Z" fill="black"/><path id="Stroke 114" d="M123.94 52.5159L127.749 53.7378L127.377 54.9311C127.077 55.9045 126.744 57.0181 126.384 58.2531C125.356 61.784 124.327 65.5763 123.368 69.4791C122.301 73.8177 121.387 78.0252 120.672 81.9978L120.465 83.1742C118.727 93.2778 118.482 100.993 120.034 105.142L120.126 105.377C129.004 127.34 116.948 138.478 91.6439 130.679L90.873 130.437L92.0921 126.627C114.886 133.921 124.027 125.703 116.417 106.876C114.322 101.694 114.645 92.8995 116.735 81.2891C117.466 77.2274 118.398 72.9395 119.483 68.5242C120.349 65.0029 121.269 61.5729 122.196 58.3383L122.543 57.1347C122.752 56.4178 122.952 55.7407 123.143 55.107L123.631 53.5026L123.94 52.5159Z" fill="black"/><path id="Stroke 116" d="M49.5914 31.5154C52.6393 31.1034 55.4711 30.9667 58.0632 31.1588C61.7116 31.4288 66.5439 32.4084 72.381 33.9478C74.1662 34.4185 76.0206 34.9359 77.9277 35.4923C81.1315 36.427 84.332 37.4264 87.3828 38.4259L89.3885 39.0906L91.381 39.7691C94.2489 40.7702 95.7622 43.9066 94.7611 46.7745C93.785 49.5706 90.779 51.0791 87.9712 50.2249L87.6829 50.1292L86.7502 49.8097C85.9248 49.5295 84.9877 49.2165 83.958 48.8792C81.0144 47.9148 77.9258 46.9503 74.8469 46.0521C73.0276 45.5212 71.2643 45.0293 69.5761 44.5841L68.4693 44.2962C63.7384 43.0833 59.866 42.3223 57.251 42.1288C55.4967 41.9988 53.4073 42.0996 51.0649 42.4162C48.2481 42.797 45.188 43.4704 42.0441 44.3533C40.4807 44.7924 38.9824 45.259 37.5893 45.7286L36.9017 45.9635C36.462 46.1158 36.0609 46.2587 35.7026 46.3898L34.9717 46.6634C32.1436 47.772 28.9524 46.3781 27.8437 43.5501C26.7351 40.7221 28.129 37.5308 30.9571 36.4222L31.5299 36.2038C31.9843 36.0343 32.5807 35.819 33.302 35.5692C35.0819 34.9528 37.0232 34.3378 39.0699 33.763C42.6715 32.7515 46.2152 31.9718 49.5914 31.5154Z" fill="black"/><path id="Stroke 118" d="M146.789 47.5879L148.114 47.553C153.556 47.4307 158.022 47.6001 161.338 48.1543C163.168 48.4602 165.074 48.9729 167.056 49.6688C169.999 50.7021 173.057 52.1186 176.174 53.8232C178.163 54.9112 180.079 56.0625 181.876 57.2226L182.639 57.7201C183.858 58.5235 184.765 59.1587 185.289 59.5435C187.679 61.2987 188.193 64.659 186.438 67.049C184.73 69.3743 181.503 69.9242 179.129 68.3355L178.388 67.8104L177.775 67.387C177.451 67.166 177.102 66.9315 176.73 66.6859C174.948 65.5115 173.018 64.3359 171.022 63.2444C168.38 61.7997 165.834 60.6203 163.499 59.8005C162.067 59.2975 160.746 58.9423 159.568 58.7454C156.847 58.2907 152.508 58.1587 147.112 58.3211C143.821 58.4201 140.289 58.6223 136.691 58.8971L135.131 59.0204C134.109 59.104 133.126 59.1899 132.192 59.2763L129.514 59.5396C126.566 59.8591 123.918 57.7284 123.598 54.7804C123.287 51.9062 125.304 49.3163 128.138 48.8924L128.931 48.8041L130.143 48.6839L130.484 48.6513C132.138 48.494 133.953 48.3369 135.873 48.1902C139.625 47.9037 143.317 47.6924 146.789 47.5879Z" fill="black"/><path id="Stroke 120" d="M42.7659 62.9389C43.8805 61.8041 45.6756 61.7429 46.8632 62.767L47.404 63.2702L47.8615 63.6792C48.1048 63.8928 48.3698 64.1195 48.6554 64.3572C50.0249 65.4969 51.5649 66.6391 53.2324 67.7022C57.7835 70.6039 62.3761 72.3503 66.6391 72.4204C70.955 72.4907 74.9454 71.085 78.5178 68.6727C79.7518 67.8394 80.8421 66.9461 81.7717 66.0581L82.2068 65.6318C82.4199 65.417 82.5851 65.2407 82.7004 65.1113L82.8147 64.9791C83.8729 63.7041 85.7642 63.5284 87.0392 64.5865C88.3141 65.6447 88.4899 67.536 87.4318 68.811L87.2307 69.0454C86.9281 69.3884 86.4884 69.8502 85.916 70.3969C84.7532 71.5076 83.404 72.6131 81.8755 73.6452C77.3541 76.6984 72.2059 78.5118 66.5409 78.4196C60.9899 78.3283 55.4105 76.2066 50.0068 72.7614C48.1123 71.5536 46.3715 70.2625 44.8173 68.9691L44.3673 68.5903C43.6541 67.9828 43.1262 67.4977 42.8041 67.1813C41.622 66.0203 41.6049 64.1209 42.7659 62.9389Z" fill="black"/><path id="Stroke 122" d="M25.1855 205.534L27.1425 202.046L27.8567 202.435L28.5118 202.783C29.5036 203.305 30.6327 203.881 31.8877 204.498L32.4332 204.765C36.6543 206.821 41.3224 208.879 46.301 210.798C57.7489 215.212 69.0606 218.225 79.5848 219.202C84.3541 219.645 88.8741 219.656 93.1069 219.202L93.9496 219.105L94.4385 223.075C89.6635 223.663 84.5751 223.683 79.2149 223.185C68.2771 222.169 56.6257 219.066 44.8619 214.53C39.7712 212.567 35.0001 210.465 30.6815 208.361L29.0484 207.554C28.354 207.206 27.7021 206.873 27.0948 206.556L25.9633 205.958L25.1855 205.534Z" fill="black"/></g></g></g><g id="Hairstyle" transform="translate(1142 1085) scale(826 747)"><g id="Hairstyle/Bald" stroke="none" stroke-width="1" fill="none" fill-rule="evenodd" fill-opacity="0"/></g><g id="Accessories" transform="translate(1586 1445) scale(1 1)"><g id="Accessories/Red Shades"><path id="Fill 1" fill-rule="evenodd" clip-rule="evenodd" d="M138.693 34.1962C138.693 52.8062 123.606 67.8922 104.996 67.8922C86.3863 67.8922 71.2993 52.8062 71.2993 34.1962C71.2993 15.5862 86.3863 0.500244 104.996 0.500244C123.606 0.500244 138.693 15.5862 138.693 34.1962" fill="black"/><path id="Fill 3" fill-rule="evenodd" clip-rule="evenodd" d="M104.996 4C88.346 4 74.8 17.546 74.8 34.196C74.8 50.847 88.346 64.393 104.996 64.393C121.646 64.393 135.193 50.847 135.193 34.196C135.193 17.546 121.646 4 104.996 4M104.996 71.393C84.486 71.393 67.8 54.706 67.8 34.196C67.8 13.687 84.486 -3 104.996 -3C125.507 -3 142.193 13.687 142.193 34.196C142.193 54.706 125.507 71.393 104.996 71.393" fill="#E93737"/><path id="Fill 5" fill-rule="evenodd" clip-rule="evenodd" d="M232.613 43.3037C232.613 61.9127 217.527 76.9997 198.917 76.9997C180.306 76.9997 165.22 61.9127 165.22 43.3037C165.22 24.6937 180.306 9.60767 198.917 9.60767C217.527 9.60767 232.613 24.6937 232.613 43.3037" fill="black"/><g id="Group 9"><path id="Fill 7" fill-rule="evenodd" clip-rule="evenodd" d="M198.917 13.1074C182.267 13.1074 168.721 26.6534 168.721 43.3034C168.721 59.9544 182.267 73.5004 198.917 73.5004C215.567 73.5004 229.113 59.9544 229.113 43.3034C229.113 26.6534 215.567 13.1074 198.917 13.1074M198.917 80.5004C178.407 80.5004 161.721 63.8134 161.721 43.3034C161.721 22.7944 178.407 6.10742 198.917 6.10742C219.427 6.10742 236.113 22.7944 236.113 43.3034C236.113 63.8134 219.427 80.5004 198.917 80.5004" fill="#E93737"/></g><path id="Fill 10" fill-rule="evenodd" clip-rule="evenodd" d="M20.2998 8.5L70.2998 28.5Z" fill="#E93737"/><path id="Fill 12" fill-rule="evenodd" clip-rule="evenodd" d="M69 31.75L19 11.75L21.6 5.25L71.6 25.25L69 31.75Z" fill="#E93737"/><path id="Fill 14" fill-rule="evenodd" clip-rule="evenodd" d="M138.08 36.5811L164.3 39.5001Z" fill="#E93737"/><path id="Fill 16" fill-rule="evenodd" clip-rule="evenodd" d="M163.912 42.9785L137.692 40.0595L138.468 33.1025L164.687 36.0215L163.912 42.9785Z" fill="#E93737"/></g></g><g id="Facial Hair" transform="translate(1596 1446) scale(1 1)"><g id="Facial Hair/Beard"><path id="Fill 137" fill-rule="evenodd" clip-rule="evenodd" d="M140.313 147.74L123.313 145.74C123.313 145.74 95.3128 169.74 83.3128 149.74C68.7878 125.532 96.3128 117.74 113.313 114.74C130.313 111.74 139.313 107.74 139.313 107.74C145.313 113.74 142.272 111.953 152.603 120.526C163.609 129.658 170.296 157.399 158.549 161.99C146.802 166.581 140.313 147.74 140.313 147.74ZM210.313 93.74C193.313 153.74 181.313 117.74 161.313 103.74C150.291 96.025 97.3128 83.74 82.3128 106.74C67.3128 129.74 64.3128 128.74 42.3128 108.74C20.3128 88.74 14.9288 69.919 14.3128 45.74C13.1468 0 7.14883 1.98 6.35883 0C6.07883 4.13 -1.62717 82.511 0.312831 107.74C2.31283 133.74 41.3128 214.74 115.313 210.74C189.313 206.74 207.313 139.74 211.313 93.74" fill="#9b5120"/></g></g></g></svg>