<svg viewBox="15 45 540.0000000000001 554.9999999999998" xmlns="http://www.w3.org/2000/svg" overflow="visible" xmlns:xlink="http://www.w3.org/1999/xlink" width="540.0000000000001px" height="554.9999999999998px"><g id="Master/Hands/Phone" stroke="none" stroke-width="1" fill="none" fill-rule="evenodd"><g id="base" transform="translate(170.000000, 85.000000)" fill-rule="nonzero"><path d="M198.288013,122.311919 C198.42426,121.623109 198.911741,121.056198 199.572366,120.818295 C204.554953,119.02398 209.652357,117.566123 214.801062,116.461038 C215.046695,116.404457 215.298862,116.345414 215.628286,116.267575 C219.869539,115.265428 221.334087,115.012478 223.490284,115.146658 C226.535115,115.336137 229.091077,116.640261 231.245806,119.303232 C234.338077,123.131283 236.386581,128.221341 237.428949,133.918947 C238.028338,137.280738 237.382802,142.079109 235.682449,144.799603 C233.779906,147.885515 230.686981,150.62464 226.220111,153.610507 C225.422484,154.143679 224.589736,154.679595 223.628295,155.282431 C223.251826,155.518482 222.867077,155.757718 222.389478,156.053191 C222.220534,156.157711 221.426201,156.648369 221.211565,156.781238 C219.427163,157.884208 217.9231,158.886568 214.966203,160.911387 C214.642819,161.132861 214.642819,161.132861 214.318992,161.354596 C209.830636,164.427261 207.464215,165.948085 204.519544,167.531216 C199.820058,169.93092 195.373325,172.796302 191.246217,176.084271 C189.789428,177.24486 187.676597,175.959098 188.038013,174.131919 L198.288013,122.311919 Z" id="Path" fill="#b17606"/><path d="M211.172231,240.750502 C224.318662,238.467268 248.825546,230.922374 253.53903,226.038954 C258.14643,221.3263 259.856329,214.870655 259.78774,206.104845 C259.768112,203.596308 259.635595,201.35222 259.323201,197.413345 L259.22377,196.162265 C258.468014,187.874612 256.898898,179.705681 254.537294,171.750803 C251.797163,162.128754 247.531266,159.933641 235.751617,160.572939 C223.563209,161.376311 211.472289,163.060752 199.551088,165.614364 C198.516321,165.836019 197.833316,166.825382 197.99286,167.871527 L208.85286,239.081527 C209.021822,240.189427 210.06805,240.942273 211.172231,240.750502 Z" id="Path" fill="#b17606"/><path d="M254.567975,193.197239 C251.53808,193.597644 248.03133,194.020023 243.841266,194.494355 C240.734014,194.846109 237.577128,195.191034 232.751264,195.70983 C219.277066,197.158347 216.563979,197.456909 211.536,198.07494 C210.439681,198.209697 209.660182,199.207682 209.79494,200.304 C209.929697,201.400319 210.927682,202.179818 212.024,202.04506 C217.022401,201.430665 219.731723,201.132518 233.178812,199.686914 C238.011601,199.167375 241.17467,198.821773 244.291208,198.468969 C248.503991,197.992065 252.034016,197.566882 255.092025,197.162761 C256.187074,197.018049 256.957474,196.013024 256.812761,194.917975 C256.668049,193.822926 255.663024,193.052526 254.567975,193.197239 Z" id="Path" fill="#744b15"/><path d="M183.647477,216.285913 C176.27238,207.093596 168.897472,200.361278 161.188935,196.373611 C150.379212,190.769814 137.952009,187.160317 126.514028,186.743825 C112.868727,186.246957 101.213163,190.223087 92.8931004,199.200513 C91.0737687,201.167704 89.6227038,203.641503 88.2539879,206.962549 L82.4616924,188.122265 C82.0416595,186.756047 80.3655766,186.25868 79.2683185,187.174652 C75.4381812,190.371984 69.8999884,198.143202 63.0203997,209.383434 C58.3912695,216.946748 53.9799311,224.696071 49.5263216,232.818433 C48.3846545,234.904303 47.2115054,237.237315 46.0036188,239.813344 C43.031622,246.151645 39.9095444,253.816177 36.4681973,263.037132 C34.8344444,267.414708 33.1905431,271.971584 31.2494494,277.467067 C30.4469352,279.739087 27.439992,288.315947 26.754578,290.252779 C17.1392054,317.428141 11.3600226,347.211384 4.94812658,394.511341 C3.69030638,403.803944 2.66766035,417.602445 1.85170246,434.734048 C1.30183536,446.27889 0.878169094,483.64485 0.56472179,496.010318 C0.455025022,500.337846 0.36693523,504.35638 0.298470149,507.963066 C0.274501774,509.225701 0.254697173,510.346773 0.238808831,511.313422 C0.233244809,511.651938 0.230128051,511.848552 0.224744726,512.19707 C0.22094827,512.449065 0.22094827,512.449065 0.218194738,512.501586 C0.204363183,513.616318 1.10301649,514.528806 2.21786069,514.529999 L161.147861,514.7 C162.253265,514.7 163.15,513.805405 163.15,512.7 C163.15,470.141163 165.41429,389.746084 169.425958,370.947405 C172.645309,355.902062 178.526908,337.443709 185.166036,320.905071 C188.281494,313.124894 191.992255,304.707226 196.989543,293.89453 C198.49,293.662806 199.98042,293.369297 201.457,293.014714 C208.578424,291.25795 210.671832,290.707762 214.336265,289.521832 C228.537123,284.925971 237.062171,278.399724 238.579722,267.82408 C239.815719,259.225841 235.878203,247.630218 229.754423,241.756611 C225.363541,237.548681 219.265019,236.450175 211.163281,237.408854 C208.747,237.694773 206.393169,238.116367 202.984897,238.825162 C202.471087,238.932015 200.765702,239.290726 200.524895,239.34104 C200.18307,239.412462 199.872039,239.47693 199.58268,239.536226 C193.363043,229.466034 188.907959,222.842574 183.647477,216.285913 Z" id="Path" fill="#b17606"/><path d="M186.092337,256.94081 C173.884626,258.215242 166.841252,268.196252 170.391476,279.527942 C170.419872,279.619411 171.697036,284.031565 172.183195,285.500178 C173.505538,289.494772 174.896443,292.230829 176.827447,293.866207 C182.134799,298.368164 187.326545,299.233038 194.598316,297.441961 C195.670831,297.177795 196.326128,296.0942 196.061961,295.021684 C195.797795,293.949169 194.7142,293.293872 193.641684,293.558039 C187.535521,295.06202 183.659597,294.416343 179.413746,290.814804 C178.2142,289.798902 177.083209,287.574124 175.980541,284.243131 C175.523219,282.861632 174.260658,278.499923 174.21003,278.336885 C171.433661,269.475182 176.752794,261.937555 186.507663,260.91919 C187.606262,260.804501 188.403879,259.820937 188.28919,258.722337 C188.174501,257.623738 187.190937,256.826121 186.092337,256.94081 Z" id="Path" fill="#744b15"/><path d="M176.232218,262.778741 L176.225599,262.779914 C165.900548,264.591326 135.760604,266.109217 122.3471,265.80954 C120.975512,265.780113 119.592223,265.76465 117.615869,265.752684 C117.27926,265.750645 117.009487,265.749145 116.402385,265.745866 C103.273546,265.674957 97.7082324,265.207538 91.5926127,262.922789 C83.3023441,259.825607 77.9588039,253.654973 75.6493036,243.451343 C73.17576,232.518494 71.4086788,220.741722 69.8144322,205.839536 C69.2198732,200.281907 68.9105938,197.056892 67.8332076,185.473699 C67.612872,183.104827 67.4564712,181.43574 67.2989278,179.778763 C65.8929297,164.948312 64.6236078,148.572835 62.8050456,122.837572 C62.977358,125.276039 61.0885583,98.380368 60.5844093,91.3794013 C59.8823547,81.6301788 59.280397,73.6601097 58.6964108,66.4800061 C57.2447756,48.3934164 57.0303859,30.304287 59.4479415,23.0517982 C62.3907835,13.9973799 70.3051423,7.46219897 79.7033191,6.29212729 C103.592776,2.70870878 133.615969,-0.00115940172 149.541922,0.330439415 C150.966881,0.360314656 152.226429,0.373126052 154.961925,0.391324166 C163.026693,0.444975708 166.783422,0.541236832 171.532576,0.930363541 C186.574746,2.16285895 197.078452,6.02075615 203.117884,14.3142232 C206.410186,18.8444739 208.357339,25.3857318 209.573992,34.2039471 C209.8786,36.4117213 210.132935,38.7189021 210.379545,41.3951015 C210.474079,42.420982 210.56345,43.452888 210.675109,44.7904371 C210.654497,44.5435294 210.880163,47.264582 210.939288,47.958191 C211.013179,48.8250282 211.077597,49.5467287 211.14165,50.2174321 C211.190412,50.7495501 211.190412,50.7495501 211.239167,51.2821836 C213.248386,73.2376938 213.307264,73.8708707 214.137298,82.0732005 C214.702691,87.6603791 215.260653,92.8281824 215.836172,97.7652243 C221.064074,141.992592 224.197849,179.300002 225.36893,215.48458 C225.903372,231.814758 223.467011,242.919485 214.998845,250.190855 C210.981161,253.62205 204.438026,256.373641 195.854463,258.690105 C192.320571,259.643803 188.58983,260.482929 184.542411,261.27158 C183.019046,261.568412 181.520591,261.844984 179.827256,262.145829 C179.132054,262.269341 176.722573,262.691014 176.232218,262.778741 Z" id="Path" fill="#1A4E66"/><path d="M171.79,254.43 C159.933944,255.745924 148.007827,256.327034 136.08,256.17 C118.67,255.79 104.02,258.11 99.29,237.22 C95.08,218.62 93.53,194.53 91.72,175.47 C88.78,144.47 86.42,101.47 83.89,70.31 C83.21,61.91 81.24,33.04 84.49,25.47 C87.74,17.9 95.71,15.55 101.44,14.47 C115.21,11.81 131.99,9.74 147.74,10.07 C162.07,10.37 185.51,8.88 195.07,22.07 C200.69,29.81 201.16,48.71 202.07,57.86 C203.43,72.09 204.7,86.76 206.41,101.2 C210.61,136.74 213.91,177.2 215.08,213.2 C215.41,223.2 214.78,236.06 206.27,243.36 C198.32,250.15 178.66,253.59 171.79,254.43 Z" id="Path" fill="#FFF"/><path d="M76.7881757,12.3375179 C71.8904036,15.6130191 70.3166479,23.9603027 70.5390231,37.137083 C70.5954498,40.4806288 70.7552664,43.7853813 71.0477839,48.3769931 C71.0892379,49.027692 71.2655284,51.7330203 71.3080981,52.4061529 C71.3988993,53.8419415 71.4597356,54.9071252 71.5020519,55.8405736 C71.89653,64.3846251 72.4931522,74.2960025 73.4043509,87.9685221 C73.5325794,89.8925876 73.6679944,91.9067457 73.8229602,94.1976211 C73.9250633,95.707023 74.5346073,104.677899 74.7045316,107.197838 C75.0318729,112.052236 75.2830827,115.857886 75.5040212,119.336762 C77.5619528,152.069005 80.673107,186.986615 84.8415089,225.67425 C85.9837223,236.363885 88.3723137,246.376881 91.9824828,253.376751 C92.4887904,254.358447 93.6950554,254.743825 94.676751,254.237517 C95.6584467,253.73121 96.0438249,252.524945 95.5375172,251.543249 C92.1978287,245.067822 89.9131707,235.490516 88.8186794,225.247505 C84.6560199,186.613159 81.5499789,151.752935 79.4960588,119.084504 C79.274655,115.598295 79.0231302,111.787873 78.6954684,106.928722 C78.5254596,104.40753 77.9158759,95.4360699 77.8138398,93.9276589 C77.6589576,91.6380173 77.5236288,89.6251426 77.3954974,87.702534 C76.4859703,74.055097 75.890723,64.1665599 75.4978717,55.6577583 C75.4543423,54.6975344 75.3922991,53.6112202 75.3001231,52.1536921 C75.2572482,51.4757342 75.0808765,48.7691599 75.0396913,48.122681 C74.7508134,43.5881975 74.5936002,40.3372797 74.5384536,37.0695874 C74.3408123,25.358406 75.75865,17.8381195 79.0118243,15.6624821 C79.9299878,15.0484385 80.1765257,13.8063392 79.5624821,12.8881757 C78.9484385,11.9700122 77.7063392,11.7234743 76.7881757,12.3375179 Z" id="Path" fill="#0D323F"/><path d="M51.2333477,296.359456 C49.7183993,296.324108 48.791554,294.682419 49.5439143,293.367021 C52.1390052,288.829864 55.0915964,284.029122 58.7512059,278.335795 C60.2541149,275.997689 61.8126785,273.605596 63.8856071,270.447472 C64.547735,269.438715 66.9751976,265.746037 66.782301,266.039591 C67.9415576,264.275414 68.8062492,262.956438 69.6448847,261.671681 C71.7856,258.392189 73.5346642,255.672648 75.146124,253.106617 C87.6808035,233.139977 100.731275,217.213471 114.800292,206.242718 C122.85813,199.960527 132.413943,201.578929 138.462049,210.133965 C141.631112,214.607936 141.77772,219.678492 139.67312,225.715111 C138.845954,228.087666 137.829269,230.292249 136.025898,233.830576 C133.697807,238.398435 133.704648,238.384748 133.041039,239.894547 C130.629865,245.382046 129.080954,254.831478 128.738559,263.635919 C128.595668,267.397505 129.033892,271.686435 129.989018,276.567164 C130.730002,280.35362 131.730072,284.289617 133.133681,289.167282 C133.427207,290.187312 133.730879,291.224064 134.115086,292.522178 C134.215955,292.862982 134.874137,295.080426 135.058148,295.70369 C135.44199,297.003799 134.448567,298.301076 133.093348,298.270022 L51.2333477,296.359456 Z" id="Path" fill="#b17606"/><path d="M68.2053619,81.3938712 C67.823324,75.7940001 67.5363258,70.238714 67.3488206,64.7813244 C67.3108921,63.6774063 66.3852425,62.813251 65.2813244,62.8511794 C64.1774063,62.8891079 63.313251,63.8147575 63.3511794,64.9186756 C63.540249,70.4215949 63.8295694,76.0218319 64.2146381,81.6661288 C64.28982,82.7681367 65.2441209,83.6005437 66.3461288,83.5253619 C67.4481367,83.45018 68.2805437,82.4958791 68.2053619,81.3938712 Z" id="Path" fill="#0D323F"/><path d="M70.2314934,108.935734 C69.7363296,103.584155 69.3505696,97.901614 69.0576894,91.8138912 C69.00461,90.7105978 68.0671846,89.8592312 66.9638912,89.9123106 C65.8605978,89.96539 65.0092312,90.9028154 65.0623106,92.0061088 C65.3578878,98.1498923 65.747592,103.890535 66.2485066,109.304266 C66.3502741,110.404138 67.3243949,111.213261 68.4242663,111.111493 C69.5241377,111.009726 70.3332609,110.035605 70.2314934,108.935734 Z" id="Path" fill="#0D323F"/><path d="M128.299043,267.779977 C128.953199,274.635526 130.571305,280.016487 133.810201,287.790092 C133.98855,288.218145 134.169496,288.64938 134.414513,289.231108 C134.564421,289.586901 134.564421,289.586901 134.713376,289.940325 C134.861788,290.292607 134.921969,290.435575 135.008986,290.642689 C135.480178,291.7642 135.821522,292.590095 136.143405,293.393678 C136.554127,294.419047 137.718309,294.917316 138.743678,294.506595 C139.769047,294.095873 140.267316,292.931691 139.856595,291.906322 C139.524842,291.0781 139.175836,290.233667 138.69673,289.093319 C138.609074,288.884684 138.548402,288.74055 138.39949,288.387084 C138.25035,288.03322 138.25035,288.03322 138.100878,287.678462 C137.857686,287.101066 137.678532,286.6741 137.502526,286.251674 C134.404226,278.815509 132.889609,273.778698 132.280957,267.400023 C132.176035,266.300448 131.199598,265.494122 130.100023,265.599043 C129.000448,265.703965 128.194122,266.680402 128.299043,267.779977 Z" id="Path" fill="#744b15"/><path d="M51.3060857,290.422979 C53.8469498,285.980629 56.7480184,281.263577 60.347445,275.66429 C61.8464418,273.332443 63.4032637,270.943635 65.4765595,267.786066 C66.1393545,266.776649 68.5598219,263.095978 68.3843614,263.362901 C69.5499738,261.589687 70.4205742,260.262114 71.2653047,258.968326 C73.4260423,255.658944 75.193381,252.910917 76.823931,250.313296 C77.411173,249.377763 77.128828,248.143311 76.1932957,247.556069 C75.2577634,246.968827 74.023311,247.251172 73.436069,248.186704 C71.8199126,250.761395 70.0647517,253.490487 67.9159948,256.78152 C67.0739365,258.071215 66.2053851,259.395663 65.041849,261.165718 C65.2180281,260.897702 62.7966249,264.579796 62.1329222,265.590596 C60.0531461,268.758034 58.4899299,271.156653 56.9826996,273.501309 C53.3489543,279.153982 50.4137319,283.926567 47.8339143,288.437021 C47.2855074,289.395835 47.6182078,290.617679 48.5770214,291.166086 C49.5358351,291.714493 50.7576788,291.381792 51.3060857,290.422979 Z" id="Path" fill="#744b15"/><path d="M134.373182,348.86945 C136.42131,349.338884 138.427675,349.974816 140.372268,350.770903 C141.394494,351.189387 142.56242,350.699957 142.980903,349.677732 C143.399387,348.655506 142.909957,347.48758 141.887732,347.069097 C139.741574,346.190493 137.527242,345.488644 135.266818,344.97055 C134.190166,344.72378 133.117321,345.396531 132.87055,346.473182 C132.62378,347.549834 133.296531,348.622679 134.373182,348.86945 Z" id="Path" fill="#744b15"/></g><g id="Phone/Wear" transform="scale(1 1)"><g id="Phone/Wear/Cloud" stroke="none" stroke-width="1" fill="none" fill-rule="evenodd"><g id="clothing" transform="translate(17.000000, 393.000000)" fill-rule="nonzero"><path d="M530.72,122.72 C529.345056,121.745776 527.705036,121.215386 526.02,121.2 C527.389268,117.983122 527.618596,114.395021 526.67,111.03 C525.597339,107.397922 522.843859,104.503046 519.27,103.25 C513.35,101.08 508.71,103.5 505.11,107.12 C505.860693,100.894233 504.739688,94.5859642 501.89,89 C501.56,88.41 493.89,74.6 486.02,72.59 C479.58,70.93 474.28,71.98 470.27,75.72 C461.59,83.8 461.39,103.06 462.85,115.59 C461.687227,115.185554 460.460629,114.995804 459.23,115.03 C452.59,115.16 443.46,121.03 440.8,126.91 C439.8,129.13 438.64,132.36 440.27,134.91 C441.9,137.46 445.44,137.91 450.27,137.84 C454.32,137.84 458.38,137.84 462.27,137.93 C465.27,137.99 468.37,138.04 471.48,138.04 C474.59,138.04 477.48,137.99 480.48,137.84 L484.48,137.64 C494.02,137.18 505.91,136.64 514.48,135.28 L517.09,134.88 C525.64,133.61 532.39,132.6 532.33,126.21 C532.375219,124.857565 531.778201,123.563408 530.72,122.72 L530.72,122.72 Z" id="Path" fill="#91D5DD"/><path d="M101,33.68 C100.0612,33.2405971 99.0365317,33.0151702 98,33.02 C98.4515865,31.2130477 98.2275458,29.303367 97.37,27.65 C95.61,24.33 91.37,22.42 86.15,22.65 C79.15,22.96 72.48,26.94 67.57,32.06 L67.93,31.06 C69.75,25.99 71.62,20.74 69.71,13.87 C67.9,7.4 64.5,0.06 53.88,0.54 C44.21,0.98 34.09,7.72 26.8,18.54 C20.8,27.54 18.01,37.49 19.11,45.69 C15.0800256,44.457427 10.7259348,44.8709039 7,46.84 C3,48.84 0.59,52.05 0.76,54.97 C0.83,56.3 1.52,58.75 5.31,60.16 C7.20094289,60.7538363 9.17927635,61.0209959 11.16,60.95 C13.37,60.95 15.74,60.75 17.96,60.57 C19.76,60.42 21.46,60.28 22.73,60.28 L50.25,60.28 C53.06,60.28 55.92,60.33 58.95,60.39 C72.36,60.64 87.57,60.92 100.15,56.33 L100.4,56.22 C104.48,54.07 106.85,49.71 106.75,44.56 C106.65,39.65 104.33,35.28 101,33.68 Z" id="Path" fill="#91D5DD"/><path d="M356,116.18 C379.27,91.97 396.77,28.18 347,17.01 C343.71,16.27 340.43,15.69 337.17,15.25 C331.001577,30.7376666 326.049909,46.6826377 322.36,62.94 C319.7,75.4 318.04,101.94 317.1,127.67 C304.62,133.96 293.39,148.09 290.29,157.88 C289.18,148.53 275.75,136.3 259.37,138.98 C242.99,141.66 225.43,161.87 224.28,174.46 C220.17,152.78 193.48,135.72 173.35,131.93 C167.11066,130.790838 160.703157,130.95426 154.53,132.41 C155.26,115.56 156.34,97.93 157.88,86.51 C159.88,71.71 162.14,55.94 165.03,40.14 L164.85,40.14 C153.43,41.04 140.85,43.74 131.09,49.71 C118.77,57.26 105.24,69.51 99.31,83.01 C92.7,98.07 86.59,120.23 92.31,141.07 C78.16,132.91 62.09,139.01 57.5,149.44 C50.59,165.11 58.16,188.66 78.69,195.83 C99.22,203 129.15,207 164.32,207 L278.52,207 C320.24,207 354.37,204.52 368.11,201.11 C398.32,193.59 418.78,178.76 425.96,151.45 C435,116.92 395.13,82.37 356,116.18 Z" id="Path" fill="#91D5DD"/><path d="M259.116873,136.996275 C245.332034,139.253048 229.598963,153.96296 224.211866,167.157508 C216.79722,149.356185 194.909842,133.940887 173.790051,129.964533 C159.467351,127.266764 144.012535,131.689236 131.945063,141.03901 C131.071906,141.715525 130.912496,142.971781 131.58901,143.844937 C132.265525,144.718094 133.521781,144.877504 134.394937,144.20099 C145.601439,135.518288 159.917049,131.421805 173.049797,133.895439 C195.40842,138.105036 218.831332,156.087145 222.384998,174.832516 C222.81694,177.110982 226.130759,176.95136 226.341708,174.641927 C227.49076,162.062313 245.199398,143.328013 259.763127,140.943725 C266.839532,139.785217 273.802459,141.568502 279.47315,145.550513 C284.497218,149.07846 287.882989,153.980234 288.373946,158.115777 C288.62778,160.253925 291.61741,160.53613 292.266854,158.483247 C294.906472,150.139454 303.491996,139.112285 312.904515,132.554769 C323.855492,124.925441 334.037078,124.158495 341.62235,131.780768 C342.401496,132.563715 343.667822,132.566796 344.450768,131.78765 C345.233715,131.008504 345.236796,129.742178 344.45765,128.959232 C335.270731,119.727498 322.991331,120.652466 310.617985,129.272731 C302.34875,135.033742 294.728195,143.937462 290.631566,152.03673 C285.865214,142.400791 272.453996,134.8128 259.116873,136.996275 Z" id="Path" fill="#1A4E66"/></g></g></g><g id="Phone/Item" transform="scale(1 1)"><g id="Phone/Item/Analitics" stroke="none" stroke-width="1" fill="none" fill-rule="evenodd"><g id="items" transform="translate(268.000000, 124.000000)" fill-rule="nonzero"><g id="Group" transform="translate(0.784600, 0.182559)"><path d="M43.6343795,47.8925893 C43.6832754,47.376187 43.9303909,46.8744155 44.3843847,46.5184684 C44.4415457,46.473322 44.5009617,46.4314873 44.562313,46.3930748 C44.6714656,46.322131 44.8548942,46.2029993 45.1081929,46.0386302 C45.5657713,45.741701 46.0856992,45.4046748 46.6584661,45.0338432 C48.2932588,43.9754148 50.0252065,42.8573156 51.7782742,41.7298492 C56.7904251,38.5063388 60.9706087,35.8516326 63.7364081,34.1524554 L63.716076,34.1648197 C65.782365,32.8913683 67.7097703,31.6265332 71.002492,29.4112916 C76.8260516,25.4933801 78.4430953,24.4322933 81.177633,22.8157702 C81.2516878,22.7719926 81.32849,22.7330387 81.407561,22.6991511 L82.737561,22.1291511 C83.701415,21.7160709 84.820658,22.1175884 85.3021294,23.049165 C88.7201423,29.6625189 90.8545697,36.7193661 91.0047098,42.6349152 C91.2199037,50.825898 89.8565076,58.9817404 86.9889216,66.6573809 C86.5701161,67.7783937 85.2671917,68.2831727 84.2024522,67.736915 L83.0460536,67.1436177 C81.1986916,66.1874262 79.2110816,65.3789313 75.32816,63.9349413 C75.1182082,63.8568639 74.8106678,63.7426435 74.2907194,63.5495062 C70.2319888,62.0409949 68.1688774,61.2093643 66.0694009,60.1555089 C64.0943798,59.1658281 59.6733948,57.027866 53.7311333,54.1790572 C51.6473568,53.1800637 49.5208425,52.1628931 47.4649038,51.1810999 C46.7448727,50.8372562 46.0849488,50.5223257 45.499291,50.243 C44.8986506,49.95659 44.8986506,49.95659 44.7651235,49.8929674 C44.1224126,49.5867314 43.7456586,49.0136529 43.6497863,48.3998637 C43.6233236,48.233466 43.6177205,48.0630232 43.6343795,47.8925893 Z" id="Path" fill="#FF9BA5"/><path d="M77.3385858,60.4030013 C77.0213543,60.2848363 75.9344024,59.8811551 75.7756789,59.8221092 C71.9062709,58.3826727 69.8423125,57.5429093 67.8966096,56.5470771 C66.1719622,55.6790164 62.6736152,53.9816071 57.8975723,51.687889 L57.7439191,51.6141024 C55.2851805,50.4334755 52.6511496,49.1732051 50.0171649,47.9159754 C49.0953066,47.4759623 48.2392842,47.0677508 47.4710299,46.7016834 C47.0429662,46.4977412 47.0429662,46.4977412 46.7575285,46.3618132 L46.5048075,46.2415015 C44.2151727,45.1519136 42.4402955,48.443594 44.6087962,49.7578369 L44.9692362,49.9762854 C47.8854579,53.5975643 50.5082081,57.2128022 55.0275233,63.6992944 C55.3271921,64.1294036 56.3669426,65.6230227 56.5453186,65.8791248 C62.2965219,74.1363724 65.4482378,78.4217372 69.2561592,82.8994259 L69.7140976,83.5222221 C70.3415438,84.375549 71.5254727,84.5917319 72.4140045,84.0152193 C77.5281502,80.6969711 81.8114438,76.2479656 84.9332716,71.0116072 L84.9582611,70.9684783 C85.774943,69.5176021 86.4848076,68.0091397 87.0822153,66.4550757 C87.4912956,65.3909163 86.9294298,64.2005995 85.8478552,63.8400746 L84.7562866,63.4762184 C82.8781499,62.5328693 80.8630243,61.7158134 77.3385858,60.4030013 Z" id="Path" fill="#8885D2"/><path d="M43.5863855,48.1095224 C43.5785389,47.9640938 43.5648997,47.7162955 43.5456895,47.3751556 C43.5109978,46.7590885 43.4705842,46.0611383 43.4248503,45.2949954 C43.2942916,43.1078505 43.1472558,40.8118929 42.9869806,38.5168773 C42.5315235,31.9950896 42.0606514,26.7692819 41.6077545,23.7656352 C40.875325,18.908108 40.5049393,15.0111203 39.8329031,6.24435687 C39.6845743,4.30939616 39.6179212,3.45005536 39.5318138,2.37748965 L39.5253996,2.21744121 L39.5253996,2.14744121 C39.5253996,1.04287171 40.4208301,0.14744121 41.5253996,0.14744121 L41.8974192,0.14744121 C56.4268992,-0.975526937 71.8220109,4.36256984 79.9623595,14.5873202 C81.9779116,17.1711675 83.7463014,19.938628 85.2442271,22.8532352 C85.7300139,23.7984608 85.3917163,24.9585517 84.4740006,25.4944977 L83.2394857,26.2153608 C80.7198538,27.7173636 79.3960721,28.5854285 73.6836031,32.4128056 C70.1530563,34.7782861 68.038028,36.1537814 65.7723772,37.5215063 C63.0543322,39.1914732 58.89083,41.8355942 53.8998393,45.0455056 C52.1503275,46.1706885 50.4217197,47.2866348 48.7902771,48.3428971 C48.2188964,48.7128322 47.7003679,49.0489522 47.2442179,49.3449552 C46.9700561,49.5228632 46.7779246,49.647661 46.6755189,49.7142358 C47.5924636,49.1184404 47.8617626,47.8941347 47.2752646,46.9676714 C46.6844509,46.0343906 45.4489283,45.7567662 44.5156475,46.3475799 C43.8930733,46.7417008 43.5622645,47.4227157 43.5863855,48.1095224 C43.5870544,48.121918 43.5876811,48.1335698 43.5882656,48.1444724 C43.5919365,48.2129426 43.5988473,48.2800928 43.6088163,48.3458304 C43.6497171,48.6088462 43.7441022,48.8679524 43.8955561,49.1071971 C44.031473,49.3218986 44.20151,49.5019008 44.3941379,49.644613 C44.5308447,49.7453007 44.6798161,49.8285475 44.8369528,49.892269 C45.4136113,50.1244 46.0898427,50.0851712 46.6551732,49.7272885 C46.6619907,49.7229727 46.6687731,49.7186225 46.6755205,49.7142383 L43.5863855,48.1095224 Z" id="Path" fill="#FCD400"/><path d="M59.8076287,63.6329838 C59.6297123,63.3775416 58.5897262,61.8835842 58.2894893,61.4526596 C53.605269,54.7294819 50.9231289,51.0390479 47.8400986,47.2293033 C47.6948089,47.0497667 47.5195195,46.8967525 47.3220031,46.7770455 L46.6620031,46.3770455 C45.7407397,45.8187041 44.542766,46.0903494 43.952437,46.9914504 L43.744415,47.3090576 C43.5093658,47.667995 43.5093658,47.667995 43.1568317,48.2064894 C42.5241062,49.1730515 41.8190833,50.2505678 41.0598329,51.4116043 C38.8905026,54.7289182 36.7211527,58.0510335 34.6962949,61.1585562 L34.6208559,61.2743348 C31.0519276,66.7518436 28.3340956,70.9455837 26.7992158,73.3519022 C26.2663763,74.1902987 25.5782357,75.2171811 24.7672659,76.3902056 C24.6594831,76.5461078 24.5498107,76.704183 24.4383524,76.8642975 C23.6396642,78.0116464 22.7825431,79.2164533 21.9252457,80.4038486 C21.6250683,80.8196077 21.3463982,81.2033705 21.0964623,81.5458656 C20.9469104,81.7508013 20.8404817,81.8960175 20.7843902,81.9722624 C20.0561496,82.9621574 20.3845444,84.3685101 21.4758685,84.9335219 C23.029461,85.7378641 24.5538854,86.4490922 26.1367915,87.0979854 C39.2161476,92.4744366 50.5521608,93.273929 62.49229,88.9794134 C66.0509313,87.7153922 69.4484415,86.0166371 72.6014541,83.9237676 C73.7257278,83.1775104 73.803493,81.5548774 72.7557374,80.704525 L72.2093698,80.2610963 C68.5424577,75.9416174 65.4497323,71.7335923 59.8076287,63.6329838 Z" id="Path" fill="#C44538"/><path d="M41.3547535,0.204734535 C32.5646304,0.957479883 24.7602557,3.23696233 19.0555063,7.29813229 C14.1470306,10.7824833 9.71168702,16.0135796 5.80042833,22.3919399 C1.08093615,30.0762404 -0.971582052,42.0699804 0.436759168,51.6289578 C2.94895762,68.7332891 8.87285847,78.3918231 21.4940521,84.9425803 C22.3666718,85.3954947 23.4390639,85.1470139 24.0235666,84.3564741 C24.0824385,84.2768497 24.1914516,84.128803 24.3434677,83.9213887 C24.596082,83.5767157 24.8773806,83.1908413 25.1802389,82.7727994 C26.0459174,81.5778848 26.9117828,80.3634405 27.7213086,79.2009902 C27.845235,79.0230362 27.9670663,78.8473993 28.086676,78.6742384 C28.9251946,77.4603014 29.6386658,76.3913656 30.1979504,75.5029325 C31.7172451,73.1211135 34.430309,68.9347308 37.9922387,63.4679634 L38.067619,63.3522747 C40.0911423,60.2468001 42.2593437,56.9264436 44.4275647,53.6108261 C45.1864572,52.4503367 45.8911384,51.3733428 46.5235321,50.4072876 C46.8758501,49.8691232 46.8758501,49.8691232 47.1107022,49.5104869 L47.3183623,49.193432 C47.5531929,48.8349775 47.6666819,48.4105753 47.6421086,47.9827537 C47.6389355,47.9275158 47.6389355,47.9275158 47.6238605,47.6700813 C47.6089313,47.4164295 47.5913921,47.1223462 47.5713644,46.7911954 C47.5141749,45.8455845 47.4484913,44.7921217 47.3752835,43.6577026 C47.1660736,40.415809 46.938441,37.1736046 46.7000566,34.1454724 C46.3303613,29.4493314 45.9694557,25.7086922 45.6261742,23.2507967 C45.0734128,19.2930253 44.6316106,15.2143587 44.1931906,10.2540773 C44.0137627,8.22403125 43.8676719,6.45230047 43.5916836,3.01330998 L43.525373,2.18699041 C43.5194312,1.02007445 42.5189048,0.10504202 41.3547535,0.204734535 Z" id="Path" fill="#FC6E47"/></g><path d="M27.84,121.89 C27.7327306,120.743175 27.7126729,119.589861 27.78,118.44 C27.9737011,115.410369 27.6662391,112.369537 26.87,109.44 C26.6265114,108.604162 25.8703068,108.021844 25,108 L24.09,108 C19,107.85 13.83,107.87 11.61,109.91 C9.39,111.95 9.75,116.91 10.5,122.11 C10.56,122.49 10.61,122.823333 10.65,123.11 C10.7813358,124.111984 11.6394814,124.858571 12.65,124.850073 L12.78,124.850073 C14.39,124.75 16.06,124.7 17.68,124.66 C20.5102737,124.63719 23.3374378,124.466959 26.15,124.15 C26.6730194,124.080688 27.1474656,123.807522 27.47,123.39 C27.7892704,122.959743 27.9225609,122.419376 27.84,121.89 L27.84,121.89 Z" id="Path" fill="#FC6E47"/><path d="M30.55,143.14 C30.1025322,139.465495 29.3567367,135.833504 28.32,132.28 C28.0685149,131.434172 27.2924176,130.853114 26.41,130.85 L23.75,130.85 C20.22,130.85 16.56,130.78 12.68,131.09 C11.6572922,131.171834 10.8623806,132.014268 10.839901,133.04 C10.8332833,136.315936 11.1684315,139.583631 11.84,142.79 C12.02,143.79 12.2,144.72 12.32,145.63 C12.4604992,146.624033 13.3161359,147.35988 14.32,147.350098 L14.41,147.350098 C19.41,147.14 25.15,146.8 29.25,145.29 C30.1355826,144.968911 30.6770623,144.073386 30.55,143.14 Z" id="Path" fill="#C44538"/><path d="M30.61,154.29 C30.2552101,153.623251 29.555082,153.213231 28.8,153.23 C26.18,153.29 23.67,153.53 21.25,153.76 C19.3,153.95 17.25,154.15 15.25,154.24 C14.7136683,154.263193 14.2091768,154.501024 13.85,154.9 C13.4895895,155.305152 13.3091396,155.839284 13.35,156.38 L13.4,157.1 C13.6,159.76 13.89,163.78 13.4,165.7 C13.159973,166.707161 13.728293,167.731005 14.71,168.06 C14.9624116,168.142089 15.2195452,168.208877 15.48,168.26 L16.75,167.26 C20.1728856,164.380322 24.6411316,163.057605 29.08,163.61 C30.0880711,163.76028 31.0770795,164.018428 32.03,164.38 C32,161.31 31.66,156.26 30.61,154.29 Z" id="Path" fill="#8885D2"/><path d="M42.2696314,116.693619 C47.4569905,116.278261 52.7319022,115.815066 59.9054707,115.155666 C61.4411788,115.014502 62.725924,114.895711 65.4028307,114.647686 C79.236428,113.365954 85.2662946,112.833484 92.8496685,112.264392 C93.9511408,112.181732 94.7770516,111.221804 94.694392,110.120332 C94.6117324,109.018859 93.6518038,108.192948 92.5503315,108.275608 C84.9358376,108.847035 78.8907688,109.380848 65.0337971,110.664745 C62.357837,110.912682 61.0737679,111.031411 59.5393308,111.172458 C52.3800444,111.830546 47.1191331,112.292512 41.9503686,112.706381 C40.849323,112.794543 40.0282187,113.758586 40.1163807,114.859631 C40.2045427,115.960677 41.1685859,116.781781 42.2696314,116.693619 Z" id="Path" fill="#3B3B3B"/><path d="M44.0774723,139.998499 C50.0078201,139.768608 53.8856494,139.179432 61.7771776,137.580753 L61.8357757,137.568882 C69.555336,136.005031 73.2537509,135.442034 78.9287355,135.21845 C80.2547356,135.166482 81.6425831,135.12951 83.1967616,135.102416 C84.5285079,135.0792 85.5991006,135.067299 88.0010374,135.04567 C95.3608908,134.979398 98.6583101,134.886843 102.848345,134.532902 C103.948994,134.439928 104.765877,133.472305 104.672902,132.371655 C104.579928,131.271006 103.612305,130.454123 102.511655,130.547098 C98.4544948,130.889814 95.2251558,130.980458 87.9650207,131.045832 C85.551861,131.067562 84.4737556,131.079546 83.12704,131.103024 C81.5456996,131.130591 80.1295731,131.168317 78.7716783,131.221534 C72.828485,131.455686 68.9562234,132.045147 61.0415773,133.648519 L60.9829835,133.660389 C53.287224,135.219409 49.5842027,135.782025 43.9225277,136.001501 C42.8187872,136.044288 41.9587143,136.973732 42.0015011,138.077472 C42.0442878,139.181213 42.9737318,140.041286 44.0774723,139.998499 Z" id="Path" fill="#3B3B3B"/><path d="M45.8648818,160.440483 C49.166491,160.117233 52.5541001,159.78379 56.9446251,159.350324 C58.468409,159.199884 64.2595175,158.62771 65.6186279,158.493518 C68.9965942,158.159993 71.6844617,157.895164 74.2787835,157.640459 C80.1378596,157.065228 85.1902804,156.574227 90.0305749,156.1109 C91.1301184,156.005648 91.9361512,155.028969 91.8308996,153.929425 C91.725648,152.829882 90.7489686,152.023849 89.6494251,152.1291 C84.8055508,152.592771 79.7500211,153.084074 73.8879512,153.659599 C71.2927849,153.914387 68.604235,154.179282 65.2255973,154.512874 C63.8663062,154.647084 58.0752181,155.219256 56.5516249,155.369676 C52.1620866,155.803046 48.7754683,156.136391 45.4751182,156.459517 C44.375805,156.567148 43.5718871,157.545569 43.6795174,158.644882 C43.7871476,159.744195 44.7655686,160.548113 45.8648818,160.440483 Z" id="Path" fill="#3B3B3B"/><path d="M47.4074205,181.817113 C47.5587166,181.808975 47.8414111,181.793531 48.2367533,181.771552 C48.8951296,181.734949 49.6286194,181.693354 50.4184844,181.647537 C52.6756586,181.516608 54.9330184,181.37805 57.0411268,181.237982 C58.6397171,181.131768 60.0899323,181.02874 61.3575587,180.930261 C63.0040021,180.802352 64.3150438,180.684293 65.2485808,180.576895 L86.2480271,178.166958 C88.3684079,177.920996 90.0030579,177.682539 93.6287538,177.116024 C97.2030579,176.557539 98.8017413,176.324329 100.850455,176.086678 C101.947667,175.959402 102.733955,174.966757 102.606678,173.869545 C102.479402,172.772333 101.486757,171.986045 100.389545,172.113322 C98.2715921,172.359004 96.6369421,172.597461 93.0112462,173.163976 C89.4369421,173.722461 87.8382587,173.955671 85.7895453,174.193322 L64.7919729,176.603042 C63.9172352,176.703675 62.6490657,176.817873 61.0477399,176.942277 C59.7965415,177.039481 58.3606994,177.141487 56.7759422,177.246782 C54.6803167,177.38602 52.4336761,177.52392 50.1868497,177.65425 C49.4003145,177.699874 48.670004,177.741288 48.0147136,177.777719 C47.6218557,177.799561 47.3415501,177.814874 47.1925795,177.822887 C46.0896044,177.882214 45.2435602,178.824445 45.3028869,179.92742 C45.3622136,181.030396 46.3044454,181.87644 47.4074205,181.817113 Z" id="Path" fill="#3B3B3B"/></g></g></g><g id="Phone/Effect" transform="scale(1 1)"><g id="Phone/Effect/Medal" stroke="none" stroke-width="1" fill="none" fill-rule="evenodd"><g id="addons" transform="translate(340.000000, 50.000000)" fill-rule="nonzero"><path d="M24.68,53.49 C22.94,64.78 24.16,77.7 25.27,89.07 C26.52,101.88 29.67,113.31 33.48,125.58 C34.2759151,128.411516 35.2307621,131.19593 36.34,133.92 C36.34,133.92 40.81,127.19 42.89,123.86 C46.14,118.67 49.89,113.69 53.06,108.47 C58.26,113.07 63.57,116.99 70.12,119.64 C74.12,121.25 78.03,122.89 82.22,123.18 C80.05,119.47 76.48,112.74 75.1,108.55 C71.9746331,99.0030502 69.5515063,89.2403559 67.85,79.34 C65.85,67.08 65.72,61.34 65.17,55.52 C62.28,53.73 58.67,54.15 55.36,53.52 C51.3921231,52.7707241 47.3860909,52.2399248 43.36,51.93 C37.38,51.44 30.28,50.09 24.68,53.49 Z" id="Path" fill="#4E6AF0"/><path d="M69.369904,121.494011 L69.633106,121.600031 C71.2507638,122.252011 71.5808491,122.384101 72.3050452,122.664986 C76.207112,124.178437 79.0561393,124.965806 82.0819055,125.175227 C83.6848488,125.28617 84.7576106,123.557184 83.9463752,122.170233 C81.1431113,117.377556 78.1305105,111.357991 76.9996213,107.924349 C73.9057053,98.4734611 71.5060949,88.8055135 69.8211017,79.0012403 C68.5121538,70.976942 68.1273986,67.3595068 67.4382052,58.5980757 C67.3386531,57.3325118 67.2639757,56.4378695 67.1812577,55.5467565 C67.1712564,55.4393289 67.1712564,55.4393289 67.1611288,55.3318349 C67.1022511,54.7088016 66.7551395,54.1492448 66.2231143,53.8197205 C64.230126,52.5853091 62.5441288,52.2407804 58.7887492,51.9182265 L58.5050878,51.8937955 C57.2039237,51.7810869 56.4777757,51.6968447 55.7339515,51.5552709 C51.6912817,50.7918694 47.6126042,50.2514446 43.5135041,49.9358996 C42.794961,49.8769979 42.4068238,49.8397499 40.7379575,49.6740214 C38.2353551,49.425498 36.8927604,49.3173284 35.3435862,49.2693342 C30.6249696,49.1231491 26.8976627,49.8037992 23.6420437,51.780425 C23.1369679,52.0870781 22.7933405,52.6013755 22.7033376,53.1853594 C21.2259467,62.7714187 21.5557032,71.607435 23.2794631,89.2643268 C24.3908311,100.653626 26.7910662,110.782787 31.5699629,126.173092 C32.3708661,129.025058 33.3501058,131.880603 34.4876803,134.674262 C35.0934628,136.161945 37.1172876,136.364585 38.0060024,135.026542 C38.0659488,134.936287 38.1774316,134.768225 38.3335999,134.532453 C38.5936744,134.139813 38.8834208,133.701639 39.1954359,133.228864 C40.0870498,131.877862 40.9787294,130.519886 41.8114131,129.242125 L41.9232695,129.070416 C43.0302213,127.370509 43.9386331,125.956402 44.5862827,124.91954 C45.8205179,122.948564 46.8722665,121.376632 49.2692192,117.870855 L49.3079039,117.814275 C51.2818283,114.927209 52.4797015,113.148214 53.5210594,111.515356 C58.9434686,116.108816 63.8096772,119.244453 69.369904,121.494011 Z M35.2197236,53.267416 C36.6512786,53.3117663 37.9268192,53.4145335 40.3426777,53.6544428 C42.0386417,53.8228622 42.4356726,53.8609637 43.1966678,53.9233195 C47.1595777,54.2284051 51.0929644,54.7495788 54.9888878,55.4852673 C55.9001485,55.6587118 56.7309719,55.7550976 58.1598949,55.8788729 L58.4464449,55.903553 C60.9032769,56.1145732 62.2109092,56.3190825 63.2757636,56.7785992 C63.32928,57.3949059 63.3842254,58.0689354 63.4505235,58.9117555 C64.1476998,67.774669 64.5426649,71.4880971 65.8760925,79.6620078 C67.5969177,89.6751982 70.0435608,99.5326392 73.1992593,109.172242 C74.149948,112.058761 76.2003052,116.386947 78.4263876,120.509209 C77.040047,120.141641 75.5266743,119.624191 73.7514924,118.935671 C73.0506532,118.663845 72.7265011,118.53413 71.1283855,117.890026 L70.8667782,117.78465 C65.1857629,115.486221 60.2337506,112.145771 54.3851478,106.972007 C53.4513705,106.145973 51.9976475,106.36627 51.3505287,107.431873 C49.964487,109.714251 48.7510431,111.541621 46.0059094,115.556658 L45.967228,115.613234 C43.5399561,119.163356 42.4683618,120.764948 41.1949215,122.798535 C40.5622762,123.811373 39.6656515,125.207131 38.5713096,126.887673 L38.4602046,127.058229 C37.9346864,127.864641 37.3851496,128.703775 36.8268219,129.553137 C36.3065369,128.06371 35.832477,126.55821 35.4053814,125.038792 C30.6849626,109.834345 28.3400708,99.9387365 27.2605456,88.8757625 C25.6293506,72.1670358 25.2723888,63.551993 26.5143932,54.7578317 C28.8406862,53.5842606 31.625068,53.1560518 35.2197236,53.267416 Z" id="Path" fill="#90BFFF"/><path d="M9.59214187,68.0753003 C0.0821462659,57.3270769 -1.86196091,35.5336689 4.60189867,21.8951494 C11.1900589,7.96047962 28.5398633,0.419036983 47.3423187,0.419036983 C55.884716,0.386883566 64.2586831,2.79457689 71.5134345,7.38193756 C80.6513649,13.4267398 85.7350918,25.3597178 87.0907782,39.4281614 C88.299241,51.9688124 85.146213,62.9517247 77.2056633,70.8327623 C71.0592971,76.9917494 63.3722955,81.1628885 55.262103,81.7428174 C34.8865043,83.8151671 20.3792802,80.3025852 9.59214187,68.0753003 Z" id="Path" fill="#FCD400"/><path d="M46.5139652,10.5195557 C52.9408192,10.500469 59.2404424,12.310407 64.7151106,15.7630475 C71.6470924,20.3586232 75.4820069,29.3548554 76.490925,39.909691 C77.390755,49.3232966 74.9973745,57.6311946 69.0122453,63.6061791 C64.3767189,68.228829 58.5575877,71.3758911 52.4116393,71.812869 C37.1775317,73.3637319 26.2667356,70.7279807 18.1425532,61.545765 C10.9425058,53.4133375 9.48106752,37.039125 14.3616807,26.7356106 C19.344848,16.1887127 32.3912763,10.5195557 46.5139652,10.5195557 Z M46.52,14.5197164 C33.7759845,14.5197164 22.1758607,19.5602727 17.9774757,28.4461727 C13.7496605,37.3715604 15.0577116,52.0271958 21.1378755,58.8947192 C28.2510675,66.9342805 37.9393789,69.2702836 52.036774,67.830352 L52.1013141,67.8248142 C57.1862227,67.4713609 62.1724266,64.7779953 66.1869864,60.7745874 C71.2499576,55.7201976 73.3028345,48.5942551 72.509075,40.290309 C71.6035446,30.8170678 68.2236287,22.8882058 62.543265,19.1217673 C57.7491678,16.0988744 52.1937093,14.5027416 46.52,14.5197164 Z M36.2098937,26.1772871 C37.3570197,24.5925292 39.8624747,25.427397 39.8297197,27.3834856 C39.828646,27.4475616 39.828646,27.4475616 39.8231714,27.7443924 C39.8176477,28.0367155 39.8108426,28.3755778 39.8026955,28.7571091 C39.7794355,29.8463853 39.7500829,31.0598186 39.7141521,32.3664723 C39.6114635,36.1008332 39.4766327,39.8356692 39.3056549,43.3246804 C39.1014791,47.4911393 38.8600446,51.0117275 38.5760046,53.7119419 C40.5341916,53.7775125 41.8341726,53.804272 43.4072992,53.8100133 C44.5118614,53.8140446 45.4040179,54.7127371 45.4000003,55.8172992 C45.3959554,56.9218614 44.4972629,57.8140179 43.3927008,57.8100003 C41.1398718,57.8017647 39.444678,57.7519794 35.7494476,57.6089117 L35.7494476,57.6089117 L35.6291405,57.6042541 C31.9028397,57.4600149 30.1226206,57.41 27.83,57.41 C26.7254305,57.41 25.83,56.5145695 25.83,55.41 C25.83,54.3054305 26.7254305,53.41 27.83,53.41 C29.9209923,53.41 31.5871554,53.4501254 34.5671871,53.5609796 C34.8556055,50.9263738 35.1025023,47.3723084 35.3104492,43.1288967 C35.4798624,39.671813 35.613703,35.9644043 35.7156636,32.2565206 C35.7174576,32.191281 35.719235,32.1262759 35.720996,32.0615092 C33.2621008,33.9227467 30.2751938,35.632466 28.1273368,36.2678449 C27.0681403,36.5811763 25.9554865,35.9765332 25.6421551,34.9173368 C25.3288237,33.8581403 25.9334668,32.7454865 26.9926632,32.4321551 C29.7000331,31.6312611 34.7519325,28.1914647 36.2098937,26.1772871 Z M59.3603466,39.2120104 C60.4638058,39.1624962 61.3984754,40.0168875 61.4479896,41.1203466 C61.4975038,42.2238058 60.6431125,43.1584754 59.5396534,43.2079896 C58.9307233,43.2353133 58.0654569,43.327061 56.9152534,43.4794478 C56.6762783,43.5111089 56.4253268,43.5453088 56.1485772,43.5838034 C56.0798573,43.5933621 54.4045291,43.8307742 54.0169768,43.8821007 C52.8511357,44.0391324 51.6898383,44.1210111 50.1834247,44.1725792 C49.8055437,44.1855149 49.5003223,44.1941213 48.8344353,44.2115327 C47.697272,44.2412669 47.2014291,44.2570623 46.5778419,44.2876053 C45.4745949,44.3416419 44.5364313,43.4910888 44.4823947,42.3878419 C44.4283581,41.2845949 45.2789112,40.3464313 46.3821581,40.2923947 C47.046222,40.2598691 47.5623383,40.2434279 48.7298802,40.2128994 C49.3850755,40.1957676 49.6829864,40.1873673 50.0465753,40.1749208 C51.4314995,40.1275116 52.4708786,40.0542289 53.4873928,39.9173156 C53.8580499,39.8682219 55.512217,39.6338085 55.5975001,39.621946 C55.8822938,39.5823325 56.1416245,39.5469907 56.3898966,39.5140979 C57.6472552,39.3475144 58.605927,39.2458626 59.3603466,39.2120104 Z M49.5495988,25.0064425 C50.6506102,24.9178554 51.6149704,25.7385874 51.7035575,26.8395988 C51.787341,27.880908 51.0577471,28.7999839 50.0469352,28.9715392 C50.0188459,28.9857972 49.9827171,29.0059648 49.9411167,29.0315424 C49.761645,29.141889 49.5556207,29.3061698 49.3719436,29.4902319 C49.2823686,29.5799948 49.2027429,29.6698116 49.1358449,29.7549185 C49.1874707,29.7829283 49.2464485,29.8143777 49.3138219,29.849791 L49.3138219,29.849791 L49.4172041,29.9041213 C50.0324678,30.2279681 50.3802912,30.4422429 50.7470872,30.7749149 C52.2838569,32.119729 52.9453852,34.2074879 52.4468724,36.2558758 C51.9388803,38.0824857 50.7175639,39.0344814 48.8661661,39.6782193 C48.7256877,39.7270642 48.5842865,39.7736555 48.411546,39.8287063 L48.411546,39.8287063 L48.0181088,39.9532523 C47.9223743,39.9838484 47.8453589,40.0091144 47.7762877,40.0326997 C46.7309785,40.3896346 45.5942351,39.8315969 45.2373003,38.7862877 C44.8803654,37.7409785 45.4384031,36.6042351 46.4837123,36.2473003 C46.5809281,36.2141046 46.6816259,36.1810693 46.800414,36.1431055 L46.800414,36.1431055 L47.1969689,36.0175644 C47.3393046,35.9722033 47.4498596,35.9357757 47.5524961,35.9000887 C48.2912051,35.6432368 48.5136716,35.4698279 48.576476,35.2480736 C48.7066137,34.7121304 48.5279528,34.1482831 48.0872604,33.762245 C48.0199404,33.701261 47.8824455,33.616558 47.5541108,33.4437376 L47.5541108,33.4437376 L47.4527438,33.3904673 C45.9099059,32.5795087 45.1442674,31.8761022 44.9716751,30.2857872 C44.7155674,27.9259374 47.4612804,25.1744681 49.5495988,25.0064425 Z M60.0446861,24.9414536 L60.8882927,24.9503666 C61.9926597,24.9715151 62.8707819,25.8839257 62.8496334,26.9882927 C62.8284849,28.0926597 61.9160743,28.9707819 60.8117073,28.9496334 C60.3713713,28.941201 59.9310227,28.9392137 59.4908025,28.9436643 C59.4705897,29.8865017 59.382687,30.9538431 59.2205339,32.5839781 C59.1736799,33.0550045 59.1527732,33.2684068 59.1283465,33.5295763 C59.0208684,34.6787326 58.97,35.5122098 58.97,36.31 C58.97,37.4145695 58.0745695,38.31 56.97,38.31 C55.8654305,38.31 54.97,37.4145695 54.97,36.31 C54.97,35.3642268 55.0276602,34.4194663 55.1457275,33.1570904 C55.1711259,32.8855308 55.1925507,32.6668404 55.2401777,32.1880435 C55.3744023,30.8386742 55.4523376,29.923652 55.4811284,29.1621777 L54.6257264,29.2560597 C53.5288559,29.3862478 52.5341284,28.6025969 52.4039403,27.5057264 C52.2737522,26.4088559 53.0574031,25.4141284 54.1542736,25.2839403 C56.388665,25.0187393 58.6386304,24.9072859 60.8882927,24.9503666 Z" id="Combined-Shape" fill="#E2B420"/></g></g></g></g></svg>