<svg viewBox="15 52.50000000000006 540.0000000000001 547.5" xmlns="http://www.w3.org/2000/svg" overflow="visible" xmlns:xlink="http://www.w3.org/1999/xlink" width="540.0000000000001px" height="547.5px"><g id="Master/Hands/Phone" stroke="none" stroke-width="1" fill="none" fill-rule="evenodd"><g id="base" transform="translate(170.000000, 85.000000)" fill-rule="nonzero"><path d="M198.288013,122.311919 C198.42426,121.623109 198.911741,121.056198 199.572366,120.818295 C204.554953,119.02398 209.652357,117.566123 214.801062,116.461038 C215.046695,116.404457 215.298862,116.345414 215.628286,116.267575 C219.869539,115.265428 221.334087,115.012478 223.490284,115.146658 C226.535115,115.336137 229.091077,116.640261 231.245806,119.303232 C234.338077,123.131283 236.386581,128.221341 237.428949,133.918947 C238.028338,137.280738 237.382802,142.079109 235.682449,144.799603 C233.779906,147.885515 230.686981,150.62464 226.220111,153.610507 C225.422484,154.143679 224.589736,154.679595 223.628295,155.282431 C223.251826,155.518482 222.867077,155.757718 222.389478,156.053191 C222.220534,156.157711 221.426201,156.648369 221.211565,156.781238 C219.427163,157.884208 217.9231,158.886568 214.966203,160.911387 C214.642819,161.132861 214.642819,161.132861 214.318992,161.354596 C209.830636,164.427261 207.464215,165.948085 204.519544,167.531216 C199.820058,169.93092 195.373325,172.796302 191.246217,176.084271 C189.789428,177.24486 187.676597,175.959098 188.038013,174.131919 L198.288013,122.311919 Z" id="Path" fill="#b17606"/><path d="M211.172231,240.750502 C224.318662,238.467268 248.825546,230.922374 253.53903,226.038954 C258.14643,221.3263 259.856329,214.870655 259.78774,206.104845 C259.768112,203.596308 259.635595,201.35222 259.323201,197.413345 L259.22377,196.162265 C258.468014,187.874612 256.898898,179.705681 254.537294,171.750803 C251.797163,162.128754 247.531266,159.933641 235.751617,160.572939 C223.563209,161.376311 211.472289,163.060752 199.551088,165.614364 C198.516321,165.836019 197.833316,166.825382 197.99286,167.871527 L208.85286,239.081527 C209.021822,240.189427 210.06805,240.942273 211.172231,240.750502 Z" id="Path" fill="#b17606"/><path d="M254.567975,193.197239 C251.53808,193.597644 248.03133,194.020023 243.841266,194.494355 C240.734014,194.846109 237.577128,195.191034 232.751264,195.70983 C219.277066,197.158347 216.563979,197.456909 211.536,198.07494 C210.439681,198.209697 209.660182,199.207682 209.79494,200.304 C209.929697,201.400319 210.927682,202.179818 212.024,202.04506 C217.022401,201.430665 219.731723,201.132518 233.178812,199.686914 C238.011601,199.167375 241.17467,198.821773 244.291208,198.468969 C248.503991,197.992065 252.034016,197.566882 255.092025,197.162761 C256.187074,197.018049 256.957474,196.013024 256.812761,194.917975 C256.668049,193.822926 255.663024,193.052526 254.567975,193.197239 Z" id="Path" fill="#744b15"/><path d="M183.647477,216.285913 C176.27238,207.093596 168.897472,200.361278 161.188935,196.373611 C150.379212,190.769814 137.952009,187.160317 126.514028,186.743825 C112.868727,186.246957 101.213163,190.223087 92.8931004,199.200513 C91.0737687,201.167704 89.6227038,203.641503 88.2539879,206.962549 L82.4616924,188.122265 C82.0416595,186.756047 80.3655766,186.25868 79.2683185,187.174652 C75.4381812,190.371984 69.8999884,198.143202 63.0203997,209.383434 C58.3912695,216.946748 53.9799311,224.696071 49.5263216,232.818433 C48.3846545,234.904303 47.2115054,237.237315 46.0036188,239.813344 C43.031622,246.151645 39.9095444,253.816177 36.4681973,263.037132 C34.8344444,267.414708 33.1905431,271.971584 31.2494494,277.467067 C30.4469352,279.739087 27.439992,288.315947 26.754578,290.252779 C17.1392054,317.428141 11.3600226,347.211384 4.94812658,394.511341 C3.69030638,403.803944 2.66766035,417.602445 1.85170246,434.734048 C1.30183536,446.27889 0.878169094,483.64485 0.56472179,496.010318 C0.455025022,500.337846 0.36693523,504.35638 0.298470149,507.963066 C0.274501774,509.225701 0.254697173,510.346773 0.238808831,511.313422 C0.233244809,511.651938 0.230128051,511.848552 0.224744726,512.19707 C0.22094827,512.449065 0.22094827,512.449065 0.218194738,512.501586 C0.204363183,513.616318 1.10301649,514.528806 2.21786069,514.529999 L161.147861,514.7 C162.253265,514.7 163.15,513.805405 163.15,512.7 C163.15,470.141163 165.41429,389.746084 169.425958,370.947405 C172.645309,355.902062 178.526908,337.443709 185.166036,320.905071 C188.281494,313.124894 191.992255,304.707226 196.989543,293.89453 C198.49,293.662806 199.98042,293.369297 201.457,293.014714 C208.578424,291.25795 210.671832,290.707762 214.336265,289.521832 C228.537123,284.925971 237.062171,278.399724 238.579722,267.82408 C239.815719,259.225841 235.878203,247.630218 229.754423,241.756611 C225.363541,237.548681 219.265019,236.450175 211.163281,237.408854 C208.747,237.694773 206.393169,238.116367 202.984897,238.825162 C202.471087,238.932015 200.765702,239.290726 200.524895,239.34104 C200.18307,239.412462 199.872039,239.47693 199.58268,239.536226 C193.363043,229.466034 188.907959,222.842574 183.647477,216.285913 Z" id="Path" fill="#b17606"/><path d="M186.092337,256.94081 C173.884626,258.215242 166.841252,268.196252 170.391476,279.527942 C170.419872,279.619411 171.697036,284.031565 172.183195,285.500178 C173.505538,289.494772 174.896443,292.230829 176.827447,293.866207 C182.134799,298.368164 187.326545,299.233038 194.598316,297.441961 C195.670831,297.177795 196.326128,296.0942 196.061961,295.021684 C195.797795,293.949169 194.7142,293.293872 193.641684,293.558039 C187.535521,295.06202 183.659597,294.416343 179.413746,290.814804 C178.2142,289.798902 177.083209,287.574124 175.980541,284.243131 C175.523219,282.861632 174.260658,278.499923 174.21003,278.336885 C171.433661,269.475182 176.752794,261.937555 186.507663,260.91919 C187.606262,260.804501 188.403879,259.820937 188.28919,258.722337 C188.174501,257.623738 187.190937,256.826121 186.092337,256.94081 Z" id="Path" fill="#744b15"/><path d="M176.232218,262.778741 L176.225599,262.779914 C165.900548,264.591326 135.760604,266.109217 122.3471,265.80954 C120.975512,265.780113 119.592223,265.76465 117.615869,265.752684 C117.27926,265.750645 117.009487,265.749145 116.402385,265.745866 C103.273546,265.674957 97.7082324,265.207538 91.5926127,262.922789 C83.3023441,259.825607 77.9588039,253.654973 75.6493036,243.451343 C73.17576,232.518494 71.4086788,220.741722 69.8144322,205.839536 C69.2198732,200.281907 68.9105938,197.056892 67.8332076,185.473699 C67.612872,183.104827 67.4564712,181.43574 67.2989278,179.778763 C65.8929297,164.948312 64.6236078,148.572835 62.8050456,122.837572 C62.977358,125.276039 61.0885583,98.380368 60.5844093,91.3794013 C59.8823547,81.6301788 59.280397,73.6601097 58.6964108,66.4800061 C57.2447756,48.3934164 57.0303859,30.304287 59.4479415,23.0517982 C62.3907835,13.9973799 70.3051423,7.46219897 79.7033191,6.29212729 C103.592776,2.70870878 133.615969,-0.00115940172 149.541922,0.330439415 C150.966881,0.360314656 152.226429,0.373126052 154.961925,0.391324166 C163.026693,0.444975708 166.783422,0.541236832 171.532576,0.930363541 C186.574746,2.16285895 197.078452,6.02075615 203.117884,14.3142232 C206.410186,18.8444739 208.357339,25.3857318 209.573992,34.2039471 C209.8786,36.4117213 210.132935,38.7189021 210.379545,41.3951015 C210.474079,42.420982 210.56345,43.452888 210.675109,44.7904371 C210.654497,44.5435294 210.880163,47.264582 210.939288,47.958191 C211.013179,48.8250282 211.077597,49.5467287 211.14165,50.2174321 C211.190412,50.7495501 211.190412,50.7495501 211.239167,51.2821836 C213.248386,73.2376938 213.307264,73.8708707 214.137298,82.0732005 C214.702691,87.6603791 215.260653,92.8281824 215.836172,97.7652243 C221.064074,141.992592 224.197849,179.300002 225.36893,215.48458 C225.903372,231.814758 223.467011,242.919485 214.998845,250.190855 C210.981161,253.62205 204.438026,256.373641 195.854463,258.690105 C192.320571,259.643803 188.58983,260.482929 184.542411,261.27158 C183.019046,261.568412 181.520591,261.844984 179.827256,262.145829 C179.132054,262.269341 176.722573,262.691014 176.232218,262.778741 Z" id="Path" fill="#1A4E66"/><path d="M171.79,254.43 C159.933944,255.745924 148.007827,256.327034 136.08,256.17 C118.67,255.79 104.02,258.11 99.29,237.22 C95.08,218.62 93.53,194.53 91.72,175.47 C88.78,144.47 86.42,101.47 83.89,70.31 C83.21,61.91 81.24,33.04 84.49,25.47 C87.74,17.9 95.71,15.55 101.44,14.47 C115.21,11.81 131.99,9.74 147.74,10.07 C162.07,10.37 185.51,8.88 195.07,22.07 C200.69,29.81 201.16,48.71 202.07,57.86 C203.43,72.09 204.7,86.76 206.41,101.2 C210.61,136.74 213.91,177.2 215.08,213.2 C215.41,223.2 214.78,236.06 206.27,243.36 C198.32,250.15 178.66,253.59 171.79,254.43 Z" id="Path" fill="#FFF"/><path d="M76.7881757,12.3375179 C71.8904036,15.6130191 70.3166479,23.9603027 70.5390231,37.137083 C70.5954498,40.4806288 70.7552664,43.7853813 71.0477839,48.3769931 C71.0892379,49.027692 71.2655284,51.7330203 71.3080981,52.4061529 C71.3988993,53.8419415 71.4597356,54.9071252 71.5020519,55.8405736 C71.89653,64.3846251 72.4931522,74.2960025 73.4043509,87.9685221 C73.5325794,89.8925876 73.6679944,91.9067457 73.8229602,94.1976211 C73.9250633,95.707023 74.5346073,104.677899 74.7045316,107.197838 C75.0318729,112.052236 75.2830827,115.857886 75.5040212,119.336762 C77.5619528,152.069005 80.673107,186.986615 84.8415089,225.67425 C85.9837223,236.363885 88.3723137,246.376881 91.9824828,253.376751 C92.4887904,254.358447 93.6950554,254.743825 94.676751,254.237517 C95.6584467,253.73121 96.0438249,252.524945 95.5375172,251.543249 C92.1978287,245.067822 89.9131707,235.490516 88.8186794,225.247505 C84.6560199,186.613159 81.5499789,151.752935 79.4960588,119.084504 C79.274655,115.598295 79.0231302,111.787873 78.6954684,106.928722 C78.5254596,104.40753 77.9158759,95.4360699 77.8138398,93.9276589 C77.6589576,91.6380173 77.5236288,89.6251426 77.3954974,87.702534 C76.4859703,74.055097 75.890723,64.1665599 75.4978717,55.6577583 C75.4543423,54.6975344 75.3922991,53.6112202 75.3001231,52.1536921 C75.2572482,51.4757342 75.0808765,48.7691599 75.0396913,48.122681 C74.7508134,43.5881975 74.5936002,40.3372797 74.5384536,37.0695874 C74.3408123,25.358406 75.75865,17.8381195 79.0118243,15.6624821 C79.9299878,15.0484385 80.1765257,13.8063392 79.5624821,12.8881757 C78.9484385,11.9700122 77.7063392,11.7234743 76.7881757,12.3375179 Z" id="Path" fill="#0D323F"/><path d="M51.2333477,296.359456 C49.7183993,296.324108 48.791554,294.682419 49.5439143,293.367021 C52.1390052,288.829864 55.0915964,284.029122 58.7512059,278.335795 C60.2541149,275.997689 61.8126785,273.605596 63.8856071,270.447472 C64.547735,269.438715 66.9751976,265.746037 66.782301,266.039591 C67.9415576,264.275414 68.8062492,262.956438 69.6448847,261.671681 C71.7856,258.392189 73.5346642,255.672648 75.146124,253.106617 C87.6808035,233.139977 100.731275,217.213471 114.800292,206.242718 C122.85813,199.960527 132.413943,201.578929 138.462049,210.133965 C141.631112,214.607936 141.77772,219.678492 139.67312,225.715111 C138.845954,228.087666 137.829269,230.292249 136.025898,233.830576 C133.697807,238.398435 133.704648,238.384748 133.041039,239.894547 C130.629865,245.382046 129.080954,254.831478 128.738559,263.635919 C128.595668,267.397505 129.033892,271.686435 129.989018,276.567164 C130.730002,280.35362 131.730072,284.289617 133.133681,289.167282 C133.427207,290.187312 133.730879,291.224064 134.115086,292.522178 C134.215955,292.862982 134.874137,295.080426 135.058148,295.70369 C135.44199,297.003799 134.448567,298.301076 133.093348,298.270022 L51.2333477,296.359456 Z" id="Path" fill="#b17606"/><path d="M68.2053619,81.3938712 C67.823324,75.7940001 67.5363258,70.238714 67.3488206,64.7813244 C67.3108921,63.6774063 66.3852425,62.813251 65.2813244,62.8511794 C64.1774063,62.8891079 63.313251,63.8147575 63.3511794,64.9186756 C63.540249,70.4215949 63.8295694,76.0218319 64.2146381,81.6661288 C64.28982,82.7681367 65.2441209,83.6005437 66.3461288,83.5253619 C67.4481367,83.45018 68.2805437,82.4958791 68.2053619,81.3938712 Z" id="Path" fill="#0D323F"/><path d="M70.2314934,108.935734 C69.7363296,103.584155 69.3505696,97.901614 69.0576894,91.8138912 C69.00461,90.7105978 68.0671846,89.8592312 66.9638912,89.9123106 C65.8605978,89.96539 65.0092312,90.9028154 65.0623106,92.0061088 C65.3578878,98.1498923 65.747592,103.890535 66.2485066,109.304266 C66.3502741,110.404138 67.3243949,111.213261 68.4242663,111.111493 C69.5241377,111.009726 70.3332609,110.035605 70.2314934,108.935734 Z" id="Path" fill="#0D323F"/><path d="M128.299043,267.779977 C128.953199,274.635526 130.571305,280.016487 133.810201,287.790092 C133.98855,288.218145 134.169496,288.64938 134.414513,289.231108 C134.564421,289.586901 134.564421,289.586901 134.713376,289.940325 C134.861788,290.292607 134.921969,290.435575 135.008986,290.642689 C135.480178,291.7642 135.821522,292.590095 136.143405,293.393678 C136.554127,294.419047 137.718309,294.917316 138.743678,294.506595 C139.769047,294.095873 140.267316,292.931691 139.856595,291.906322 C139.524842,291.0781 139.175836,290.233667 138.69673,289.093319 C138.609074,288.884684 138.548402,288.74055 138.39949,288.387084 C138.25035,288.03322 138.25035,288.03322 138.100878,287.678462 C137.857686,287.101066 137.678532,286.6741 137.502526,286.251674 C134.404226,278.815509 132.889609,273.778698 132.280957,267.400023 C132.176035,266.300448 131.199598,265.494122 130.100023,265.599043 C129.000448,265.703965 128.194122,266.680402 128.299043,267.779977 Z" id="Path" fill="#744b15"/><path d="M51.3060857,290.422979 C53.8469498,285.980629 56.7480184,281.263577 60.347445,275.66429 C61.8464418,273.332443 63.4032637,270.943635 65.4765595,267.786066 C66.1393545,266.776649 68.5598219,263.095978 68.3843614,263.362901 C69.5499738,261.589687 70.4205742,260.262114 71.2653047,258.968326 C73.4260423,255.658944 75.193381,252.910917 76.823931,250.313296 C77.411173,249.377763 77.128828,248.143311 76.1932957,247.556069 C75.2577634,246.968827 74.023311,247.251172 73.436069,248.186704 C71.8199126,250.761395 70.0647517,253.490487 67.9159948,256.78152 C67.0739365,258.071215 66.2053851,259.395663 65.041849,261.165718 C65.2180281,260.897702 62.7966249,264.579796 62.1329222,265.590596 C60.0531461,268.758034 58.4899299,271.156653 56.9826996,273.501309 C53.3489543,279.153982 50.4137319,283.926567 47.8339143,288.437021 C47.2855074,289.395835 47.6182078,290.617679 48.5770214,291.166086 C49.5358351,291.714493 50.7576788,291.381792 51.3060857,290.422979 Z" id="Path" fill="#744b15"/><path d="M134.373182,348.86945 C136.42131,349.338884 138.427675,349.974816 140.372268,350.770903 C141.394494,351.189387 142.56242,350.699957 142.980903,349.677732 C143.399387,348.655506 142.909957,347.48758 141.887732,347.069097 C139.741574,346.190493 137.527242,345.488644 135.266818,344.97055 C134.190166,344.72378 133.117321,345.396531 132.87055,346.473182 C132.62378,347.549834 133.296531,348.622679 134.373182,348.86945 Z" id="Path" fill="#744b15"/></g><g id="Phone/Wear" transform="scale(1 1)"><g id="Phone/Wear/Cloud" stroke="none" stroke-width="1" fill="none" fill-rule="evenodd"><g id="clothing" transform="translate(17.000000, 393.000000)" fill-rule="nonzero"><path d="M530.72,122.72 C529.345056,121.745776 527.705036,121.215386 526.02,121.2 C527.389268,117.983122 527.618596,114.395021 526.67,111.03 C525.597339,107.397922 522.843859,104.503046 519.27,103.25 C513.35,101.08 508.71,103.5 505.11,107.12 C505.860693,100.894233 504.739688,94.5859642 501.89,89 C501.56,88.41 493.89,74.6 486.02,72.59 C479.58,70.93 474.28,71.98 470.27,75.72 C461.59,83.8 461.39,103.06 462.85,115.59 C461.687227,115.185554 460.460629,114.995804 459.23,115.03 C452.59,115.16 443.46,121.03 440.8,126.91 C439.8,129.13 438.64,132.36 440.27,134.91 C441.9,137.46 445.44,137.91 450.27,137.84 C454.32,137.84 458.38,137.84 462.27,137.93 C465.27,137.99 468.37,138.04 471.48,138.04 C474.59,138.04 477.48,137.99 480.48,137.84 L484.48,137.64 C494.02,137.18 505.91,136.64 514.48,135.28 L517.09,134.88 C525.64,133.61 532.39,132.6 532.33,126.21 C532.375219,124.857565 531.778201,123.563408 530.72,122.72 L530.72,122.72 Z" id="Path" fill="#91D5DD"/><path d="M101,33.68 C100.0612,33.2405971 99.0365317,33.0151702 98,33.02 C98.4515865,31.2130477 98.2275458,29.303367 97.37,27.65 C95.61,24.33 91.37,22.42 86.15,22.65 C79.15,22.96 72.48,26.94 67.57,32.06 L67.93,31.06 C69.75,25.99 71.62,20.74 69.71,13.87 C67.9,7.4 64.5,0.06 53.88,0.54 C44.21,0.98 34.09,7.72 26.8,18.54 C20.8,27.54 18.01,37.49 19.11,45.69 C15.0800256,44.457427 10.7259348,44.8709039 7,46.84 C3,48.84 0.59,52.05 0.76,54.97 C0.83,56.3 1.52,58.75 5.31,60.16 C7.20094289,60.7538363 9.17927635,61.0209959 11.16,60.95 C13.37,60.95 15.74,60.75 17.96,60.57 C19.76,60.42 21.46,60.28 22.73,60.28 L50.25,60.28 C53.06,60.28 55.92,60.33 58.95,60.39 C72.36,60.64 87.57,60.92 100.15,56.33 L100.4,56.22 C104.48,54.07 106.85,49.71 106.75,44.56 C106.65,39.65 104.33,35.28 101,33.68 Z" id="Path" fill="#91D5DD"/><path d="M356,116.18 C379.27,91.97 396.77,28.18 347,17.01 C343.71,16.27 340.43,15.69 337.17,15.25 C331.001577,30.7376666 326.049909,46.6826377 322.36,62.94 C319.7,75.4 318.04,101.94 317.1,127.67 C304.62,133.96 293.39,148.09 290.29,157.88 C289.18,148.53 275.75,136.3 259.37,138.98 C242.99,141.66 225.43,161.87 224.28,174.46 C220.17,152.78 193.48,135.72 173.35,131.93 C167.11066,130.790838 160.703157,130.95426 154.53,132.41 C155.26,115.56 156.34,97.93 157.88,86.51 C159.88,71.71 162.14,55.94 165.03,40.14 L164.85,40.14 C153.43,41.04 140.85,43.74 131.09,49.71 C118.77,57.26 105.24,69.51 99.31,83.01 C92.7,98.07 86.59,120.23 92.31,141.07 C78.16,132.91 62.09,139.01 57.5,149.44 C50.59,165.11 58.16,188.66 78.69,195.83 C99.22,203 129.15,207 164.32,207 L278.52,207 C320.24,207 354.37,204.52 368.11,201.11 C398.32,193.59 418.78,178.76 425.96,151.45 C435,116.92 395.13,82.37 356,116.18 Z" id="Path" fill="#91D5DD"/><path d="M259.116873,136.996275 C245.332034,139.253048 229.598963,153.96296 224.211866,167.157508 C216.79722,149.356185 194.909842,133.940887 173.790051,129.964533 C159.467351,127.266764 144.012535,131.689236 131.945063,141.03901 C131.071906,141.715525 130.912496,142.971781 131.58901,143.844937 C132.265525,144.718094 133.521781,144.877504 134.394937,144.20099 C145.601439,135.518288 159.917049,131.421805 173.049797,133.895439 C195.40842,138.105036 218.831332,156.087145 222.384998,174.832516 C222.81694,177.110982 226.130759,176.95136 226.341708,174.641927 C227.49076,162.062313 245.199398,143.328013 259.763127,140.943725 C266.839532,139.785217 273.802459,141.568502 279.47315,145.550513 C284.497218,149.07846 287.882989,153.980234 288.373946,158.115777 C288.62778,160.253925 291.61741,160.53613 292.266854,158.483247 C294.906472,150.139454 303.491996,139.112285 312.904515,132.554769 C323.855492,124.925441 334.037078,124.158495 341.62235,131.780768 C342.401496,132.563715 343.667822,132.566796 344.450768,131.78765 C345.233715,131.008504 345.236796,129.742178 344.45765,128.959232 C335.270731,119.727498 322.991331,120.652466 310.617985,129.272731 C302.34875,135.033742 294.728195,143.937462 290.631566,152.03673 C285.865214,142.400791 272.453996,134.8128 259.116873,136.996275 Z" id="Path" fill="#1A4E66"/></g></g></g><g id="Phone/Item" transform="scale(1 1)"><g id="Phone/Item/Chat" stroke="none" stroke-width="1" fill="none" fill-rule="evenodd"><g id="items" transform="translate(260.000000, 120.000000)" fill-rule="nonzero"><path d="M1.4320964,76.1096345 C2.05315124,81.7307796 6.98500825,85.8696288 12.6286465,85.5058582 L38.3237086,83.6548303 L62.6560849,81.9953649 C63.8317654,81.9125754 64.8392005,81.8477434 66.8764782,81.7210638 C69.6341349,81.5495905 70.7258343,81.4788373 72.1995603,81.3708092 C79.0076666,80.8717565 83.9693435,80.1896591 88.7031374,78.933052 C93.5029734,77.6662693 95.6223511,74.6014549 96.1799862,69.049887 C96.5960872,64.4335086 96.0062783,59.8024166 94.4533497,55.4569517 C93.1195269,52.0395732 90.5381195,49.9020586 86.9578639,48.7856698 C84.3306003,47.9664412 81.4564937,47.7193273 77.419799,47.760102 C71.6830221,47.8211777 65.7129436,48.1558508 58.1604986,48.7791829 C55.6959897,48.9825882 53.6272637,49.1656744 49.3550986,49.552786 C43.307974,50.1007313 40.8266871,50.3174233 37.596607,50.565891 C30.5997027,51.1023203 29.2460482,51.2105617 26.1272817,51.5046042 C19.8335088,52.0979915 14.6741705,52.7900082 9.96474505,53.7394456 C2.8166676,55.182698 -0.454426989,60.0987758 0.372591541,67.4340706 C0.485240914,68.1726481 0.586226538,68.9071557 0.69520503,69.7747707 C0.84702779,70.9834837 1.46433805,76.3863128 1.43347372,76.1217614 L1.4320964,76.1096345 Z" id="Path" fill="#EAF3F3"/><path d="M97.5776898,160.050335 C100.344847,164.72485 104.151952,169.261063 107.391519,171.593161 C108.830931,172.629364 110.806821,171.418247 110.536661,169.665353 C110.339403,168.38547 110.089346,167.263106 109.356356,164.194411 L109.312324,164.010009 C108.748158,161.64631 108.478641,160.427458 108.293313,159.304371 C108.205867,158.755301 108.129675,158.197306 108.064299,157.628054 C109.175865,157.240599 110.268325,156.799447 111.337807,156.306062 C112.690248,155.685244 113.927786,154.832184 114.99186,153.78646 C118.528908,150.228979 119.429311,145.27806 118.801754,138.388573 C118.140131,131.146158 114.578679,127.254889 107.420787,126.42336 L107.41456,126.422647 C99.725038,125.553774 92.0381581,125.980137 79.4020603,127.494204 C75.8572502,127.941672 72.8762232,128.284089 66.6274722,128.977146 C64.0396339,129.264167 63.2047819,129.357073 61.9170247,129.502113 C52.4208154,130.571668 46.1021525,131.406634 39.7764195,132.509733 C35.6554876,133.214154 33.0434486,133.882434 30.6020505,135.066817 C27.2441748,136.695806 24.9578817,139.118666 23.9684974,142.545178 C22.6822245,146.979751 22.3570817,152.516295 23.4280168,156.517147 C24.750237,161.464075 28.0453587,163.870225 33.4262776,164.448548 C37.5327744,164.879036 41.8593132,164.879857 47.0707274,164.542078 C49.4028955,164.390917 51.3658776,164.221398 55.3610944,163.845689 C57.6875624,163.626908 58.479322,163.553693 59.6432592,163.452481 L83.9539203,161.453271 C84.4821348,161.408965 86.3993875,161.250842 86.7768293,161.219362 C87.9228627,161.12378 88.8429646,161.044178 89.7438494,160.961556 C92.0454964,160.750466 94.0371475,160.534898 95.9429849,160.281138 C96.4986715,160.207148 97.0431832,160.130329 97.5776898,160.050335 Z" id="Path" fill="#4E6AF0"/><path d="M93.5568794,85.3054973 C91.3632812,84.2106864 89.0514255,84.0089338 84.2847082,84.1407644 C80.4639575,84.2207351 76.5717812,84.4694394 72.0815185,84.8921293 C69.2834192,85.1555277 67.8830443,85.3076641 61.6871225,86.0024574 C59.9904523,86.1868185 57.0674258,86.4190543 52.326115,86.7559478 C50.6229712,86.8769645 41.2174384,87.5280829 38.4692525,87.7240761 C31.2649565,88.2378673 25.9853981,88.6572557 21.8725275,89.0625707 C18.642227,89.3809102 16.2807303,89.6782348 14.797908,89.9668378 C11.3058079,90.6538042 9.17587875,91.5414785 7.25554644,93.5466873 C4.26492917,96.6369526 3.78561492,99.1202445 3.93677374,105.506642 L3.94054823,105.666826 C3.95308177,106.228382 3.95525448,106.691258 3.95412649,107.750728 C3.95347235,108.365133 3.95368245,108.640552 3.95583922,108.986654 C3.98789065,114.130018 4.63710812,117.157763 7.01134183,119.844396 C8.7394756,121.795516 10.9441003,122.781178 13.6514021,123.05802 C13.6606774,123.432919 13.6636048,123.801968 13.6600907,124.170953 C13.66,125.326153 13.5794703,126.610151 13.3825629,128.984251 L13.351857,129.353302 C13.1014339,132.356948 13.0255369,133.494951 13.0300126,134.757092 C13.0362913,136.527704 15.170653,137.417456 16.4327444,136.17559 C19.5230843,133.134775 22.8732206,127.425322 24.8472896,122.029469 C25.7214356,121.933436 26.6570834,121.827611 27.6545981,121.712482 C29.1897423,121.535302 30.3553929,121.39727 33.2059367,121.057014 C42.3577185,119.964608 46.5255378,119.51549 51.6871933,119.134576 C52.7138867,119.05948 53.616868,118.99537 55.3531161,118.873491 C59.4886535,118.583188 61.1534997,118.461597 63.3740688,118.279278 C69.6859954,117.761038 74.705884,117.162826 79.4992945,116.287462 C79.768222,116.238972 80.0700154,116.188184 80.4188197,116.132427 C80.7701212,116.076271 83.0495492,115.731307 83.7707921,115.614105 C90.8784717,114.483702 95.0635553,113.02254 97.5153517,109.722831 C98.8283941,107.91675 99.1987909,104.996918 99.0575093,100.91461 C99.0065192,99.4412593 98.8890818,97.9114189 98.7104364,96.1617195 C98.6711647,95.7770817 98.6304252,95.3955267 98.5809886,94.9451514 C98.5633567,94.7845223 98.4868371,94.093713 98.4682617,93.9236298 C97.9899989,89.5148993 96.4200171,86.7344712 93.5568794,85.3054973 Z" id="Path" fill="#EAF3F3"/><path d="M66.2823227,1.90417284 C62.7479992,2.32569749 59.7743339,2.64621594 53.5073189,3.29680026 C50.8754659,3.57001522 49.987382,3.66257395 48.6595774,3.80288622 C39.2554588,4.79664175 32.9428486,5.58884465 26.6387381,6.64762438 C22.4118356,7.36893184 19.8808075,8.00202445 17.4475902,9.15870454 C14.0745363,10.7621553 11.7737547,13.1622272 10.7621195,16.5827837 C9.44952565,20.9989808 9.08428497,26.5445519 10.1244026,30.5434508 C11.4061626,35.4776601 14.6850282,37.8866828 20.0671055,38.5451958 C24.2811748,39.0173952 28.6957268,39.0371867 34.1178362,38.7110763 C36.2428767,38.5832667 38.0218012,38.4437477 41.6821068,38.1329909 C44.1313607,37.9250513 45.0348077,37.8501282 46.29214,37.754205 L70.6216379,35.9042432 C78.529511,35.2932611 79.223567,35.2340104 82.5140225,34.8187402 C83.1062038,34.7440043 83.6856703,34.6660169 84.2538043,34.5843756 C86.9929705,39.2822312 90.7728476,43.8450656 93.9936566,46.1874722 C95.4263462,47.2294283 97.4063125,46.0319092 97.1487483,44.2792162 C96.9604639,42.9979637 96.7167046,41.8679015 96.00532,38.7993035 L95.9637593,38.6199723 C95.4139362,36.2465589 95.1532835,35.0301681 94.9753671,33.9070706 C94.8907755,33.3496174 94.8175148,32.7916965 94.7561936,32.235678 C95.8690219,31.8584157 96.9630267,31.4267891 98.0342417,30.9422584 C99.3968041,30.3257538 100.640508,29.475221 101.709061,28.4292055 C105.270783,24.8984214 106.20835,19.9508728 105.622817,13.0606499 C105.009244,5.76856305 101.469799,1.84814512 94.3068019,1.01405985 C86.5425576,0.0651297497 78.3728438,0.457097055 66.2823227,1.90417284 Z" id="Path" fill="#4E6AF0"/><path d="M43.0004642,150.168029 C44.2383743,149.756835 45.4267765,149.150371 46.9919799,148.200372 C47.3350331,147.992157 47.5696602,147.846521 48.2282406,147.435092 C48.6375933,147.17936 48.9952463,146.958045 49.3150954,146.763694 C49.4543575,147.444496 49.624331,148.119175 49.8246328,148.785646 C50.2945941,150.349365 52.3390732,150.721412 53.3297843,149.423502 C54.1943367,148.290869 55.1653678,147.245647 56.228735,146.301773 L56.5160386,146.711709 C57.0200056,147.427837 57.3668575,147.883061 57.7720883,148.327508 C58.4825394,149.106712 59.6759115,149.200473 60.499335,148.541782 C61.6149541,147.649351 62.827287,146.887648 64.1124724,146.270485 C65.7303911,147.951159 67.0096718,148.550272 68.6016262,148.1975 C69.0741822,148.092783 69.4755914,147.922347 69.9973881,147.645379 C70.1226133,147.57891 70.6398476,147.295347 70.5246109,147.35818 C70.7218124,147.250646 70.873149,147.17109 71.0261553,147.095632 C71.6168959,146.804295 72.1819714,146.605561 72.8715497,146.475185 C73.1187778,146.426946 73.4024224,146.457356 73.9315287,146.598784 C74.0421613,146.628355 74.1159535,146.649095 74.3596658,146.718507 C75.8143002,147.132801 76.6198561,147.256546 77.7749311,147.048254 C78.8619677,146.852231 79.584277,145.812106 79.388254,144.725069 C79.192231,143.638032 78.1521056,142.915723 77.0650689,143.111746 C76.6924606,143.178938 76.3502094,143.126363 75.4553342,142.871493 C75.1887341,142.795563 75.1042281,142.771812 74.9644512,142.734451 C73.9000105,142.449929 73.0699427,142.360937 72.1167064,142.547072 C71.0600223,142.746819 70.1561414,143.06471 69.2569257,143.508178 C68.9253887,143.671682 67.9571694,144.199753 68.1220176,144.112252 C67.9092795,144.225173 67.7935577,144.275918 67.7459934,144.289703 L67.7626118,144.287785 C67.8352655,144.278679 67.9092988,144.290537 67.8301454,144.239368 C67.4774307,144.011356 66.9352123,143.481758 66.1706107,142.572665 C65.6178246,141.915416 64.7071479,141.684445 63.9079395,141.998794 C62.4132518,142.586693 60.9865311,143.329909 59.6508471,144.215087 L59.4399924,143.914225 C58.8737121,143.108043 58.4943318,142.609976 58.0337469,142.107939 C57.3418943,141.353819 56.1923763,141.24365 55.3698841,141.852634 C54.5140044,142.48634 53.6987331,143.171014 52.9283048,143.902485 C52.9157272,143.767453 52.9045826,143.632255 52.8948751,143.496914 C52.7957869,142.115444 51.3564406,141.250452 50.0900721,141.811335 C48.9212126,142.32903 48.0081531,142.856184 46.1089236,144.042674 C45.4658341,144.444426 45.2394294,144.584958 44.9165519,144.780928 C44.4793896,145.046263 44.0826334,145.277093 43.7153037,145.477945 C43.5454793,144.079243 42.0170156,143.28783 40.7750846,143.962691 C41.0424907,143.817383 38.1832818,145.334866 37.3210398,145.828388 C34.6018643,147.384766 32.7412749,148.843946 31.587643,150.638485 C30.9903387,151.567625 31.2593447,152.805053 32.1884848,153.402357 C33.1176249,153.999661 34.3550526,153.730655 34.952357,152.801515 C35.6685281,151.687471 37.1049455,150.56095 39.3080615,149.299951 C39.5442264,149.164777 39.9561532,148.939234 40.4132417,148.691845 C40.6518594,149.813687 41.8340422,150.555477 43.0004642,150.168029 Z" id="Path" fill="#FFF"/><path d="M93.5945876,144.856622 C94.1974268,146.354723 96.2354866,146.557597 97.1218201,145.207733 C98.1836579,143.59058 99.9713283,142.603958 101.897301,142.561038 C101.931642,142.595168 101.943809,142.607188 102.008726,142.671324 C102.979451,143.622051 104.085705,143.909904 105.322791,143.44475 C105.379899,143.475341 105.438269,143.505238 105.497929,143.534569 C105.585512,143.577133 105.585512,143.577133 105.653193,143.609398 C105.736188,143.649081 105.718143,143.638208 105.639645,143.557885 C106.411666,144.34784 107.677898,144.362388 108.467866,143.590374 C109.25784,142.818354 109.272394,141.552108 108.500374,140.762134 C108.15281,140.406487 107.866213,140.233808 107.378649,140.000687 C107.330335,139.977626 107.316556,139.971049 107.294976,139.960595 C106.689605,138.947432 105.32285,138.671392 104.36883,139.39842 C103.71049,138.829852 103.032374,138.528789 102.044675,138.561067 C100.113985,138.540009 98.2275296,139.11456 96.6262371,140.165496 C96.1599379,139.147936 95.1305306,138.762413 94.0548126,138.932514 C93.8082923,138.971496 93.5527844,139.034026 93.180398,139.138814 C92.9797013,139.195289 92.0292136,139.473484 92.1117153,139.449501 L92.0091074,139.48235 C89.2096454,140.462481 86.669445,142.065816 84.5802905,144.171304 C83.8022891,144.955388 83.8072199,146.221708 84.5913038,146.999709 C85.3753877,147.777711 86.641708,147.77278 87.4197095,146.988696 C89.0340622,145.361722 90.9868863,144.111571 93.1384202,143.326457 C93.2584575,143.852365 93.4120984,144.403123 93.5945876,144.856622 Z" id="Path" fill="#FFF"/><path d="M23.0221348,106.252384 C23.06854,107.255925 23.8521916,108.069312 24.8533093,108.153041 C26.8943717,108.323748 28.9510965,107.499724 30.5499277,106.116873 C31.1287132,106.980453 32.3120759,107.277137 33.2470865,106.710103 C33.7647948,106.39614 34.2928517,106.099979 34.8303229,105.822096 C35.4843583,107.804901 36.8755451,108.737001 39.7121057,108.534945 C41.5447258,108.404402 42.5828364,107.849292 44.0400971,106.598887 L44.1455181,106.508397 C45.281705,105.533865 45.8259788,105.313043 47.5365486,105.45331 C47.8724421,105.482114 48.068389,105.512595 49.0797322,105.684711 C50.1017807,105.85865 50.7239403,105.9424 51.4344219,105.976407 C53.315639,106.066451 54.9224315,105.680304 56.2928595,104.578956 C57.153847,103.887021 57.290891,102.628128 56.5989558,101.767141 C55.9070206,100.906153 54.6481281,100.769109 53.7871405,101.461044 C53.2809182,101.867871 52.6135076,102.028264 51.6256617,101.980982 C51.1203803,101.956796 50.6230507,101.889849 49.7508265,101.741409 C48.5975518,101.545138 48.3750705,101.51053 47.8708023,101.467307 C44.9695506,101.22939 43.4261928,101.855561 41.5413405,103.472238 L41.4353419,103.563224 C40.5689932,104.306596 40.2298871,104.487927 39.4278943,104.545055 C39.0714202,104.570448 38.80053,104.565854 38.6117475,104.541256 C38.5927623,104.468583 38.5699076,104.372474 38.5405609,104.242003 C38.433811,103.767408 38.4025142,103.637464 38.3219768,103.372493 C38.1635517,102.85127 37.9543089,102.38513 37.6513689,101.941736 C37.1157158,101.157734 36.1026491,100.858429 35.226933,101.225449 C34.6748099,101.456849 34.1297527,101.704267 33.5924448,101.967356 C33.4649269,101.426394 33.3196346,101.030939 33.0771458,100.573413 C32.2410657,98.9959031 29.9139734,99.2211845 29.3960146,100.929776 C29.0103297,102.202035 27.9005034,103.349389 26.7071547,103.873994 C26.5029053,103.02168 26.2033139,102.192652 25.8125263,101.402955 C25.4135944,100.5968 24.5255831,100.156126 23.6423052,100.325987 C20.0094979,101.024604 14.7985787,104.925433 12.8342333,108.279194 C12.2759804,109.232308 12.5960791,110.457514 13.5491938,111.015767 C14.5023084,111.57402 15.7275139,111.253921 16.2857667,110.300806 C17.4177315,108.368184 20.4106492,105.919442 22.8160562,104.80103 C22.9302094,105.275951 22.9994526,105.761866 23.0221348,106.252384 Z" id="Path" fill="#3B3B3B"/><path d="M68.0959419,105.50449 C68.4579624,105.216181 68.9119374,105.068335 69.3743092,105.088163 C70.4778644,105.135489 71.4108377,104.279246 71.4581634,103.175691 C71.5054891,102.072136 70.649246,101.139162 69.5456908,101.091837 C68.1200443,101.030698 66.720288,101.486557 65.6040581,102.37551 C64.7400142,103.063625 64.5973953,104.321898 65.28551,105.185942 C65.9736247,106.049986 67.2318979,106.192605 68.0959419,105.50449 Z" id="Path" fill="#3B3B3B"/><path d="M63.6440794,14.7176499 C62.7911723,13.1210078 60.4250729,13.3884579 59.9500822,15.1351978 C59.8174876,15.6228039 59.7582364,16.0270155 59.7399854,16.5600145 C59.1561547,16.4058423 58.5676976,16.2689228 57.9753777,16.1494704 C57.0446027,15.9617621 56.1101439,16.4543734 55.7390606,17.3283721 C55.6848518,17.4560481 55.6366993,17.5854451 55.5942416,17.7166492 C55.3862355,18.3594357 55.3414615,18.8150949 55.3214374,19.7028951 C55.3177069,19.8682959 55.314017,19.9814699 55.3093413,20.0640486 C55.1311308,20.1242829 54.8691142,20.1813228 54.5178837,20.2259543 C53.7297109,20.3261089 53.3552687,20.2141303 52.3823758,19.6687428 L52.2637249,19.6021505 C50.0676382,18.3697037 48.4455707,18.0538568 45.6395041,18.8572535 C45.3289872,18.9472913 45.0144173,19.0544212 44.6309901,19.1964459 C44.4172545,19.2756154 43.658787,19.5657392 43.6797038,19.5578133 C42.425948,20.0328907 41.6742968,20.2370802 40.9861679,20.25374 C40.5410214,20.2645171 40.1685648,20.1861325 39.8256186,20.0070843 C38.8464643,19.4958792 37.6382893,19.875227 37.1270843,20.8543814 C36.6158792,21.8335357 36.995227,23.0417107 37.9743814,23.5529157 C38.9454692,24.0599094 39.9869979,24.2791023 41.0829807,24.2525682 C42.3492393,24.2219117 43.4453935,23.9241364 45.0970552,23.2982832 C45.0941542,23.2993825 45.8301254,23.0178638 46.0203734,22.9473943 C46.3208761,22.8360856 46.5510415,22.7577004 46.7470489,22.7008583 C48.3983848,22.2280813 48.9668139,22.3387651 50.3061221,23.0903866 L50.4264132,23.1578989 C52.0775822,24.0835167 53.2150304,24.4236754 55.0221163,24.1940457 C57.8574328,23.8337569 59.0107328,22.6593751 59.2660289,20.5782339 C59.8494278,20.7456792 60.4271299,20.9330859 60.9981094,21.1401663 C62.0239904,21.5122284 63.1254767,20.9923048 63.5253358,20.0331715 C65.3621264,21.0778009 67.5389827,21.4860363 69.5094423,20.9230479 C70.4692275,20.6488235 71.0798699,19.7088993 70.940374,18.7205028 C70.8704983,18.2253989 70.8483291,17.7260735 70.8734258,17.2293042 C73.4678177,17.8563637 76.8920956,19.6638062 78.3621245,21.3252808 C79.0940569,22.1525345 80.358027,22.2298078 81.1852808,21.4978755 C82.0125345,20.7659431 82.0898078,19.501973 81.3578755,18.6747192 C78.8017375,15.7856888 72.9286075,13 69.22,13 C68.3209,13 67.5323113,13.5999686 67.2924715,14.4664891 C67.0549935,15.3244766 66.915665,16.2042144 66.8755763,17.0889293 C65.595466,16.8105221 64.2741784,15.8971951 63.6440794,14.7176499 Z" id="Path" fill="#FFF"/><path d="M28.4295621,23.1537223 C27.1684133,22.5186129 25.7236742,22.3486436 24.3495621,22.6737223 C23.2746626,22.9280151 22.6094295,24.0055384 22.8637223,25.0804379 C23.1180151,26.1553374 24.1955384,26.8205705 25.2704379,26.5662777 C25.7284753,26.4579182 26.210055,26.5145746 26.6304379,26.7262777 C27.6169719,27.2230921 28.8194633,26.826096 29.3162777,25.8395621 C29.8130921,24.8530281 29.416096,23.6505367 28.4295621,23.1537223 Z" id="Path" fill="#FFF"/><path d="M21.1006375,71.879818 C21.838539,72.9164539 23.3440957,73.0095412 24.2040774,72.0717011 C26.5391437,69.5252296 28.0159873,68.3526201 28.7294235,68.2706916 C28.7965672,68.262981 28.8115218,68.2694806 28.9833899,68.4683882 C29.3672976,68.9126949 29.7908719,69.7870212 30.2142686,71.1167849 C30.6613583,72.5209609 32.4219168,72.975856 33.4932598,71.9640143 C35.7666088,69.8169247 38.1742333,67.8182512 40.7011223,65.9799189 C40.8378615,66.9143478 41.6108805,67.6274492 42.5560153,67.6861533 C43.5743375,67.7494031 44.3645322,67.5904583 45.6973469,67.1803523 L45.8597294,67.1302323 C46.7356178,66.8594917 47.0998224,66.7701635 47.4847566,66.7461052 C47.5597575,66.7416058 47.631852,66.7373514 47.7011769,66.7333365 C47.8794152,67.6176924 48.3868926,68.5130077 49.2963587,69.4347225 C50.6324945,70.785228 52.3026553,70.9938957 54.1778319,70.4819132 C54.6676241,70.3481844 55.117723,70.186575 55.7623596,69.92912 C56.8277856,69.5036101 57.0988536,69.4109412 57.1854756,69.4098377 C58.2899555,69.3957679 59.1739075,68.4890042 59.1601652,67.3845244 C59.1457679,66.2800445 58.2390042,65.3960925 57.1345244,65.4101623 C56.618603,65.4167345 56.1221177,65.5287902 55.5382509,65.7283942 C55.339842,65.7962234 55.1354089,65.8728552 54.8870375,65.9708288 C54.7525386,66.0238838 54.2958519,66.2076024 54.2787822,66.2144197 C53.7642017,66.419933 53.4328723,66.5388978 53.1242692,66.6231562 C52.501438,66.7932088 52.2827577,66.7658872 52.1417559,66.6233692 C51.5963516,66.0706168 51.5995151,66.0843479 51.6435994,65.9466358 C51.6480096,65.9328589 51.7011486,65.7751255 51.7206582,65.7124472 C51.7891212,65.4924968 51.8323814,65.3005911 51.8453496,65.0509677 C51.900204,63.9950847 51.2418069,63.1363391 50.2824385,62.8309003 C49.6676733,62.6351745 49.124467,62.6405352 47.2402154,62.7535903 C46.4278523,62.8043568 45.8566044,62.9444663 44.6784585,63.3086359 L44.5209796,63.3572436 C44.410606,63.3912055 44.3073424,63.4222856 44.2103717,63.4506318 C44.1474294,63.153296 44.1400292,62.9862838 44.1663478,62.8166747 C44.4328716,61.0990768 42.532518,59.8824805 41.0842037,60.8435023 C38.2101153,62.7505896 35.4677947,64.847311 32.8753574,67.1192748 C31.7455079,65.0653901 30.2767862,64.0667093 28.2730765,64.2968084 C26.827648,64.4627964 25.4358833,65.2770171 23.6863828,66.8918224 C23.4948296,65.9919893 22.6952556,65.31 21.73,65.31 C16.4052133,65.31 11.8550093,67.6287341 9.42813175,72.0351386 C8.89525348,73.0026687 9.24760843,74.21899 10.2151386,74.7518683 C11.1826687,75.2847465 12.39899,74.9323916 12.9318683,73.9648614 C14.346508,71.3963451 16.8348391,69.8431453 19.9586926,69.4248751 C20.1842358,70.3002469 20.5691767,71.1331989 21.1006375,71.879818 Z" id="Path" fill="#3B3B3B"/></g></g></g><g id="Phone/Effect" transform="scale(1 1)"><g id="Phone/Effect/Chat" stroke="none" stroke-width="1" fill="none" fill-rule="evenodd"><g id="addons" transform="translate(403.000000, 53.000000)" fill-rule="nonzero"><path d="M5.9241671,31.6259021 C6.04288338,29.7213636 6.0667169,29.3173846 6.10202038,28.5201255 C6.14880368,27.4800967 6.13582629,26.5950694 6.05950758,23.9920937 C5.99336567,21.7362143 5.97390453,20.5318491 6.00052467,19.1326144 C6.1167488,13.0235228 7.24097425,8.84210683 10.3470901,6.20917484 C12.2659667,4.64654344 14.4384344,3.42429744 16.7426633,2.60550767 C22.0405939,0.634605139 28.0253717,0.0810472285 36.7110944,0.22024173 C45.4281135,0.355783329 53.3734514,0.319115508 67.5229754,0.14018259 C69.8314091,0.10898754 72.2575779,0.156739877 75.0365455,0.27509919 C76.8890424,0.353999089 78.4453197,0.438942115 81.6343069,0.626576563 C82.6335469,0.685370104 82.8417374,0.697587567 83.2849177,0.723304251 C87.4719198,0.964282785 90.937551,1.56360248 93.3748614,2.81150945 C97.0181292,4.68561839 98.666645,8.22024015 99.2521261,13.3314152 C99.3994155,14.6172324 99.4513122,15.4808065 99.5547635,17.8259989 C99.5662234,18.0846863 99.5708547,18.1875234 99.5778371,18.3370118 C99.6551665,19.9984212 99.7428334,21.1730171 100.036417,24.746464 C100.204249,26.7892884 100.292959,27.939731 100.374968,29.2132343 C100.698402,34.2357571 100.652647,38.0040034 100.082105,41.4028712 C98.7953553,49.0262544 94.7476362,54.5605904 88.1132991,56.4075871 C85.4610842,57.1413666 81.3842903,57.5408435 75.9343348,57.7295896 C73.1596257,57.825685 71.101843,57.851332 66.4764456,57.8760058 C64.4713919,57.8867016 63.5915857,57.8959822 62.8670282,57.9188765 C55.0113854,58.1822992 47.1569576,58.1702821 38.0661189,57.9192741 C36.7949307,57.8850151 35.79626,57.9080539 32.5781119,58.0202108 C29.6433363,58.1224918 28.0214838,58.1561554 26.1735737,58.1267092 C19.1139353,58.0142145 14.1712149,56.8397752 10.944006,53.7318809 C7.05661768,49.9951666 5.66410851,44.7760217 5.68895537,37.4964304 C5.68895537,35.8003627 5.75653201,34.3152341 5.9241671,31.6259021 Z" id="Path" fill="#1FAD66"/><path d="M16.2204211,48.006099 C15.6924185,53.1581223 13.9868577,58.1197539 11.235558,62.5075188 C8.17810491,66.9743371 4.72926136,71.25996 0.963891575,75.2589609 C-0.479453735,76.7918619 1.12079903,79.2271346 3.10061028,78.5106301 C10.6966216,75.7615923 17.9971293,72.2561222 24.8920845,68.0470618 C30.0147917,64.9680428 37.8293767,58.2694065 43.7061472,52.2921784 C44.980378,50.9961659 44.0051536,48.8098179 42.189513,48.892048 C40.0168403,48.9904481 36.9909348,48.6360491 30.3848089,47.6303495 L30.056842,47.5803967 C23.2199848,46.5387071 20.662496,46.2142328 18.2134542,46.2099999 C17.1865134,46.2082293 16.3251183,46.9845076 16.2204211,48.006099 Z" id="Path" fill="#1FAD66"/><path d="M37.49,29.03 L37.49,27.36 C37.49,25.7031458 36.1468542,24.36 34.49,24.36 C32.8331458,24.36 31.49,25.7031458 31.49,27.36 L31.49,29.03 C31.49,30.6868542 32.8331458,32.03 34.49,32.03 C36.1468542,32.03 37.49,30.6868542 37.49,29.03 Z" id="Path" fill="#FFF"/><path d="M56.13,29.03 L56.13,27.36 C56.13,25.7031458 54.7868542,24.36 53.13,24.36 C51.4731458,24.36 50.13,25.7031458 50.13,27.36 L50.13,29.03 C50.13,30.6868542 51.4731458,32.03 53.13,32.03 C54.7868542,32.03 56.13,30.6868542 56.13,29.03 Z" id="Path" fill="#FFF"/><path d="M74.78,29.03 L74.78,27.36 C74.78,25.7031458 73.4368542,24.36 71.78,24.36 C70.1231458,24.36 68.78,25.7031458 68.78,27.36 L68.78,29.03 C68.78,30.6868542 70.1231458,32.03 71.78,32.03 C73.4368542,32.03 74.78,30.6868542 74.78,29.03 Z" id="Path" fill="#FFF"/></g></g></g></g></svg>