<svg viewBox="15 45 540.0000000000001 554.9999999999998" xmlns="http://www.w3.org/2000/svg" overflow="visible" xmlns:xlink="http://www.w3.org/1999/xlink" width="540.0000000000001px" height="554.9999999999998px"><g id="Master/Hands/Phone" stroke="none" stroke-width="1" fill="none" fill-rule="evenodd"><g id="base" transform="translate(170.000000, 85.000000)" fill-rule="nonzero"><path d="M198.288013,122.311919 C198.42426,121.623109 198.911741,121.056198 199.572366,120.818295 C204.554953,119.02398 209.652357,117.566123 214.801062,116.461038 C215.046695,116.404457 215.298862,116.345414 215.628286,116.267575 C219.869539,115.265428 221.334087,115.012478 223.490284,115.146658 C226.535115,115.336137 229.091077,116.640261 231.245806,119.303232 C234.338077,123.131283 236.386581,128.221341 237.428949,133.918947 C238.028338,137.280738 237.382802,142.079109 235.682449,144.799603 C233.779906,147.885515 230.686981,150.62464 226.220111,153.610507 C225.422484,154.143679 224.589736,154.679595 223.628295,155.282431 C223.251826,155.518482 222.867077,155.757718 222.389478,156.053191 C222.220534,156.157711 221.426201,156.648369 221.211565,156.781238 C219.427163,157.884208 217.9231,158.886568 214.966203,160.911387 C214.642819,161.132861 214.642819,161.132861 214.318992,161.354596 C209.830636,164.427261 207.464215,165.948085 204.519544,167.531216 C199.820058,169.93092 195.373325,172.796302 191.246217,176.084271 C189.789428,177.24486 187.676597,175.959098 188.038013,174.131919 L198.288013,122.311919 Z" id="Path" fill="#b17606"/><path d="M211.172231,240.750502 C224.318662,238.467268 248.825546,230.922374 253.53903,226.038954 C258.14643,221.3263 259.856329,214.870655 259.78774,206.104845 C259.768112,203.596308 259.635595,201.35222 259.323201,197.413345 L259.22377,196.162265 C258.468014,187.874612 256.898898,179.705681 254.537294,171.750803 C251.797163,162.128754 247.531266,159.933641 235.751617,160.572939 C223.563209,161.376311 211.472289,163.060752 199.551088,165.614364 C198.516321,165.836019 197.833316,166.825382 197.99286,167.871527 L208.85286,239.081527 C209.021822,240.189427 210.06805,240.942273 211.172231,240.750502 Z" id="Path" fill="#b17606"/><path d="M254.567975,193.197239 C251.53808,193.597644 248.03133,194.020023 243.841266,194.494355 C240.734014,194.846109 237.577128,195.191034 232.751264,195.70983 C219.277066,197.158347 216.563979,197.456909 211.536,198.07494 C210.439681,198.209697 209.660182,199.207682 209.79494,200.304 C209.929697,201.400319 210.927682,202.179818 212.024,202.04506 C217.022401,201.430665 219.731723,201.132518 233.178812,199.686914 C238.011601,199.167375 241.17467,198.821773 244.291208,198.468969 C248.503991,197.992065 252.034016,197.566882 255.092025,197.162761 C256.187074,197.018049 256.957474,196.013024 256.812761,194.917975 C256.668049,193.822926 255.663024,193.052526 254.567975,193.197239 Z" id="Path" fill="#744b15"/><path d="M183.647477,216.285913 C176.27238,207.093596 168.897472,200.361278 161.188935,196.373611 C150.379212,190.769814 137.952009,187.160317 126.514028,186.743825 C112.868727,186.246957 101.213163,190.223087 92.8931004,199.200513 C91.0737687,201.167704 89.6227038,203.641503 88.2539879,206.962549 L82.4616924,188.122265 C82.0416595,186.756047 80.3655766,186.25868 79.2683185,187.174652 C75.4381812,190.371984 69.8999884,198.143202 63.0203997,209.383434 C58.3912695,216.946748 53.9799311,224.696071 49.5263216,232.818433 C48.3846545,234.904303 47.2115054,237.237315 46.0036188,239.813344 C43.031622,246.151645 39.9095444,253.816177 36.4681973,263.037132 C34.8344444,267.414708 33.1905431,271.971584 31.2494494,277.467067 C30.4469352,279.739087 27.439992,288.315947 26.754578,290.252779 C17.1392054,317.428141 11.3600226,347.211384 4.94812658,394.511341 C3.69030638,403.803944 2.66766035,417.602445 1.85170246,434.734048 C1.30183536,446.27889 0.878169094,483.64485 0.56472179,496.010318 C0.455025022,500.337846 0.36693523,504.35638 0.298470149,507.963066 C0.274501774,509.225701 0.254697173,510.346773 0.238808831,511.313422 C0.233244809,511.651938 0.230128051,511.848552 0.224744726,512.19707 C0.22094827,512.449065 0.22094827,512.449065 0.218194738,512.501586 C0.204363183,513.616318 1.10301649,514.528806 2.21786069,514.529999 L161.147861,514.7 C162.253265,514.7 163.15,513.805405 163.15,512.7 C163.15,470.141163 165.41429,389.746084 169.425958,370.947405 C172.645309,355.902062 178.526908,337.443709 185.166036,320.905071 C188.281494,313.124894 191.992255,304.707226 196.989543,293.89453 C198.49,293.662806 199.98042,293.369297 201.457,293.014714 C208.578424,291.25795 210.671832,290.707762 214.336265,289.521832 C228.537123,284.925971 237.062171,278.399724 238.579722,267.82408 C239.815719,259.225841 235.878203,247.630218 229.754423,241.756611 C225.363541,237.548681 219.265019,236.450175 211.163281,237.408854 C208.747,237.694773 206.393169,238.116367 202.984897,238.825162 C202.471087,238.932015 200.765702,239.290726 200.524895,239.34104 C200.18307,239.412462 199.872039,239.47693 199.58268,239.536226 C193.363043,229.466034 188.907959,222.842574 183.647477,216.285913 Z" id="Path" fill="#b17606"/><path d="M186.092337,256.94081 C173.884626,258.215242 166.841252,268.196252 170.391476,279.527942 C170.419872,279.619411 171.697036,284.031565 172.183195,285.500178 C173.505538,289.494772 174.896443,292.230829 176.827447,293.866207 C182.134799,298.368164 187.326545,299.233038 194.598316,297.441961 C195.670831,297.177795 196.326128,296.0942 196.061961,295.021684 C195.797795,293.949169 194.7142,293.293872 193.641684,293.558039 C187.535521,295.06202 183.659597,294.416343 179.413746,290.814804 C178.2142,289.798902 177.083209,287.574124 175.980541,284.243131 C175.523219,282.861632 174.260658,278.499923 174.21003,278.336885 C171.433661,269.475182 176.752794,261.937555 186.507663,260.91919 C187.606262,260.804501 188.403879,259.820937 188.28919,258.722337 C188.174501,257.623738 187.190937,256.826121 186.092337,256.94081 Z" id="Path" fill="#744b15"/><path d="M176.232218,262.778741 L176.225599,262.779914 C165.900548,264.591326 135.760604,266.109217 122.3471,265.80954 C120.975512,265.780113 119.592223,265.76465 117.615869,265.752684 C117.27926,265.750645 117.009487,265.749145 116.402385,265.745866 C103.273546,265.674957 97.7082324,265.207538 91.5926127,262.922789 C83.3023441,259.825607 77.9588039,253.654973 75.6493036,243.451343 C73.17576,232.518494 71.4086788,220.741722 69.8144322,205.839536 C69.2198732,200.281907 68.9105938,197.056892 67.8332076,185.473699 C67.612872,183.104827 67.4564712,181.43574 67.2989278,179.778763 C65.8929297,164.948312 64.6236078,148.572835 62.8050456,122.837572 C62.977358,125.276039 61.0885583,98.380368 60.5844093,91.3794013 C59.8823547,81.6301788 59.280397,73.6601097 58.6964108,66.4800061 C57.2447756,48.3934164 57.0303859,30.304287 59.4479415,23.0517982 C62.3907835,13.9973799 70.3051423,7.46219897 79.7033191,6.29212729 C103.592776,2.70870878 133.615969,-0.00115940172 149.541922,0.330439415 C150.966881,0.360314656 152.226429,0.373126052 154.961925,0.391324166 C163.026693,0.444975708 166.783422,0.541236832 171.532576,0.930363541 C186.574746,2.16285895 197.078452,6.02075615 203.117884,14.3142232 C206.410186,18.8444739 208.357339,25.3857318 209.573992,34.2039471 C209.8786,36.4117213 210.132935,38.7189021 210.379545,41.3951015 C210.474079,42.420982 210.56345,43.452888 210.675109,44.7904371 C210.654497,44.5435294 210.880163,47.264582 210.939288,47.958191 C211.013179,48.8250282 211.077597,49.5467287 211.14165,50.2174321 C211.190412,50.7495501 211.190412,50.7495501 211.239167,51.2821836 C213.248386,73.2376938 213.307264,73.8708707 214.137298,82.0732005 C214.702691,87.6603791 215.260653,92.8281824 215.836172,97.7652243 C221.064074,141.992592 224.197849,179.300002 225.36893,215.48458 C225.903372,231.814758 223.467011,242.919485 214.998845,250.190855 C210.981161,253.62205 204.438026,256.373641 195.854463,258.690105 C192.320571,259.643803 188.58983,260.482929 184.542411,261.27158 C183.019046,261.568412 181.520591,261.844984 179.827256,262.145829 C179.132054,262.269341 176.722573,262.691014 176.232218,262.778741 Z" id="Path" fill="#1A4E66"/><path d="M171.79,254.43 C159.933944,255.745924 148.007827,256.327034 136.08,256.17 C118.67,255.79 104.02,258.11 99.29,237.22 C95.08,218.62 93.53,194.53 91.72,175.47 C88.78,144.47 86.42,101.47 83.89,70.31 C83.21,61.91 81.24,33.04 84.49,25.47 C87.74,17.9 95.71,15.55 101.44,14.47 C115.21,11.81 131.99,9.74 147.74,10.07 C162.07,10.37 185.51,8.88 195.07,22.07 C200.69,29.81 201.16,48.71 202.07,57.86 C203.43,72.09 204.7,86.76 206.41,101.2 C210.61,136.74 213.91,177.2 215.08,213.2 C215.41,223.2 214.78,236.06 206.27,243.36 C198.32,250.15 178.66,253.59 171.79,254.43 Z" id="Path" fill="#FFF"/><path d="M76.7881757,12.3375179 C71.8904036,15.6130191 70.3166479,23.9603027 70.5390231,37.137083 C70.5954498,40.4806288 70.7552664,43.7853813 71.0477839,48.3769931 C71.0892379,49.027692 71.2655284,51.7330203 71.3080981,52.4061529 C71.3988993,53.8419415 71.4597356,54.9071252 71.5020519,55.8405736 C71.89653,64.3846251 72.4931522,74.2960025 73.4043509,87.9685221 C73.5325794,89.8925876 73.6679944,91.9067457 73.8229602,94.1976211 C73.9250633,95.707023 74.5346073,104.677899 74.7045316,107.197838 C75.0318729,112.052236 75.2830827,115.857886 75.5040212,119.336762 C77.5619528,152.069005 80.673107,186.986615 84.8415089,225.67425 C85.9837223,236.363885 88.3723137,246.376881 91.9824828,253.376751 C92.4887904,254.358447 93.6950554,254.743825 94.676751,254.237517 C95.6584467,253.73121 96.0438249,252.524945 95.5375172,251.543249 C92.1978287,245.067822 89.9131707,235.490516 88.8186794,225.247505 C84.6560199,186.613159 81.5499789,151.752935 79.4960588,119.084504 C79.274655,115.598295 79.0231302,111.787873 78.6954684,106.928722 C78.5254596,104.40753 77.9158759,95.4360699 77.8138398,93.9276589 C77.6589576,91.6380173 77.5236288,89.6251426 77.3954974,87.702534 C76.4859703,74.055097 75.890723,64.1665599 75.4978717,55.6577583 C75.4543423,54.6975344 75.3922991,53.6112202 75.3001231,52.1536921 C75.2572482,51.4757342 75.0808765,48.7691599 75.0396913,48.122681 C74.7508134,43.5881975 74.5936002,40.3372797 74.5384536,37.0695874 C74.3408123,25.358406 75.75865,17.8381195 79.0118243,15.6624821 C79.9299878,15.0484385 80.1765257,13.8063392 79.5624821,12.8881757 C78.9484385,11.9700122 77.7063392,11.7234743 76.7881757,12.3375179 Z" id="Path" fill="#0D323F"/><path d="M51.2333477,296.359456 C49.7183993,296.324108 48.791554,294.682419 49.5439143,293.367021 C52.1390052,288.829864 55.0915964,284.029122 58.7512059,278.335795 C60.2541149,275.997689 61.8126785,273.605596 63.8856071,270.447472 C64.547735,269.438715 66.9751976,265.746037 66.782301,266.039591 C67.9415576,264.275414 68.8062492,262.956438 69.6448847,261.671681 C71.7856,258.392189 73.5346642,255.672648 75.146124,253.106617 C87.6808035,233.139977 100.731275,217.213471 114.800292,206.242718 C122.85813,199.960527 132.413943,201.578929 138.462049,210.133965 C141.631112,214.607936 141.77772,219.678492 139.67312,225.715111 C138.845954,228.087666 137.829269,230.292249 136.025898,233.830576 C133.697807,238.398435 133.704648,238.384748 133.041039,239.894547 C130.629865,245.382046 129.080954,254.831478 128.738559,263.635919 C128.595668,267.397505 129.033892,271.686435 129.989018,276.567164 C130.730002,280.35362 131.730072,284.289617 133.133681,289.167282 C133.427207,290.187312 133.730879,291.224064 134.115086,292.522178 C134.215955,292.862982 134.874137,295.080426 135.058148,295.70369 C135.44199,297.003799 134.448567,298.301076 133.093348,298.270022 L51.2333477,296.359456 Z" id="Path" fill="#b17606"/><path d="M68.2053619,81.3938712 C67.823324,75.7940001 67.5363258,70.238714 67.3488206,64.7813244 C67.3108921,63.6774063 66.3852425,62.813251 65.2813244,62.8511794 C64.1774063,62.8891079 63.313251,63.8147575 63.3511794,64.9186756 C63.540249,70.4215949 63.8295694,76.0218319 64.2146381,81.6661288 C64.28982,82.7681367 65.2441209,83.6005437 66.3461288,83.5253619 C67.4481367,83.45018 68.2805437,82.4958791 68.2053619,81.3938712 Z" id="Path" fill="#0D323F"/><path d="M70.2314934,108.935734 C69.7363296,103.584155 69.3505696,97.901614 69.0576894,91.8138912 C69.00461,90.7105978 68.0671846,89.8592312 66.9638912,89.9123106 C65.8605978,89.96539 65.0092312,90.9028154 65.0623106,92.0061088 C65.3578878,98.1498923 65.747592,103.890535 66.2485066,109.304266 C66.3502741,110.404138 67.3243949,111.213261 68.4242663,111.111493 C69.5241377,111.009726 70.3332609,110.035605 70.2314934,108.935734 Z" id="Path" fill="#0D323F"/><path d="M128.299043,267.779977 C128.953199,274.635526 130.571305,280.016487 133.810201,287.790092 C133.98855,288.218145 134.169496,288.64938 134.414513,289.231108 C134.564421,289.586901 134.564421,289.586901 134.713376,289.940325 C134.861788,290.292607 134.921969,290.435575 135.008986,290.642689 C135.480178,291.7642 135.821522,292.590095 136.143405,293.393678 C136.554127,294.419047 137.718309,294.917316 138.743678,294.506595 C139.769047,294.095873 140.267316,292.931691 139.856595,291.906322 C139.524842,291.0781 139.175836,290.233667 138.69673,289.093319 C138.609074,288.884684 138.548402,288.74055 138.39949,288.387084 C138.25035,288.03322 138.25035,288.03322 138.100878,287.678462 C137.857686,287.101066 137.678532,286.6741 137.502526,286.251674 C134.404226,278.815509 132.889609,273.778698 132.280957,267.400023 C132.176035,266.300448 131.199598,265.494122 130.100023,265.599043 C129.000448,265.703965 128.194122,266.680402 128.299043,267.779977 Z" id="Path" fill="#744b15"/><path d="M51.3060857,290.422979 C53.8469498,285.980629 56.7480184,281.263577 60.347445,275.66429 C61.8464418,273.332443 63.4032637,270.943635 65.4765595,267.786066 C66.1393545,266.776649 68.5598219,263.095978 68.3843614,263.362901 C69.5499738,261.589687 70.4205742,260.262114 71.2653047,258.968326 C73.4260423,255.658944 75.193381,252.910917 76.823931,250.313296 C77.411173,249.377763 77.128828,248.143311 76.1932957,247.556069 C75.2577634,246.968827 74.023311,247.251172 73.436069,248.186704 C71.8199126,250.761395 70.0647517,253.490487 67.9159948,256.78152 C67.0739365,258.071215 66.2053851,259.395663 65.041849,261.165718 C65.2180281,260.897702 62.7966249,264.579796 62.1329222,265.590596 C60.0531461,268.758034 58.4899299,271.156653 56.9826996,273.501309 C53.3489543,279.153982 50.4137319,283.926567 47.8339143,288.437021 C47.2855074,289.395835 47.6182078,290.617679 48.5770214,291.166086 C49.5358351,291.714493 50.7576788,291.381792 51.3060857,290.422979 Z" id="Path" fill="#744b15"/><path d="M134.373182,348.86945 C136.42131,349.338884 138.427675,349.974816 140.372268,350.770903 C141.394494,351.189387 142.56242,350.699957 142.980903,349.677732 C143.399387,348.655506 142.909957,347.48758 141.887732,347.069097 C139.741574,346.190493 137.527242,345.488644 135.266818,344.97055 C134.190166,344.72378 133.117321,345.396531 132.87055,346.473182 C132.62378,347.549834 133.296531,348.622679 134.373182,348.86945 Z" id="Path" fill="#744b15"/></g><g id="Phone/Wear" transform="scale(1 1)"><g id="Phone/Wear/Cloud" stroke="none" stroke-width="1" fill="none" fill-rule="evenodd"><g id="clothing" transform="translate(17.000000, 393.000000)" fill-rule="nonzero"><path d="M530.72,122.72 C529.345056,121.745776 527.705036,121.215386 526.02,121.2 C527.389268,117.983122 527.618596,114.395021 526.67,111.03 C525.597339,107.397922 522.843859,104.503046 519.27,103.25 C513.35,101.08 508.71,103.5 505.11,107.12 C505.860693,100.894233 504.739688,94.5859642 501.89,89 C501.56,88.41 493.89,74.6 486.02,72.59 C479.58,70.93 474.28,71.98 470.27,75.72 C461.59,83.8 461.39,103.06 462.85,115.59 C461.687227,115.185554 460.460629,114.995804 459.23,115.03 C452.59,115.16 443.46,121.03 440.8,126.91 C439.8,129.13 438.64,132.36 440.27,134.91 C441.9,137.46 445.44,137.91 450.27,137.84 C454.32,137.84 458.38,137.84 462.27,137.93 C465.27,137.99 468.37,138.04 471.48,138.04 C474.59,138.04 477.48,137.99 480.48,137.84 L484.48,137.64 C494.02,137.18 505.91,136.64 514.48,135.28 L517.09,134.88 C525.64,133.61 532.39,132.6 532.33,126.21 C532.375219,124.857565 531.778201,123.563408 530.72,122.72 L530.72,122.72 Z" id="Path" fill="#91D5DD"/><path d="M101,33.68 C100.0612,33.2405971 99.0365317,33.0151702 98,33.02 C98.4515865,31.2130477 98.2275458,29.303367 97.37,27.65 C95.61,24.33 91.37,22.42 86.15,22.65 C79.15,22.96 72.48,26.94 67.57,32.06 L67.93,31.06 C69.75,25.99 71.62,20.74 69.71,13.87 C67.9,7.4 64.5,0.06 53.88,0.54 C44.21,0.98 34.09,7.72 26.8,18.54 C20.8,27.54 18.01,37.49 19.11,45.69 C15.0800256,44.457427 10.7259348,44.8709039 7,46.84 C3,48.84 0.59,52.05 0.76,54.97 C0.83,56.3 1.52,58.75 5.31,60.16 C7.20094289,60.7538363 9.17927635,61.0209959 11.16,60.95 C13.37,60.95 15.74,60.75 17.96,60.57 C19.76,60.42 21.46,60.28 22.73,60.28 L50.25,60.28 C53.06,60.28 55.92,60.33 58.95,60.39 C72.36,60.64 87.57,60.92 100.15,56.33 L100.4,56.22 C104.48,54.07 106.85,49.71 106.75,44.56 C106.65,39.65 104.33,35.28 101,33.68 Z" id="Path" fill="#91D5DD"/><path d="M356,116.18 C379.27,91.97 396.77,28.18 347,17.01 C343.71,16.27 340.43,15.69 337.17,15.25 C331.001577,30.7376666 326.049909,46.6826377 322.36,62.94 C319.7,75.4 318.04,101.94 317.1,127.67 C304.62,133.96 293.39,148.09 290.29,157.88 C289.18,148.53 275.75,136.3 259.37,138.98 C242.99,141.66 225.43,161.87 224.28,174.46 C220.17,152.78 193.48,135.72 173.35,131.93 C167.11066,130.790838 160.703157,130.95426 154.53,132.41 C155.26,115.56 156.34,97.93 157.88,86.51 C159.88,71.71 162.14,55.94 165.03,40.14 L164.85,40.14 C153.43,41.04 140.85,43.74 131.09,49.71 C118.77,57.26 105.24,69.51 99.31,83.01 C92.7,98.07 86.59,120.23 92.31,141.07 C78.16,132.91 62.09,139.01 57.5,149.44 C50.59,165.11 58.16,188.66 78.69,195.83 C99.22,203 129.15,207 164.32,207 L278.52,207 C320.24,207 354.37,204.52 368.11,201.11 C398.32,193.59 418.78,178.76 425.96,151.45 C435,116.92 395.13,82.37 356,116.18 Z" id="Path" fill="#91D5DD"/><path d="M259.116873,136.996275 C245.332034,139.253048 229.598963,153.96296 224.211866,167.157508 C216.79722,149.356185 194.909842,133.940887 173.790051,129.964533 C159.467351,127.266764 144.012535,131.689236 131.945063,141.03901 C131.071906,141.715525 130.912496,142.971781 131.58901,143.844937 C132.265525,144.718094 133.521781,144.877504 134.394937,144.20099 C145.601439,135.518288 159.917049,131.421805 173.049797,133.895439 C195.40842,138.105036 218.831332,156.087145 222.384998,174.832516 C222.81694,177.110982 226.130759,176.95136 226.341708,174.641927 C227.49076,162.062313 245.199398,143.328013 259.763127,140.943725 C266.839532,139.785217 273.802459,141.568502 279.47315,145.550513 C284.497218,149.07846 287.882989,153.980234 288.373946,158.115777 C288.62778,160.253925 291.61741,160.53613 292.266854,158.483247 C294.906472,150.139454 303.491996,139.112285 312.904515,132.554769 C323.855492,124.925441 334.037078,124.158495 341.62235,131.780768 C342.401496,132.563715 343.667822,132.566796 344.450768,131.78765 C345.233715,131.008504 345.236796,129.742178 344.45765,128.959232 C335.270731,119.727498 322.991331,120.652466 310.617985,129.272731 C302.34875,135.033742 294.728195,143.937462 290.631566,152.03673 C285.865214,142.400791 272.453996,134.8128 259.116873,136.996275 Z" id="Path" fill="#1A4E66"/></g></g></g><g id="Phone/Item" transform="scale(1 1)"><g id="Phone/Item/Alarm" stroke="none" stroke-width="1" fill="none" fill-rule="evenodd"><g id="items" transform="translate(264.000000, 162.000000)" fill-rule="nonzero"><path d="M38.7126966,86.4148902 C38.6655822,86.5174177 38.5763442,86.7112846 38.451247,86.982534 C38.2425834,87.4349811 38.0095173,87.9392261 37.7578617,88.4822923 C37.0389746,90.0336326 36.3153488,91.5848482 35.6336447,93.0318109 L35.5126615,93.2884394 C34.0428816,96.4040706 32.9798642,98.5801152 32.5937758,99.2399752 C32.0359545,100.193343 32.3566079,101.418403 33.3099752,101.976224 C34.2633425,102.534045 35.4884029,102.213392 36.0462242,101.260025 C36.521129,100.448369 37.5883155,98.2637905 39.130324,94.9950496 L39.2521672,94.7365968 C39.9378942,93.2810953 40.6649496,91.7225278 41.387128,90.1640851 C41.6398454,89.6187272 41.8739236,89.1122928 42.0835676,88.6577197 C42.2094549,88.3847571 42.2991481,88.1899012 42.3473034,88.0851098 C42.8085218,87.0814408 42.3687787,85.893915 41.3651098,85.4326966 C40.3614408,84.9714782 39.173915,85.4112213 38.7126966,86.4148902 Z" id="Path" fill="#3B3B3B"/><path d="M75.3557655,85.9407379 C78.0288843,89.4098256 80.4839404,93.0416043 82.7067529,96.8150958 C83.2673748,97.7668189 84.4933727,98.083869 85.4450958,97.5232471 C86.3968189,96.9626252 86.713869,95.7366273 86.1532471,94.7849042 C83.8463646,90.8686937 81.2984546,87.0995558 78.5242345,83.4992621 C77.8500396,82.6243135 76.5942106,82.4615706 75.7192621,83.1357655 C74.8443135,83.8099604 74.6815706,85.0657894 75.3557655,85.9407379 Z" id="Path" fill="#3B3B3B"/><path d="M19.4679506,30.1150405 C21.0703269,31.4533281 22.6853487,32.942696 25.0617542,35.2339726 C25.395302,35.5555719 25.6993191,35.8496558 26.2409896,36.3743083 C29.6756705,39.7010803 31.1088364,41.0483103 32.9749016,42.6340472 C33.8166096,43.3493104 35.0787841,43.2468065 35.7940472,42.4050984 C36.5093104,41.5633904 36.4068065,40.3012159 35.5650984,39.5859528 C33.7893284,38.0769464 32.3932849,36.7646128 29.0239222,33.5011069 C28.4801846,32.9744522 28.1744818,32.6787377 27.838135,32.3544397 C25.3983611,30.0020648 23.7249687,28.4588676 22.0320494,27.0449595 C21.18427,26.3369032 19.9230158,26.4501711 19.2149595,27.2979506 C18.5069032,28.14573 18.6201711,29.4069842 19.4679506,30.1150405 Z" id="Path" fill="#3B3B3B"/><path d="M74.6124585,38.5213088 C74.6314064,38.4779758 74.6314064,38.4779758 74.7255423,38.2638868 C74.8188672,38.0519536 74.9276527,37.8058558 75.0507807,37.5284486 C75.4029747,36.734956 75.7991576,35.8504101 76.2303722,34.8976787 C77.4619694,32.1765706 78.7267086,29.4559217 79.9522911,26.9198163 C80.2904826,26.2199946 80.6216248,25.5427989 80.9447559,24.8906552 C82.8926695,20.9593731 84.4783749,18.0834652 85.500285,16.6961628 C86.1553846,15.806827 85.9654987,14.5548146 85.0761628,13.899715 C84.186827,13.2446154 82.9348146,13.4345013 82.279715,14.3238372 C81.0733731,15.9615165 79.4117865,18.975046 77.3606057,23.1147421 C77.031445,23.7790546 76.6945412,24.468033 76.350783,25.179374 C75.1089674,27.7490707 73.830652,30.4989241 72.5862522,33.2483182 C72.1508678,34.2102627 71.7507338,35.10363 71.3947324,35.9057006 C71.269992,36.1867405 71.1596291,36.436407 71.0647556,36.6518568 C70.9684632,36.8708491 70.9684632,36.8708491 70.9475415,36.9186912 C70.5049909,37.9307301 70.9666523,39.1099079 71.9786912,39.5524585 C72.9907301,39.9950091 74.1699079,39.5333477 74.6124585,38.5213088 Z" id="Path" fill="#3B3B3B"/><path d="M47.54,27.88 C39.6310082,30.04484 32.9662417,35.3781005 29.12,42.62 C25.28,49.48 24.25,55.22 24.86,62.93 C25.43,70.29 28.13,77.5 34.23,82.43 C46.9,92.67 65.96,92.62 79.32,82.5 C91.51,73.26 93.11,53.89 86.44,41.06 C81.71,31.98 72.62,26.84 62.52,26.43 C57.8897319,26.0784135 53.2329738,26.4563533 48.72,27.55 C48.33,27.65 47.93,27.76 47.54,27.88 Z" id="Path" fill="#FFF"/><path d="M27.3536658,41.6818831 C23.4424878,48.668041 22.2068039,54.7530246 22.8662304,63.0877431 C23.5333675,71.7020404 26.8468197,79.0344604 32.972851,83.9854988 C46.3333417,94.7835591 66.4077883,94.7898177 80.5276235,84.0942539 C92.8923657,74.7217997 95.7681506,54.6671578 88.2145242,40.1374687 C83.258304,30.6232011 73.6705393,24.8809985 62.6011213,24.4316458 C57.8323076,24.0682957 52.9655017,24.4632828 48.2489657,25.6062596 C47.7847498,25.7251126 47.3718079,25.8398466 46.9819967,25.9591829 C38.5544503,28.2748209 31.4536161,33.9622879 27.3536658,41.6818831 Z M48.1281717,29.791558 C48.4618293,29.6888942 48.8241558,29.5879931 49.2167507,29.4873277 C53.5004459,28.4494237 57.9471563,28.0885313 62.3685715,28.4242591 C72.114111,28.8211111 80.3919334,33.7787769 84.6662385,41.9839969 C91.3748631,54.8882942 88.8064154,72.799682 78.1118567,80.90614 C65.4383894,90.5061016 47.3974139,90.500477 35.48716,80.8745101 C30.2924278,76.6761446 27.4420697,70.3685169 26.854029,62.7755711 C26.2551698,55.2063485 27.3303543,49.9117256 30.8651855,43.5968969 C34.474005,36.8030678 40.6907201,31.8283458 48.0680149,29.8090413 L48.1281717,29.791558 Z" id="Path" fill="#3B3B3B"/><path d="M49.4109242,51.0855291 C48.8672159,50.1240432 47.6470149,49.7853675 46.6855291,50.3290758 C45.7240432,50.8727841 45.3853675,52.0929851 45.9290758,53.0544709 C48.4169787,57.4540424 51.2655291,61.6396675 54.4454293,65.5682964 C55.4007047,66.7484978 57.271005,66.4756345 57.8492736,65.0717001 C60.2528456,59.2362504 62.2840689,53.2542978 63.9307235,47.1618304 C64.1347246,46.4310749 64.3647056,45.6171625 64.6131073,44.746412 C64.6684345,44.5525525 64.6684345,44.5525525 64.723819,44.3588223 C65.1686276,42.803557 65.6454481,41.1589513 66.1222995,39.5292987 C66.2892197,38.9588446 66.4442061,38.4310572 66.5832708,37.958937 C66.6666407,37.6758988 66.7262271,37.4741426 66.7577359,37.3677052 C67.0712708,36.3085689 66.4668415,35.1957991 65.4077052,34.8822641 C64.3485689,34.5687292 63.2357991,35.1731585 62.9222641,36.2322948 C62.8900516,36.3411112 62.8301605,36.5438992 62.7462619,36.8287322 C62.6065457,37.3030641 62.4508906,37.8331289 62.2832737,38.4059641 C61.8043051,40.042852 61.3253055,41.6949738 60.8780153,43.2589158 C60.8222691,43.4539115 60.8222691,43.4539115 60.7665635,43.6490966 C60.5161741,44.526815 60.284144,45.3479793 60.0736074,46.1024021 C58.7694583,50.9274237 57.2216311,55.6712127 55.4341686,60.3234746 C53.234642,57.3749454 51.2227686,54.2895686 49.4109242,51.0855291 Z" id="Path" fill="#3B3B3B"/><path d="M10.8566435,57.798289 C8.9110168,62.595265 8.80812296,69.0004064 10.5687685,75.5399469 C11.8714352,80.6330228 14.8077115,85.1865451 18.9290239,88.4904675 C19.7908463,89.1813625 21.0495724,89.0427985 21.7404675,88.1809761 C22.4313625,87.3191537 22.2927985,86.0604276 21.4309761,85.3695325 C17.9861204,82.6079035 15.5317934,78.8017793 14.43761,74.5243515 C12.8833822,68.7508984 12.9721541,63.2248482 14.5633565,59.301711 C14.9785151,58.2781305 14.4852916,57.111802 13.461711,56.6966435 C12.4381305,56.2814849 11.271802,56.7747084 10.8566435,57.798289 Z" id="Path" fill="#EAF3F3"/><path d="M0.169998862,70.6545982 C0.226111049,78.3345129 2.69703942,85.292127 7.37484222,90.043184 C8.14979933,90.8302769 9.41609107,90.8401149 10.203184,90.0651578 C10.9902769,89.2902007 11.0001149,88.0239089 10.2251578,87.236816 C6.33442508,83.2851546 4.21887228,77.3282033 4.16994672,70.6254018 C4.16188439,69.5208618 3.25994192,68.6319909 2.15540185,68.6399989 C1.05086177,68.6481156 0.161990941,69.5500581 0.169998862,70.6545982 Z" id="Path" fill="#EAF3F3"/><path d="M97.9701638,49.1863925 C100.018413,52.7991719 100.505627,58.8929774 99.8108627,65.5318345 C99.2865414,70.5420161 96.6066824,77.5377968 93.8482497,80.8760274 C93.1446541,81.7275126 93.2645423,82.9881546 94.1160274,83.6917503 C94.9675126,84.3953459 96.2281546,84.2754577 96.9317503,83.4239726 C100.222422,79.4416311 103.186904,71.7028416 103.789137,65.9481655 C104.564193,58.5420797 104.021056,51.7488227 101.449836,47.2136075 C100.905067,46.2527225 99.6844925,45.9153943 98.7236075,46.4601638 C97.7627225,47.0049334 97.4253943,48.2255075 97.9701638,49.1863925 Z" id="Path" fill="#EAF3F3"/><path d="M108.31386,60.2465544 C109.341955,65.0744893 108.391,70.8760735 106.169429,75.6103927 C105.700204,76.6103434 106.130442,77.8013458 107.130393,78.270571 C108.130343,78.7397962 109.321346,78.3095581 109.790571,77.3096073 C112.358864,71.8364008 113.451751,65.1689177 112.22614,59.4134456 C111.996083,58.3330995 110.933792,57.6438037 109.853446,57.8738603 C108.773099,58.103917 108.083804,59.1662083 108.31386,60.2465544 Z" id="Path" fill="#EAF3F3"/><path d="M39.0910866,18.4568313 C39.6249988,19.2232939 39.5572595,20.2572553 38.9279117,20.9475077 C36.9591736,23.1067688 34.6053656,25.6385477 33.2416661,27.0462174 C33.0198383,27.2769183 32.8424055,27.4616259 32.4425532,27.8780054 C29.8295747,30.598987 28.6656462,31.7946326 27.1907873,33.247258 C22.5171041,37.7698277 18.3339615,42.7731943 14.7109145,48.1741648 C13.9490045,49.3099638 12.2973415,49.3630526 11.4640644,48.2785272 C11.3411311,48.1185271 11.2155712,47.9569877 11.0867921,47.7930728 C10.385784,46.9008037 7.65016244,43.6154225 7.02186889,42.8128877 C3.40256532,38.189862 1.93196236,34.3590584 2.42641715,28.8042676 C3.06227397,23.8722587 5.28492101,19.280839 8.79064561,15.6910818 C12.2417181,12.3114108 17.8826035,9.82414318 22.3021117,10.0231447 C25.5734795,10.2068129 28.7881616,10.956784 31.8030844,12.2396797 L31.9014883,12.2847345 C34.7825069,13.6993353 37.2565446,15.823237 39.0910866,18.4568313 Z" id="Path" fill="#EAF3F3"/><path d="M62.5825844,17.9353306 C62.7252801,17.9992322 62.9936901,18.1195386 63.3693778,18.2881011 C63.9957156,18.5691246 64.6936818,18.8826553 65.4453551,19.2207752 C67.5928437,20.1867651 69.7402657,21.1561697 71.7440801,22.0655677 L71.9311185,22.1504674 C74.5145736,23.3233547 76.6515855,24.3024659 78.1942291,25.0223663 C78.6660924,25.2419255 80.3262389,26.0137793 80.1931111,25.9518704 C80.9681773,26.3123021 81.5356306,26.5765351 82.0820771,26.8316199 C83.4603123,27.4749891 84.5789236,28.0016962 85.6382761,28.5072914 C86.2760255,28.811669 86.8860234,29.1054697 87.4807531,29.3948766 C90.0267493,30.6338073 92.3838054,31.836929 94.9231991,33.2016946 C95.8129093,33.6798584 96.9195058,33.4195864 97.5028019,32.594971 C103.36386,24.3090943 104.811557,13.8704375 99.159176,7.26919089 C95.7022002,3.48491922 91.0780743,1.07521851 86.0601218,0.41698799 C78.8434734,-0.537189986 73.7951649,0.666542961 68.5716701,4.73164466 C66.558416,6.26210938 64.9719449,8.51309259 63.2815255,11.8002134 C63.0046859,12.3385446 62.730327,12.8928941 62.3980895,13.5800862 C62.2787329,13.8269605 61.7418174,14.9457214 61.6003718,15.237453 C61.1080804,16.252804 61.5527321,17.4741444 62.5825844,17.9353306 Z" id="Path" fill="#EAF3F3"/></g></g></g><g id="Phone/Effect" transform="scale(1 1)"><g id="Phone/Effect/Pop" stroke="none" stroke-width="1" fill="none" fill-rule="evenodd"><g id="addons" transform="translate(371.000000, 45.000000)" fill="#CCC9C6" fill-rule="nonzero"><path d="M5.4335608,26.3112693 L15.7435608,4.3212693 C16.3296836,3.07113919 15.7913994,1.58256205 14.5412693,0.996439203 C13.2911392,0.410316355 11.8025621,0.948600596 11.2164392,2.1987307 L0.906439203,24.1887307 C0.320316355,25.4388608 0.858600596,26.9274379 2.1087307,27.5135608 C3.35886081,28.0996836 4.84743795,27.5613994 5.4335608,26.3112693 Z" id="Path"/><path d="M46.0551575,15.7769153 L24.0451575,31.5269153 C22.9223158,32.3304027 22.663428,33.8920008 23.4669153,35.0148425 C24.2704027,36.1376842 25.8320008,36.396572 26.9548425,35.5930847 L48.9648425,19.8430847 C50.0876842,19.0395973 50.346572,17.4779992 49.5430847,16.3551575 C48.7395973,15.2323158 47.1779992,14.973428 46.0551575,15.7769153 Z" id="Path"/><path d="M33.6686192,61.6595272 L53.7186192,61.2695272 C55.09907,61.2426755 56.1963788,60.1018315 56.1695272,58.7213808 C56.1426755,57.34093 55.0018315,56.2436212 53.6213808,56.2704728 L33.5713808,56.6604728 C32.19093,56.6873245 31.0936212,57.8281685 31.1204728,59.2086192 C31.1473245,60.58907 32.2881685,61.6863788 33.6686192,61.6595272 Z" id="Path"/></g></g></g></g></svg>