<svg viewBox="15 30 540.0000000000001 569.9999999999999" xmlns="http://www.w3.org/2000/svg" overflow="visible" xmlns:xlink="http://www.w3.org/1999/xlink" width="540.0000000000001px" height="569.9999999999999px"><g id="Master/Hands/Phone" stroke="none" stroke-width="1" fill="none" fill-rule="evenodd"><g id="base" transform="translate(170.000000, 85.000000)" fill-rule="nonzero"><path d="M198.288013,122.311919 C198.42426,121.623109 198.911741,121.056198 199.572366,120.818295 C204.554953,119.02398 209.652357,117.566123 214.801062,116.461038 C215.046695,116.404457 215.298862,116.345414 215.628286,116.267575 C219.869539,115.265428 221.334087,115.012478 223.490284,115.146658 C226.535115,115.336137 229.091077,116.640261 231.245806,119.303232 C234.338077,123.131283 236.386581,128.221341 237.428949,133.918947 C238.028338,137.280738 237.382802,142.079109 235.682449,144.799603 C233.779906,147.885515 230.686981,150.62464 226.220111,153.610507 C225.422484,154.143679 224.589736,154.679595 223.628295,155.282431 C223.251826,155.518482 222.867077,155.757718 222.389478,156.053191 C222.220534,156.157711 221.426201,156.648369 221.211565,156.781238 C219.427163,157.884208 217.9231,158.886568 214.966203,160.911387 C214.642819,161.132861 214.642819,161.132861 214.318992,161.354596 C209.830636,164.427261 207.464215,165.948085 204.519544,167.531216 C199.820058,169.93092 195.373325,172.796302 191.246217,176.084271 C189.789428,177.24486 187.676597,175.959098 188.038013,174.131919 L198.288013,122.311919 Z" id="Path" fill="#b17606"/><path d="M211.172231,240.750502 C224.318662,238.467268 248.825546,230.922374 253.53903,226.038954 C258.14643,221.3263 259.856329,214.870655 259.78774,206.104845 C259.768112,203.596308 259.635595,201.35222 259.323201,197.413345 L259.22377,196.162265 C258.468014,187.874612 256.898898,179.705681 254.537294,171.750803 C251.797163,162.128754 247.531266,159.933641 235.751617,160.572939 C223.563209,161.376311 211.472289,163.060752 199.551088,165.614364 C198.516321,165.836019 197.833316,166.825382 197.99286,167.871527 L208.85286,239.081527 C209.021822,240.189427 210.06805,240.942273 211.172231,240.750502 Z" id="Path" fill="#b17606"/><path d="M254.567975,193.197239 C251.53808,193.597644 248.03133,194.020023 243.841266,194.494355 C240.734014,194.846109 237.577128,195.191034 232.751264,195.70983 C219.277066,197.158347 216.563979,197.456909 211.536,198.07494 C210.439681,198.209697 209.660182,199.207682 209.79494,200.304 C209.929697,201.400319 210.927682,202.179818 212.024,202.04506 C217.022401,201.430665 219.731723,201.132518 233.178812,199.686914 C238.011601,199.167375 241.17467,198.821773 244.291208,198.468969 C248.503991,197.992065 252.034016,197.566882 255.092025,197.162761 C256.187074,197.018049 256.957474,196.013024 256.812761,194.917975 C256.668049,193.822926 255.663024,193.052526 254.567975,193.197239 Z" id="Path" fill="#744b15"/><path d="M183.647477,216.285913 C176.27238,207.093596 168.897472,200.361278 161.188935,196.373611 C150.379212,190.769814 137.952009,187.160317 126.514028,186.743825 C112.868727,186.246957 101.213163,190.223087 92.8931004,199.200513 C91.0737687,201.167704 89.6227038,203.641503 88.2539879,206.962549 L82.4616924,188.122265 C82.0416595,186.756047 80.3655766,186.25868 79.2683185,187.174652 C75.4381812,190.371984 69.8999884,198.143202 63.0203997,209.383434 C58.3912695,216.946748 53.9799311,224.696071 49.5263216,232.818433 C48.3846545,234.904303 47.2115054,237.237315 46.0036188,239.813344 C43.031622,246.151645 39.9095444,253.816177 36.4681973,263.037132 C34.8344444,267.414708 33.1905431,271.971584 31.2494494,277.467067 C30.4469352,279.739087 27.439992,288.315947 26.754578,290.252779 C17.1392054,317.428141 11.3600226,347.211384 4.94812658,394.511341 C3.69030638,403.803944 2.66766035,417.602445 1.85170246,434.734048 C1.30183536,446.27889 0.878169094,483.64485 0.56472179,496.010318 C0.455025022,500.337846 0.36693523,504.35638 0.298470149,507.963066 C0.274501774,509.225701 0.254697173,510.346773 0.238808831,511.313422 C0.233244809,511.651938 0.230128051,511.848552 0.224744726,512.19707 C0.22094827,512.449065 0.22094827,512.449065 0.218194738,512.501586 C0.204363183,513.616318 1.10301649,514.528806 2.21786069,514.529999 L161.147861,514.7 C162.253265,514.7 163.15,513.805405 163.15,512.7 C163.15,470.141163 165.41429,389.746084 169.425958,370.947405 C172.645309,355.902062 178.526908,337.443709 185.166036,320.905071 C188.281494,313.124894 191.992255,304.707226 196.989543,293.89453 C198.49,293.662806 199.98042,293.369297 201.457,293.014714 C208.578424,291.25795 210.671832,290.707762 214.336265,289.521832 C228.537123,284.925971 237.062171,278.399724 238.579722,267.82408 C239.815719,259.225841 235.878203,247.630218 229.754423,241.756611 C225.363541,237.548681 219.265019,236.450175 211.163281,237.408854 C208.747,237.694773 206.393169,238.116367 202.984897,238.825162 C202.471087,238.932015 200.765702,239.290726 200.524895,239.34104 C200.18307,239.412462 199.872039,239.47693 199.58268,239.536226 C193.363043,229.466034 188.907959,222.842574 183.647477,216.285913 Z" id="Path" fill="#b17606"/><path d="M186.092337,256.94081 C173.884626,258.215242 166.841252,268.196252 170.391476,279.527942 C170.419872,279.619411 171.697036,284.031565 172.183195,285.500178 C173.505538,289.494772 174.896443,292.230829 176.827447,293.866207 C182.134799,298.368164 187.326545,299.233038 194.598316,297.441961 C195.670831,297.177795 196.326128,296.0942 196.061961,295.021684 C195.797795,293.949169 194.7142,293.293872 193.641684,293.558039 C187.535521,295.06202 183.659597,294.416343 179.413746,290.814804 C178.2142,289.798902 177.083209,287.574124 175.980541,284.243131 C175.523219,282.861632 174.260658,278.499923 174.21003,278.336885 C171.433661,269.475182 176.752794,261.937555 186.507663,260.91919 C187.606262,260.804501 188.403879,259.820937 188.28919,258.722337 C188.174501,257.623738 187.190937,256.826121 186.092337,256.94081 Z" id="Path" fill="#744b15"/><path d="M176.232218,262.778741 L176.225599,262.779914 C165.900548,264.591326 135.760604,266.109217 122.3471,265.80954 C120.975512,265.780113 119.592223,265.76465 117.615869,265.752684 C117.27926,265.750645 117.009487,265.749145 116.402385,265.745866 C103.273546,265.674957 97.7082324,265.207538 91.5926127,262.922789 C83.3023441,259.825607 77.9588039,253.654973 75.6493036,243.451343 C73.17576,232.518494 71.4086788,220.741722 69.8144322,205.839536 C69.2198732,200.281907 68.9105938,197.056892 67.8332076,185.473699 C67.612872,183.104827 67.4564712,181.43574 67.2989278,179.778763 C65.8929297,164.948312 64.6236078,148.572835 62.8050456,122.837572 C62.977358,125.276039 61.0885583,98.380368 60.5844093,91.3794013 C59.8823547,81.6301788 59.280397,73.6601097 58.6964108,66.4800061 C57.2447756,48.3934164 57.0303859,30.304287 59.4479415,23.0517982 C62.3907835,13.9973799 70.3051423,7.46219897 79.7033191,6.29212729 C103.592776,2.70870878 133.615969,-0.00115940172 149.541922,0.330439415 C150.966881,0.360314656 152.226429,0.373126052 154.961925,0.391324166 C163.026693,0.444975708 166.783422,0.541236832 171.532576,0.930363541 C186.574746,2.16285895 197.078452,6.02075615 203.117884,14.3142232 C206.410186,18.8444739 208.357339,25.3857318 209.573992,34.2039471 C209.8786,36.4117213 210.132935,38.7189021 210.379545,41.3951015 C210.474079,42.420982 210.56345,43.452888 210.675109,44.7904371 C210.654497,44.5435294 210.880163,47.264582 210.939288,47.958191 C211.013179,48.8250282 211.077597,49.5467287 211.14165,50.2174321 C211.190412,50.7495501 211.190412,50.7495501 211.239167,51.2821836 C213.248386,73.2376938 213.307264,73.8708707 214.137298,82.0732005 C214.702691,87.6603791 215.260653,92.8281824 215.836172,97.7652243 C221.064074,141.992592 224.197849,179.300002 225.36893,215.48458 C225.903372,231.814758 223.467011,242.919485 214.998845,250.190855 C210.981161,253.62205 204.438026,256.373641 195.854463,258.690105 C192.320571,259.643803 188.58983,260.482929 184.542411,261.27158 C183.019046,261.568412 181.520591,261.844984 179.827256,262.145829 C179.132054,262.269341 176.722573,262.691014 176.232218,262.778741 Z" id="Path" fill="#1A4E66"/><path d="M171.79,254.43 C159.933944,255.745924 148.007827,256.327034 136.08,256.17 C118.67,255.79 104.02,258.11 99.29,237.22 C95.08,218.62 93.53,194.53 91.72,175.47 C88.78,144.47 86.42,101.47 83.89,70.31 C83.21,61.91 81.24,33.04 84.49,25.47 C87.74,17.9 95.71,15.55 101.44,14.47 C115.21,11.81 131.99,9.74 147.74,10.07 C162.07,10.37 185.51,8.88 195.07,22.07 C200.69,29.81 201.16,48.71 202.07,57.86 C203.43,72.09 204.7,86.76 206.41,101.2 C210.61,136.74 213.91,177.2 215.08,213.2 C215.41,223.2 214.78,236.06 206.27,243.36 C198.32,250.15 178.66,253.59 171.79,254.43 Z" id="Path" fill="#FFF"/><path d="M76.7881757,12.3375179 C71.8904036,15.6130191 70.3166479,23.9603027 70.5390231,37.137083 C70.5954498,40.4806288 70.7552664,43.7853813 71.0477839,48.3769931 C71.0892379,49.027692 71.2655284,51.7330203 71.3080981,52.4061529 C71.3988993,53.8419415 71.4597356,54.9071252 71.5020519,55.8405736 C71.89653,64.3846251 72.4931522,74.2960025 73.4043509,87.9685221 C73.5325794,89.8925876 73.6679944,91.9067457 73.8229602,94.1976211 C73.9250633,95.707023 74.5346073,104.677899 74.7045316,107.197838 C75.0318729,112.052236 75.2830827,115.857886 75.5040212,119.336762 C77.5619528,152.069005 80.673107,186.986615 84.8415089,225.67425 C85.9837223,236.363885 88.3723137,246.376881 91.9824828,253.376751 C92.4887904,254.358447 93.6950554,254.743825 94.676751,254.237517 C95.6584467,253.73121 96.0438249,252.524945 95.5375172,251.543249 C92.1978287,245.067822 89.9131707,235.490516 88.8186794,225.247505 C84.6560199,186.613159 81.5499789,151.752935 79.4960588,119.084504 C79.274655,115.598295 79.0231302,111.787873 78.6954684,106.928722 C78.5254596,104.40753 77.9158759,95.4360699 77.8138398,93.9276589 C77.6589576,91.6380173 77.5236288,89.6251426 77.3954974,87.702534 C76.4859703,74.055097 75.890723,64.1665599 75.4978717,55.6577583 C75.4543423,54.6975344 75.3922991,53.6112202 75.3001231,52.1536921 C75.2572482,51.4757342 75.0808765,48.7691599 75.0396913,48.122681 C74.7508134,43.5881975 74.5936002,40.3372797 74.5384536,37.0695874 C74.3408123,25.358406 75.75865,17.8381195 79.0118243,15.6624821 C79.9299878,15.0484385 80.1765257,13.8063392 79.5624821,12.8881757 C78.9484385,11.9700122 77.7063392,11.7234743 76.7881757,12.3375179 Z" id="Path" fill="#0D323F"/><path d="M51.2333477,296.359456 C49.7183993,296.324108 48.791554,294.682419 49.5439143,293.367021 C52.1390052,288.829864 55.0915964,284.029122 58.7512059,278.335795 C60.2541149,275.997689 61.8126785,273.605596 63.8856071,270.447472 C64.547735,269.438715 66.9751976,265.746037 66.782301,266.039591 C67.9415576,264.275414 68.8062492,262.956438 69.6448847,261.671681 C71.7856,258.392189 73.5346642,255.672648 75.146124,253.106617 C87.6808035,233.139977 100.731275,217.213471 114.800292,206.242718 C122.85813,199.960527 132.413943,201.578929 138.462049,210.133965 C141.631112,214.607936 141.77772,219.678492 139.67312,225.715111 C138.845954,228.087666 137.829269,230.292249 136.025898,233.830576 C133.697807,238.398435 133.704648,238.384748 133.041039,239.894547 C130.629865,245.382046 129.080954,254.831478 128.738559,263.635919 C128.595668,267.397505 129.033892,271.686435 129.989018,276.567164 C130.730002,280.35362 131.730072,284.289617 133.133681,289.167282 C133.427207,290.187312 133.730879,291.224064 134.115086,292.522178 C134.215955,292.862982 134.874137,295.080426 135.058148,295.70369 C135.44199,297.003799 134.448567,298.301076 133.093348,298.270022 L51.2333477,296.359456 Z" id="Path" fill="#b17606"/><path d="M68.2053619,81.3938712 C67.823324,75.7940001 67.5363258,70.238714 67.3488206,64.7813244 C67.3108921,63.6774063 66.3852425,62.813251 65.2813244,62.8511794 C64.1774063,62.8891079 63.313251,63.8147575 63.3511794,64.9186756 C63.540249,70.4215949 63.8295694,76.0218319 64.2146381,81.6661288 C64.28982,82.7681367 65.2441209,83.6005437 66.3461288,83.5253619 C67.4481367,83.45018 68.2805437,82.4958791 68.2053619,81.3938712 Z" id="Path" fill="#0D323F"/><path d="M70.2314934,108.935734 C69.7363296,103.584155 69.3505696,97.901614 69.0576894,91.8138912 C69.00461,90.7105978 68.0671846,89.8592312 66.9638912,89.9123106 C65.8605978,89.96539 65.0092312,90.9028154 65.0623106,92.0061088 C65.3578878,98.1498923 65.747592,103.890535 66.2485066,109.304266 C66.3502741,110.404138 67.3243949,111.213261 68.4242663,111.111493 C69.5241377,111.009726 70.3332609,110.035605 70.2314934,108.935734 Z" id="Path" fill="#0D323F"/><path d="M128.299043,267.779977 C128.953199,274.635526 130.571305,280.016487 133.810201,287.790092 C133.98855,288.218145 134.169496,288.64938 134.414513,289.231108 C134.564421,289.586901 134.564421,289.586901 134.713376,289.940325 C134.861788,290.292607 134.921969,290.435575 135.008986,290.642689 C135.480178,291.7642 135.821522,292.590095 136.143405,293.393678 C136.554127,294.419047 137.718309,294.917316 138.743678,294.506595 C139.769047,294.095873 140.267316,292.931691 139.856595,291.906322 C139.524842,291.0781 139.175836,290.233667 138.69673,289.093319 C138.609074,288.884684 138.548402,288.74055 138.39949,288.387084 C138.25035,288.03322 138.25035,288.03322 138.100878,287.678462 C137.857686,287.101066 137.678532,286.6741 137.502526,286.251674 C134.404226,278.815509 132.889609,273.778698 132.280957,267.400023 C132.176035,266.300448 131.199598,265.494122 130.100023,265.599043 C129.000448,265.703965 128.194122,266.680402 128.299043,267.779977 Z" id="Path" fill="#744b15"/><path d="M51.3060857,290.422979 C53.8469498,285.980629 56.7480184,281.263577 60.347445,275.66429 C61.8464418,273.332443 63.4032637,270.943635 65.4765595,267.786066 C66.1393545,266.776649 68.5598219,263.095978 68.3843614,263.362901 C69.5499738,261.589687 70.4205742,260.262114 71.2653047,258.968326 C73.4260423,255.658944 75.193381,252.910917 76.823931,250.313296 C77.411173,249.377763 77.128828,248.143311 76.1932957,247.556069 C75.2577634,246.968827 74.023311,247.251172 73.436069,248.186704 C71.8199126,250.761395 70.0647517,253.490487 67.9159948,256.78152 C67.0739365,258.071215 66.2053851,259.395663 65.041849,261.165718 C65.2180281,260.897702 62.7966249,264.579796 62.1329222,265.590596 C60.0531461,268.758034 58.4899299,271.156653 56.9826996,273.501309 C53.3489543,279.153982 50.4137319,283.926567 47.8339143,288.437021 C47.2855074,289.395835 47.6182078,290.617679 48.5770214,291.166086 C49.5358351,291.714493 50.7576788,291.381792 51.3060857,290.422979 Z" id="Path" fill="#744b15"/><path d="M134.373182,348.86945 C136.42131,349.338884 138.427675,349.974816 140.372268,350.770903 C141.394494,351.189387 142.56242,350.699957 142.980903,349.677732 C143.399387,348.655506 142.909957,347.48758 141.887732,347.069097 C139.741574,346.190493 137.527242,345.488644 135.266818,344.97055 C134.190166,344.72378 133.117321,345.396531 132.87055,346.473182 C132.62378,347.549834 133.296531,348.622679 134.373182,348.86945 Z" id="Path" fill="#744b15"/></g><g id="Phone/Wear" transform="scale(1 1)"><g id="Phone/Wear/Cloud" stroke="none" stroke-width="1" fill="none" fill-rule="evenodd"><g id="clothing" transform="translate(17.000000, 393.000000)" fill-rule="nonzero"><path d="M530.72,122.72 C529.345056,121.745776 527.705036,121.215386 526.02,121.2 C527.389268,117.983122 527.618596,114.395021 526.67,111.03 C525.597339,107.397922 522.843859,104.503046 519.27,103.25 C513.35,101.08 508.71,103.5 505.11,107.12 C505.860693,100.894233 504.739688,94.5859642 501.89,89 C501.56,88.41 493.89,74.6 486.02,72.59 C479.58,70.93 474.28,71.98 470.27,75.72 C461.59,83.8 461.39,103.06 462.85,115.59 C461.687227,115.185554 460.460629,114.995804 459.23,115.03 C452.59,115.16 443.46,121.03 440.8,126.91 C439.8,129.13 438.64,132.36 440.27,134.91 C441.9,137.46 445.44,137.91 450.27,137.84 C454.32,137.84 458.38,137.84 462.27,137.93 C465.27,137.99 468.37,138.04 471.48,138.04 C474.59,138.04 477.48,137.99 480.48,137.84 L484.48,137.64 C494.02,137.18 505.91,136.64 514.48,135.28 L517.09,134.88 C525.64,133.61 532.39,132.6 532.33,126.21 C532.375219,124.857565 531.778201,123.563408 530.72,122.72 L530.72,122.72 Z" id="Path" fill="#91D5DD"/><path d="M101,33.68 C100.0612,33.2405971 99.0365317,33.0151702 98,33.02 C98.4515865,31.2130477 98.2275458,29.303367 97.37,27.65 C95.61,24.33 91.37,22.42 86.15,22.65 C79.15,22.96 72.48,26.94 67.57,32.06 L67.93,31.06 C69.75,25.99 71.62,20.74 69.71,13.87 C67.9,7.4 64.5,0.06 53.88,0.54 C44.21,0.98 34.09,7.72 26.8,18.54 C20.8,27.54 18.01,37.49 19.11,45.69 C15.0800256,44.457427 10.7259348,44.8709039 7,46.84 C3,48.84 0.59,52.05 0.76,54.97 C0.83,56.3 1.52,58.75 5.31,60.16 C7.20094289,60.7538363 9.17927635,61.0209959 11.16,60.95 C13.37,60.95 15.74,60.75 17.96,60.57 C19.76,60.42 21.46,60.28 22.73,60.28 L50.25,60.28 C53.06,60.28 55.92,60.33 58.95,60.39 C72.36,60.64 87.57,60.92 100.15,56.33 L100.4,56.22 C104.48,54.07 106.85,49.71 106.75,44.56 C106.65,39.65 104.33,35.28 101,33.68 Z" id="Path" fill="#91D5DD"/><path d="M356,116.18 C379.27,91.97 396.77,28.18 347,17.01 C343.71,16.27 340.43,15.69 337.17,15.25 C331.001577,30.7376666 326.049909,46.6826377 322.36,62.94 C319.7,75.4 318.04,101.94 317.1,127.67 C304.62,133.96 293.39,148.09 290.29,157.88 C289.18,148.53 275.75,136.3 259.37,138.98 C242.99,141.66 225.43,161.87 224.28,174.46 C220.17,152.78 193.48,135.72 173.35,131.93 C167.11066,130.790838 160.703157,130.95426 154.53,132.41 C155.26,115.56 156.34,97.93 157.88,86.51 C159.88,71.71 162.14,55.94 165.03,40.14 L164.85,40.14 C153.43,41.04 140.85,43.74 131.09,49.71 C118.77,57.26 105.24,69.51 99.31,83.01 C92.7,98.07 86.59,120.23 92.31,141.07 C78.16,132.91 62.09,139.01 57.5,149.44 C50.59,165.11 58.16,188.66 78.69,195.83 C99.22,203 129.15,207 164.32,207 L278.52,207 C320.24,207 354.37,204.52 368.11,201.11 C398.32,193.59 418.78,178.76 425.96,151.45 C435,116.92 395.13,82.37 356,116.18 Z" id="Path" fill="#91D5DD"/><path d="M259.116873,136.996275 C245.332034,139.253048 229.598963,153.96296 224.211866,167.157508 C216.79722,149.356185 194.909842,133.940887 173.790051,129.964533 C159.467351,127.266764 144.012535,131.689236 131.945063,141.03901 C131.071906,141.715525 130.912496,142.971781 131.58901,143.844937 C132.265525,144.718094 133.521781,144.877504 134.394937,144.20099 C145.601439,135.518288 159.917049,131.421805 173.049797,133.895439 C195.40842,138.105036 218.831332,156.087145 222.384998,174.832516 C222.81694,177.110982 226.130759,176.95136 226.341708,174.641927 C227.49076,162.062313 245.199398,143.328013 259.763127,140.943725 C266.839532,139.785217 273.802459,141.568502 279.47315,145.550513 C284.497218,149.07846 287.882989,153.980234 288.373946,158.115777 C288.62778,160.253925 291.61741,160.53613 292.266854,158.483247 C294.906472,150.139454 303.491996,139.112285 312.904515,132.554769 C323.855492,124.925441 334.037078,124.158495 341.62235,131.780768 C342.401496,132.563715 343.667822,132.566796 344.450768,131.78765 C345.233715,131.008504 345.236796,129.742178 344.45765,128.959232 C335.270731,119.727498 322.991331,120.652466 310.617985,129.272731 C302.34875,135.033742 294.728195,143.937462 290.631566,152.03673 C285.865214,142.400791 272.453996,134.8128 259.116873,136.996275 Z" id="Path" fill="#1A4E66"/></g></g></g><g id="Phone/Item" transform="scale(1 1)"><g id="Phone/Item/Contact" stroke="none" stroke-width="1" fill="none" fill-rule="evenodd"><g id="items" transform="translate(264.000000, 130.000000)" fill-rule="nonzero"><path d="M8.66515785,20.937169 C3.32597039,27.7464186 0.0302518521,40.5368693 0.82707036,49.9880222 C1.60567488,58.9928014 3.98472068,67.7820539 7.85257482,75.9462793 C12.7648097,86.1049271 21.8043682,93.7444932 32.7154008,97.8517746 C43.6972235,101.985704 57.7147162,102.814167 68.8681492,99.3184595 C80.4052105,95.7025147 90.0510089,88.5611892 94.7295445,80.5043286 C100.000081,71.3223753 102.396866,63.0372523 102.199576,53.4588141 C101.891961,38.6341558 97.9243632,25.1227299 90.1162436,16.1842378 C79.3682097,3.84530252 61.9128405,-1.11877579 44.8692279,1.30125463 C29.9530065,2.49784553 18.1445394,8.82802353 8.66515785,20.937169 Z" id="Path" fill="#4E6AF0"/><path d="M69.7298163,40.7828909 C69.8289865,48.098602 66.6196881,53.7611428 61.0829799,56.7761717 C68.1195589,58.9394381 75.5054129,63.9022136 81.8380002,70.5609728 C85.3438688,74.2946874 88.5236428,78.3216583 91.3425063,82.5977677 L91.3425063,82.5977677 L91.42281,82.7072727 C91.9732399,83.4578589 91.9331159,84.4889419 91.3260217,85.1944838 C86.0382367,91.3397475 78.038899,96.4444795 68.8481492,99.3184595 C57.7039587,102.811271 43.6934182,101.980333 32.6930996,97.8509067 C29.3219186,96.5771449 26.0983273,94.9426479 23.0785162,92.9759067 C22.2590869,92.4422291 21.9457271,91.3942669 22.3376853,90.4983623 L22.3376853,90.4983623 L22.3831497,90.3969609 C27.6850796,77.1474702 35.1137724,65.7718594 43.112861,59.1726284 C43.5853605,58.7856997 44.0723331,58.4318326 44.5726631,58.1101498 C40.0923938,56.1473083 36.3400836,51.902914 34.6744613,46.3650753 C31.5936483,36.1030866 37.3130859,25.6227763 47.1048092,23.5335705 C59.9275795,20.8123394 69.5702892,29.0147018 69.7298163,40.7828909 Z" id="Combined-Shape" fill="#EAF3F3"/><path d="M55.7036169,114.544656 L55.712474,114.54407 C68.6093427,113.72005 78.9537065,112.777674 95.2256087,110.607553 C96.3731379,110.454511 97.4105094,111.304742 97.4857694,112.459982 C97.517802,112.951684 97.5530732,113.460371 97.5918565,113.992015 C97.669262,115.053095 97.755396,116.139598 97.874071,117.574114 C98.4966005,125.099111 98.5825517,126.374291 98.4874369,128.251221 C98.4381613,129.223593 97.6958292,130.0192 96.7291985,130.135645 C96.6559455,130.144469 96.6559455,130.144469 96.3094577,130.185873 C95.9671437,130.226691 95.5679723,130.274025 95.1157551,130.32733 C93.8242112,130.479572 92.3662507,130.649189 90.7723583,130.831839 C86.2184754,131.353686 81.4870506,131.875535 76.8216693,132.362682 C74.7969071,132.574103 72.8247281,132.774696 70.9167633,132.962803 C64.5979445,133.585776 59.1787052,134.053127 54.9280788,134.325895 C51.9885386,134.514528 48.7130107,134.753255 45.1598763,135.035034 C43.0416571,135.203018 40.8433446,135.384843 38.5818947,135.57845 C34.1317963,135.959432 29.6463227,136.367692 25.3497001,136.775951 C23.8459391,136.918836 22.4733021,137.051505 21.2597868,137.170548 C20.8352269,137.212197 20.4609377,137.249162 20.1404181,137.281017 C19.8167453,137.313264 19.8167453,137.313264 19.7500756,137.319967 C18.6633637,137.429228 17.6899568,136.64648 17.5634595,135.56164 C17.5496685,135.443367 17.5239283,135.221924 17.4878802,134.910688 C17.4278269,134.392193 17.3609171,133.812115 17.2888633,133.184445 C17.0829831,131.390996 16.8770966,129.575236 16.6848879,127.848935 C16.6521837,127.554988 16.6521837,127.554988 16.6195298,127.26057 C16.2964406,124.345107 16.0535247,122.048309 15.9185671,120.594919 C15.8236346,119.572569 16.5182724,118.644411 17.5259086,118.447228 C22.6419885,117.446071 45.2974442,115.255924 55.7036169,114.544656 Z M20.0844884,122.077406 C20.216879,123.363482 20.3896842,124.965548 20.595192,126.819991 C20.6277287,127.113351 20.6277287,127.113351 20.6603222,127.406305 C20.8519738,129.127601 21.0573662,130.939004 21.2627649,132.728258 C21.2790525,132.870142 21.2950765,133.009586 21.3108168,133.146428 C22.4163729,133.0384 23.642914,132.920111 24.97133,132.793886 C29.279573,132.384523 33.7771513,131.975161 38.2406952,131.593029 C40.5101623,131.398736 42.7167453,131.216227 44.8436515,131.047554 C48.4155505,130.764286 51.7106279,130.524135 54.6719212,130.334105 C58.8691763,130.064763 64.2469663,129.600986 70.5243055,128.982102 C72.4243243,128.794779 74.3888916,128.59496 76.4062577,128.384311 C81.0571275,127.898679 85.7755558,127.378264 90.3169633,126.857847 C91.848506,126.682341 93.2539922,126.518927 94.5061035,126.371491 C94.4623297,124.965381 94.290432,122.772167 93.887689,117.9039 C93.7889557,116.710434 93.7124137,115.754011 93.644551,114.851309 C78.466936,116.838666 68.384862,117.742487 55.9719553,118.535647 C46.6880428,119.170376 27.2584564,121.024385 20.0844884,122.077406 Z" id="Path" fill="#EAF3F3"/><path d="M36.2368828,149.163837 L43.2268828,148.613837 C44.3280488,148.527193 45.1504814,147.564283 45.0638375,146.463117 C44.9771935,145.361951 44.0142832,144.539519 42.9131172,144.626163 L35.9231172,145.176163 C34.8219512,145.262807 33.9995186,146.225717 34.0861625,147.326883 C34.1728065,148.428049 35.1357168,149.250481 36.2368828,149.163837 Z" id="Path" fill="#EAF3F3"/><path d="M55.4697172,147.643612 L62.4597172,147.083612 C63.5607589,146.995403 64.3818218,146.031325 64.2936124,144.930283 C64.2054031,143.829241 63.2413246,143.008178 62.1402828,143.096388 L55.1502828,143.656388 C54.0492411,143.744597 53.2281782,144.708675 53.3163876,145.809717 C53.4045969,146.910759 54.3686754,147.731822 55.4697172,147.643612 Z" id="Path" fill="#EAF3F3"/><path d="M75.0668828,146.083837 L82.0568828,145.533837 C83.1580488,145.447193 83.9804814,144.484283 83.8938375,143.383117 C83.8071935,142.281951 82.8442832,141.459519 81.7431172,141.546163 L74.7531172,142.096163 C73.6519512,142.182807 72.8295186,143.145717 72.9161625,144.246883 C73.0028065,145.348049 73.9657168,146.170481 75.0668828,146.083837 Z" id="Path" fill="#EAF3F3"/></g></g></g><g id="Phone/Effect" transform="scale(1 1)"><g id="Phone/Effect/Emphasis" stroke="none" stroke-width="1" fill="none" fill-rule="evenodd"><g id="addons" transform="translate(374.000000, 30.000000)" fill-rule="nonzero"><path d="M3.48551415,35.3062667 C3.43037021,35.2423328 3.37933004,35.1749712 3.33270002,35.1045862 C0.888445686,31.4151457 0.506344661,8.37356531 2.51434847,3.73603308 C4.24004378,-0.253774462 11.0620177,-0.202898724 14.4979847,2.20227869 C16.8074372,3.82112317 17.2129536,9.35147015 16.6813549,18.144444 C16.2689256,24.9662819 15.2727062,31.9067436 14.361428,33.8660751 C12.6124492,37.7224299 6.87427767,38.6710219 4.01081396,35.8393997 C3.82414595,35.6735147 3.64865817,35.4954159 3.48551415,35.3062667 Z" id="Path" fill="#80A3AF"/><path d="M0.771518205,48.7820865 C0.657696626,51.8693752 2.74673543,55.6238878 5.52949708,56.7856233 C12.5007517,59.6981785 18.6877457,51.0972979 14.5114998,45.0974247 C10.5863572,39.4900658 1.04489265,41.7700321 0.771518205,48.7820865 Z" id="Path" fill="#80A3AF"/><path d="M27.8687144,49.6991203 C25.6964781,45.1970763 28.7922081,19.0248903 31.7474562,14.1269494 C34.2025568,10.0569965 41.7520345,11.1316552 45.2378823,14.3009256 C47.4812649,16.4040969 47.0904011,22.7737054 45.1646399,32.5298076 C43.6494707,40.2058089 41.4507959,47.9242057 40.1285084,49.9718859 C37.5887137,53.9727452 31.1074446,54.1616929 28.4068504,50.5791071 C28.1949056,50.301582 28.0126649,50.0027236 27.8687144,49.6991203 Z" id="Path" fill="#5F7982"/><path d="M38.4987823,63.0857059 C35.0259972,56.3293147 24.1795313,57.4236168 22.8494524,65.0880321 C22.2600288,68.4600745 24.0126633,72.933694 26.8859597,74.6238684 C34.1034154,78.9023374 42.2041802,70.3488026 38.5015509,63.0911126 L38.4987823,63.0857059 Z" id="Path" fill="#5F7982"/></g></g></g></g></svg>